<svg width="200" height="112" viewBox="0 0 200 112" fill="none" xmlns="http://www.w3.org/2000/svg">
<rect x="0.5" y="0.5" width="199" height="111" rx="7.5" stroke="#AEB5BC" stroke-dasharray="4 4"/>
<path d="M100 22C94.477 22 90 26.477 90 32C90 37.523 94.477 42 100 42C105.523 42 110 37.523 110 32C110 26.477 105.523 22 100 22ZM105 33H101V37H99V33H95V31H99V27H101V31H105V33Z" fill="#AEB5BC"/>
<path d="M49.1357 59.0215H44.2002V61.5098H43.1201V59.0215H38.0068V58.1328H49.1357V59.0215ZM39.2646 54.7148C39.2646 54.2181 39.4401 53.7852 39.791 53.416C40.1419 53.0469 40.6409 52.7643 41.288 52.5684C41.9397 52.3678 42.6963 52.2676 43.5576 52.2676C44.4189 52.2676 45.1709 52.3678 45.8134 52.5684C46.4606 52.7643 46.9596 53.0469 47.3105 53.416C47.6614 53.7852 47.8369 54.2181 47.8369 54.7148C47.8369 55.207 47.6614 55.6377 47.3105 56.0068C46.9596 56.3714 46.4606 56.6517 45.8134 56.8477C45.1709 57.0391 44.4189 57.1348 43.5576 57.1348C42.6963 57.1348 41.942 57.0391 41.2949 56.8477C40.6477 56.6517 40.1464 56.3714 39.791 56.0068C39.4401 55.6377 39.2646 55.207 39.2646 54.7148ZM39.4423 60.293H40.5224V62.9316H47.8916V63.8477H39.4423V60.293ZM40.413 54.7148C40.4085 55.0247 40.5361 55.2959 40.7959 55.5283C41.0556 55.7607 41.4225 55.9408 41.8964 56.0684C42.375 56.196 42.9287 56.2598 43.5576 56.2598C44.1819 56.2598 44.7311 56.1982 45.205 56.0752C45.679 55.9476 46.0459 55.7676 46.3056 55.5352C46.5699 55.2982 46.7021 55.0247 46.7021 54.7148C46.7021 54.3958 46.5722 54.1178 46.3125 53.8809C46.0527 53.6439 45.6858 53.4616 45.2119 53.334C44.7379 53.2064 44.1865 53.1426 43.5576 53.1426C42.9287 53.1426 42.375 53.2064 41.8964 53.334C41.4225 53.4616 41.0556 53.6439 40.7959 53.8809C40.5361 54.1178 40.4085 54.3958 40.413 54.7148ZM60.928 58.8301H49.8401V57.9688H54.8577V56.5469H51.2483V52.5273H59.5471V53.3887H52.301V55.6719H59.6291V56.5469H55.8967V57.9688H60.928V58.8301ZM51.1799 61.9062C51.1799 61.446 51.3463 61.054 51.6789 60.7305C52.0116 60.4023 52.4924 60.1517 53.1213 59.9785C53.7502 59.8053 54.5022 59.7188 55.3772 59.7188C56.2431 59.7188 56.9882 59.8053 57.6125 59.9785C58.2369 60.1517 58.7154 60.4023 59.0481 60.7305C59.3853 61.054 59.5562 61.446 59.5608 61.9062C59.5562 62.3711 59.3876 62.7653 59.0549 63.0889C58.7222 63.417 58.2414 63.6676 57.6125 63.8408C56.9882 64.014 56.2431 64.1029 55.3772 64.1074C54.5022 64.1029 53.7502 64.014 53.1213 63.8408C52.4924 63.6676 52.0116 63.417 51.6789 63.0889C51.3463 62.7607 51.1799 62.3665 51.1799 61.9062ZM52.2737 61.9062C52.2691 62.1842 52.3876 62.4258 52.6291 62.6309C52.8752 62.8314 53.2284 62.984 53.6887 63.0889C54.149 63.1937 54.6982 63.2461 55.3362 63.2461C56.3205 63.2461 57.0885 63.1299 57.6399 62.8975C58.1959 62.665 58.4761 62.3346 58.4807 61.9062C58.4807 61.6283 58.3554 61.389 58.1047 61.1885C57.8541 60.988 57.4963 60.8353 57.0315 60.7305C56.5666 60.6211 56.0152 60.5664 55.3772 60.5664C54.7301 60.5664 54.1718 60.6211 53.7024 60.7305C53.2375 60.8353 52.8821 60.988 52.636 61.1885C52.3899 61.389 52.2691 61.6283 52.2737 61.9062ZM67.2652 59.5957C68.0946 59.5957 68.8101 59.6846 69.4116 59.8623C70.0132 60.0355 70.4735 60.2907 70.7925 60.6279C71.1115 60.9652 71.271 61.3685 71.271 61.8379C71.271 62.3118 71.1115 62.7174 70.7925 63.0547C70.4735 63.3965 70.0132 63.6562 69.4116 63.834C68.8101 64.0117 68.0946 64.1029 67.2652 64.1074C66.4312 64.1029 65.7111 64.0117 65.105 63.834C64.5034 63.6562 64.0409 63.3965 63.7173 63.0547C63.3937 62.7174 63.232 62.3118 63.232 61.8379C63.232 61.3685 63.3937 60.9652 63.7173 60.6279C64.0409 60.2907 64.5057 60.0355 65.1118 59.8623C65.718 59.6846 66.4357 59.5957 67.2652 59.5957ZM62.1792 52.7188H63.232V54.5781H66.773V52.7188H67.8394V58.3242H62.1792V52.7188ZM66.773 57.4492V55.4258H63.232V57.4492H66.773ZM64.312 61.8379C64.3075 62.125 64.4237 62.3734 64.6607 62.583C64.8976 62.7926 65.2394 62.9521 65.6861 63.0615C66.1327 63.1755 66.659 63.2324 67.2652 63.2324C67.8758 63.2324 68.4022 63.1755 68.8443 63.0615C69.2909 62.9521 69.6327 62.7926 69.8696 62.583C70.1112 62.3734 70.232 62.125 70.232 61.8379C70.232 61.5508 70.1112 61.3047 69.8696 61.0996C69.6327 60.89 69.2909 60.7305 68.8443 60.6211C68.4022 60.5072 67.8758 60.4479 67.2652 60.4434C66.6545 60.4479 66.1258 60.5072 65.6792 60.6211C65.2372 60.7305 64.8976 60.89 64.6607 61.0996C64.4237 61.3047 64.3075 61.5508 64.312 61.8379ZM70.0952 51.9531H71.1616V55.0156H72.9937V55.9316H71.1616V59.2676H70.0952V51.9531ZM86.7481 59.4453H85.6817V51.9668H86.7481V59.4453ZM77.3282 52.7324H82.879V56.0684H78.3946V57.791C79.5795 57.791 80.6049 57.766 81.4708 57.7158C82.3367 57.6611 83.2345 57.5586 84.1641 57.4082L84.2872 58.2969C83.3347 58.4518 82.4164 58.5566 81.5323 58.6113C80.6527 58.6615 79.5886 58.6888 78.3399 58.6934H77.3555V55.2207H81.8126V53.6348H77.3282V52.7324ZM78.6134 61.8926C78.6134 61.4323 78.7751 61.0381 79.0987 60.71C79.4268 60.3773 79.8985 60.1243 80.5138 59.9512C81.1335 59.778 81.8673 59.6914 82.7149 59.6914C83.5626 59.6914 84.294 59.778 84.9093 59.9512C85.5291 60.1243 86.003 60.3773 86.3311 60.71C86.6638 61.0381 86.8302 61.4323 86.8302 61.8926C86.8302 62.3529 86.6638 62.7471 86.3311 63.0752C86.003 63.4033 85.5291 63.6517 84.9093 63.8203C84.294 63.9935 83.5626 64.0801 82.7149 64.0801C81.8673 64.0801 81.1335 63.9935 80.5138 63.8203C79.8985 63.6517 79.4268 63.4033 79.0987 63.0752C78.7751 62.7471 78.6134 62.3529 78.6134 61.8926ZM79.6661 61.8926C79.6661 62.166 79.7869 62.403 80.0284 62.6035C80.2699 62.7995 80.6163 62.9499 81.0675 63.0547C81.5186 63.1641 82.0541 63.2188 82.6739 63.2188C83.3074 63.2188 83.8542 63.1663 84.3145 63.0615C84.7794 62.9567 85.1348 62.8063 85.3809 62.6104C85.627 62.4098 85.7501 62.1706 85.7501 61.8926C85.7501 61.6146 85.6293 61.3753 85.3878 61.1748C85.1462 60.9743 84.7953 60.8216 84.335 60.7168C83.8793 60.6074 83.3393 60.5527 82.7149 60.5527C82.086 60.5527 81.5437 60.6074 81.088 60.7168C80.6322 60.8216 80.2813 60.9743 80.0352 61.1748C79.7891 61.3753 79.6661 61.6146 79.6661 61.8926ZM98.2259 54.7012V55.2549C98.2259 56.2074 98.194 57.0869 98.1302 57.8936C98.0664 58.7002 97.9297 59.6048 97.7201 60.6074L96.64 60.5117C96.877 59.5 97.0342 58.4587 97.1117 57.3877L89.6947 57.791L89.5443 56.9023L97.1595 56.5879C97.1778 56.0182 97.1869 55.3893 97.1869 54.7012V54.0996H89.8724V53.1973H98.2259V54.7012ZM88.5326 61.4961H99.6068V62.3984H88.5326V61.4961ZM111.467 58.4473H100.339V57.5996H111.467V58.4473ZM101.678 59.418H110.073V62.002H102.772V63.1641H110.469V63.9434H101.692V61.2637H109.006V60.2246H101.678V59.418ZM101.747 52.3223H110.032V54.8379H102.854V55.9043H110.251V56.6836H101.788V54.0996H108.952V53.1016H101.747V52.3223ZM126.48 59.1309H115.405V58.2422H120.409V56.7793H116.882V52.2402H117.948V53.6484H123.964V52.2402H125.03V56.7793H121.476V58.2422H126.48V59.1309ZM116.636 60.334H125.113V64.1074H124.032V61.1953H116.636V60.334ZM123.964 55.918V54.4688H117.948V55.918H123.964ZM131.299 55.2207C131.299 55.918 131.438 56.6152 131.716 57.3125C131.999 58.0052 132.379 58.625 132.858 59.1719C133.341 59.7188 133.87 60.1335 134.444 60.416L133.788 61.2773C133.118 60.931 132.516 60.4183 131.983 59.7393C131.454 59.0602 131.055 58.2969 130.787 57.4492C130.518 58.347 130.112 59.1582 129.57 59.8828C129.027 60.6029 128.415 61.1452 127.731 61.5098L127.047 60.6484C127.635 60.3613 128.171 59.9307 128.654 59.3564C129.141 58.7822 129.527 58.1328 129.809 57.4082C130.096 56.679 130.242 55.9499 130.247 55.2207V53.0059H131.299V55.2207ZM135.565 51.9531H136.631V56.8887H138.668V57.8184H136.631V64.1074H135.565V51.9531ZM148.451 56.9707H150.488V57.8594H148.451V64.1074H147.385V51.9531H148.451V56.9707ZM138.976 53.9082H142.107V52.1035H143.174V53.9082H146.209V54.7969H138.976V53.9082ZM139.674 58.5977C139.674 58.0599 139.801 57.5791 140.056 57.1553C140.312 56.7314 140.665 56.401 141.116 56.1641C141.572 55.9271 142.084 55.8086 142.654 55.8086C143.219 55.8086 143.727 55.9271 144.178 56.1641C144.63 56.401 144.983 56.7314 145.238 57.1553C145.498 57.5791 145.63 58.0599 145.635 58.5977C145.63 59.14 145.498 59.623 145.238 60.0469C144.983 60.4661 144.63 60.7943 144.178 61.0312C143.727 61.2682 143.219 61.3867 142.654 61.3867C142.084 61.3867 141.572 61.2682 141.116 61.0312C140.665 60.7943 140.312 60.4661 140.056 60.0469C139.801 59.623 139.674 59.14 139.674 58.5977ZM140.699 58.5977C140.699 58.9622 140.781 59.2881 140.945 59.5752C141.114 59.8577 141.346 60.0788 141.642 60.2383C141.943 60.3978 142.28 60.4753 142.654 60.4707C143.023 60.4753 143.356 60.3978 143.652 60.2383C143.948 60.0788 144.181 59.8577 144.349 59.5752C144.518 59.2881 144.605 58.9622 144.609 58.5977C144.605 58.2376 144.518 57.9141 144.349 57.627C144.181 57.3353 143.948 57.1097 143.652 56.9502C143.356 56.7907 143.023 56.7109 142.654 56.7109C142.28 56.7109 141.943 56.7907 141.642 56.9502C141.346 57.1097 141.114 57.3353 140.945 57.627C140.781 57.9141 140.699 58.2376 140.699 58.5977ZM160.612 54.4004V54.5508C160.603 55.5579 160.571 56.458 160.517 57.251C160.467 58.0439 160.348 58.9622 160.161 60.0059L159.067 59.8828C159.209 59.1628 159.311 58.486 159.375 57.8525C159.443 57.2145 159.484 56.6517 159.498 56.1641C159.516 55.6764 159.528 55.0885 159.532 54.4004V54.0723H152.04V53.1836H160.612V54.4004ZM150.864 61.4961H155.212V57.1484H156.265V61.4961H161.939V62.3848H150.864V61.4961ZM48.0146 80.9492H46.9482V71.9668H48.0146V80.9492ZM38.2255 78.625C38.8317 78.429 39.3694 78.1396 39.8388 77.7568C40.3082 77.3695 40.6728 76.9206 40.9326 76.4102C41.1969 75.8952 41.3291 75.3574 41.3291 74.7969V74.4688H38.5263V73.6074H41.3291V72.0215H42.4091V73.6074H45.1845V74.4688H42.3955V74.7969C42.3955 75.3255 42.5276 75.8314 42.792 76.3145C43.0563 76.793 43.4254 77.2145 43.8994 77.5791C44.3733 77.9391 44.9111 78.2103 45.5127 78.3926L44.9795 79.2539C44.264 79.0215 43.6351 78.6729 43.0927 78.208C42.555 77.7386 42.1494 77.1917 41.8759 76.5674C41.6116 77.2419 41.2083 77.832 40.666 78.3379C40.1237 78.8438 39.4925 79.222 38.7724 79.4727L38.2255 78.625ZM40.167 80.1152H41.2334V82.9453H48.3974V83.8477H40.167V80.1152ZM59.4104 73.8125C59.4104 74.5964 59.3899 75.2936 59.3489 75.9043C59.3124 76.5104 59.2167 77.1986 59.0618 77.9688H60.8733V78.8574H55.8557V84.1348H54.7756V78.8574H49.7991V77.9688H57.9748C58.1389 77.194 58.2414 76.5036 58.2825 75.8975C58.3235 75.2868 58.344 74.5918 58.344 73.8125V73.6348H51.1936V72.7461H59.4104V73.8125ZM72.0366 84.1074H70.9976V71.9531H72.0366V84.1074ZM61.7691 77.2031C61.7691 76.3509 61.8762 75.6081 62.0904 74.9746C62.3091 74.3366 62.6144 73.8444 63.0064 73.498C63.3983 73.1517 63.8563 72.9785 64.3804 72.9785C64.868 72.9785 65.301 73.1312 65.6792 73.4365C66.0575 73.7373 66.3583 74.168 66.5816 74.7285C66.8094 75.2845 66.9461 75.9408 66.9917 76.6973H68.564V72.2129H69.5894V83.4922H68.564V77.5859H66.9986C66.9667 78.3652 66.8368 79.0465 66.6089 79.6299C66.3856 80.2087 66.0825 80.653 65.6997 80.9629C65.3169 81.2728 64.8771 81.4277 64.3804 81.4277C63.8563 81.4277 63.3983 81.2568 63.0064 80.915C62.6144 80.5687 62.3091 80.0765 62.0904 79.4385C61.8762 78.8005 61.7691 78.0553 61.7691 77.2031ZM62.7808 77.2031C62.7762 77.8548 62.8377 78.4222 62.9654 78.9053C63.0975 79.3883 63.2844 79.7598 63.5259 80.0195C63.772 80.2793 64.0568 80.4069 64.3804 80.4023C64.704 80.4069 64.9865 80.2816 65.228 80.0264C65.4741 79.7666 65.6633 79.3975 65.7954 78.9189C65.9276 78.4404 65.9937 77.8799 65.9937 77.2373C65.9937 76.5765 65.9276 76.0023 65.7954 75.5146C65.6678 75.027 65.481 74.651 65.2349 74.3867C64.9933 74.1224 64.7085 73.9902 64.3804 73.9902C64.0523 73.9902 63.7674 74.1224 63.5259 74.3867C63.2844 74.6465 63.0975 75.0179 62.9654 75.501C62.8377 75.984 62.7762 76.5514 62.7808 77.2031ZM83.8426 84.1074H82.8172V71.9531H83.8426V84.1074ZM73.452 80.7031C74.7462 79.9375 75.7374 79.0215 76.4256 77.9551C77.1183 76.8841 77.5171 75.6992 77.6219 74.4004H73.9715V73.5117H78.6883C78.6883 74.7467 78.4855 75.8906 78.0799 76.9434H80.2605V72.2812H81.2859V83.4922H80.2605V77.8184H77.6834C76.9178 79.2949 75.7169 80.5163 74.0809 81.4824L73.452 80.7031ZM93.9877 79.6367C94.8535 79.6367 95.6055 79.7256 96.2435 79.9033C96.8861 80.0765 97.3806 80.3317 97.7269 80.6689C98.0778 81.0016 98.2533 81.4004 98.2533 81.8652C98.2533 82.3255 98.0778 82.722 97.7269 83.0547C97.3806 83.3874 96.8861 83.6403 96.2435 83.8135C95.6055 83.9912 94.8535 84.0801 93.9877 84.0801C93.1218 84.0801 92.3675 83.9912 91.725 83.8135C91.0869 83.6403 90.5948 83.3874 90.2484 83.0547C89.9066 82.722 89.7357 82.3255 89.7357 81.8652C89.7357 81.4004 89.9066 81.0016 90.2484 80.6689C90.5948 80.3317 91.0869 80.0765 91.725 79.9033C92.3675 79.7256 93.1218 79.6367 93.9877 79.6367ZM88.5052 77.627H93.0853V75.2754H94.138V77.627H99.5658V78.502H88.5052V77.627ZM89.8177 72.582H98.1576V73.6074C98.153 74.2773 98.1325 74.8447 98.0961 75.3096C98.0596 75.7699 97.9662 76.278 97.8158 76.834L96.763 76.7109C96.9089 76.1549 97 75.6559 97.0365 75.2139C97.0729 74.7673 97.0912 74.2318 97.0912 73.6074V73.457H89.8177V72.582ZM90.8021 81.8652C90.8021 82.1432 90.932 82.387 91.1918 82.5967C91.4515 82.8018 91.8207 82.959 92.2992 83.0684C92.7823 83.1777 93.3451 83.2324 93.9877 83.2324C94.6302 83.2324 95.1908 83.1777 95.6693 83.0684C96.1524 82.959 96.5238 82.8018 96.7836 82.5967C97.0479 82.387 97.1823 82.1432 97.1869 81.8652C97.1823 81.5781 97.0479 81.3298 96.7836 81.1201C96.5238 80.9105 96.1524 80.7487 95.6693 80.6348C95.1908 80.5163 94.6302 80.457 93.9877 80.457C93.3451 80.457 92.7823 80.5163 92.2992 80.6348C91.8207 80.7487 91.4515 80.9105 91.1918 81.1201C90.932 81.3298 90.8021 81.5781 90.8021 81.8652ZM111.426 79.7734H108.487V84.1074H107.407V79.7734H104.29V84.1074H103.182V79.7734H100.298V78.8848H111.426V79.7734ZM101.555 75.0977C101.555 74.5645 101.733 74.0996 102.089 73.7031C102.449 73.3021 102.95 72.9922 103.592 72.7734C104.24 72.5547 104.987 72.4453 105.835 72.4453C106.682 72.4453 107.427 72.5547 108.07 72.7734C108.717 72.9922 109.218 73.3021 109.574 73.7031C109.934 74.0996 110.114 74.5645 110.114 75.0977C110.114 75.6309 109.934 76.0957 109.574 76.4922C109.218 76.8887 108.717 77.194 108.07 77.4082C107.427 77.6178 106.682 77.7227 105.835 77.7227C104.987 77.7227 104.24 77.6178 103.592 77.4082C102.95 77.194 102.449 76.8887 102.089 76.4922C101.733 76.0957 101.555 75.6309 101.555 75.0977ZM102.663 75.0977C102.658 75.4486 102.788 75.7585 103.052 76.0273C103.317 76.2917 103.688 76.4967 104.167 76.6426C104.65 76.7884 105.206 76.8613 105.835 76.8613C106.464 76.8613 107.017 76.7884 107.496 76.6426C107.974 76.4967 108.348 76.2917 108.617 76.0273C108.886 75.763 109.02 75.4531 109.02 75.0977C109.02 74.7422 108.886 74.43 108.617 74.1611C108.348 73.8923 107.974 73.6849 107.496 73.5391C107.017 73.3932 106.464 73.3203 105.835 73.3203C105.206 73.3203 104.65 73.3932 104.167 73.5391C103.688 73.6849 103.317 73.8923 103.052 74.1611C102.788 74.43 102.658 74.7422 102.663 75.0977ZM118.201 74.9336H112.103V74.0586H114.633V72.3223H115.699V74.0586H118.201V74.9336ZM112.541 78.5156C112.541 77.987 112.653 77.513 112.876 77.0938C113.104 76.6745 113.416 76.3464 113.812 76.1094C114.209 75.8724 114.656 75.7539 115.152 75.7539C115.658 75.7539 116.109 75.8724 116.506 76.1094C116.907 76.3464 117.219 76.6745 117.442 77.0938C117.67 77.5085 117.786 77.9824 117.791 78.5156C117.786 79.0534 117.67 79.5342 117.442 79.958C117.219 80.3773 116.907 80.7077 116.506 80.9492C116.109 81.1862 115.658 81.3047 115.152 81.3047C114.656 81.3047 114.207 81.1862 113.806 80.9492C113.409 80.7077 113.099 80.3773 112.876 79.958C112.653 79.5342 112.541 79.0534 112.541 78.5156ZM113.498 78.5156C113.498 78.8711 113.569 79.1901 113.71 79.4727C113.851 79.7507 114.047 79.9694 114.298 80.1289C114.548 80.2839 114.833 80.3613 115.152 80.3613C115.471 80.3613 115.758 80.2839 116.014 80.1289C116.269 79.9694 116.469 79.7507 116.615 79.4727C116.761 79.1901 116.834 78.8711 116.834 78.5156C116.834 78.1647 116.761 77.8503 116.615 77.5723C116.469 77.2897 116.269 77.0687 116.014 76.9092C115.758 76.7451 115.471 76.6608 115.152 76.6562C114.833 76.6608 114.548 76.7451 114.298 76.9092C114.047 77.0687 113.851 77.2897 113.71 77.5723C113.569 77.8503 113.498 78.1647 113.498 78.5156ZM118.83 72.2539H119.842V77.0801H121.455V71.9531H122.48V84.1074H121.455V77.9688H119.842V83.5059H118.83V72.2539ZM135.079 82.5488H123.95V81.6602H128.954V79.0352H125.263V72.8145H126.343V75.0156H132.659V72.8145H133.712V79.0352H130.007V81.6602H135.079V82.5488ZM132.659 78.1602V75.8906H126.343V78.1602H132.659ZM139.379 75.4121C139.379 76.0638 139.482 76.7132 139.687 77.3604C139.892 78.0029 140.186 78.5908 140.569 79.124C140.956 79.6572 141.412 80.0788 141.936 80.3887L141.321 81.2227C140.747 80.8763 140.25 80.3978 139.831 79.7871C139.416 79.1764 139.099 78.4906 138.88 77.7295C138.652 78.5544 138.318 79.2949 137.875 79.9512C137.433 80.6074 136.914 81.1178 136.317 81.4824L135.633 80.6758C136.18 80.3568 136.659 79.9215 137.069 79.3701C137.479 78.8141 137.793 78.1966 138.012 77.5176C138.231 76.8385 138.34 76.1504 138.34 75.4531V73.1016H139.379V75.4121ZM140.596 76.3145H142.661V72.2129H143.672V83.4922H142.661V77.2305H140.596V76.3145ZM145.149 71.9531H146.188V84.1074H145.149V71.9531ZM158.719 82.5488H147.59V81.6465H150.351V78.3721C149.823 78.0986 149.413 77.7454 149.121 77.3125C148.829 76.8796 148.683 76.3919 148.683 75.8496C148.683 75.2344 148.872 74.6898 149.251 74.2158C149.629 73.7419 150.153 73.375 150.823 73.1152C151.497 72.8555 152.265 72.7233 153.127 72.7188C153.988 72.7233 154.754 72.8555 155.424 73.1152C156.098 73.375 156.624 73.7419 157.003 74.2158C157.381 74.6898 157.57 75.2344 157.57 75.8496C157.57 76.3828 157.429 76.8636 157.146 77.292C156.864 77.7158 156.467 78.0645 155.957 78.3379V81.6465H158.719V82.5488ZM149.722 75.8496C149.722 76.2962 149.866 76.6927 150.153 77.0391C150.44 77.3809 150.841 77.6475 151.356 77.8389C151.876 78.0257 152.466 78.1191 153.127 78.1191C153.783 78.1191 154.369 78.0257 154.884 77.8389C155.399 77.6475 155.802 77.3809 156.094 77.0391C156.385 76.6927 156.531 76.2962 156.531 75.8496C156.531 75.403 156.385 75.0088 156.094 74.667C155.802 74.3252 155.399 74.0632 154.884 73.8809C154.369 73.694 153.783 73.6029 153.127 73.6074C152.466 73.6029 151.876 73.694 151.356 73.8809C150.841 74.0632 150.44 74.3252 150.153 74.667C149.866 75.0088 149.722 75.403 149.722 75.8496ZM154.877 81.6465V78.7549C154.334 78.8962 153.751 78.9668 153.127 78.9668C152.498 78.9668 151.924 78.8984 151.404 78.7617V81.6465H154.877ZM161.282 80.2109H160.134L160.038 73.1016H161.378L161.282 80.2109ZM159.833 82.1934C159.828 82.0384 159.865 81.8949 159.942 81.7627C160.024 81.626 160.132 81.5189 160.264 81.4414C160.4 81.3594 160.549 81.3184 160.708 81.3184C160.863 81.3184 161.007 81.3571 161.139 81.4346C161.275 81.512 161.383 81.6169 161.46 81.749C161.542 81.8812 161.583 82.0247 161.583 82.1797C161.583 82.4258 161.499 82.6377 161.33 82.8154C161.161 82.9886 160.954 83.0775 160.708 83.082C160.549 83.082 160.4 83.041 160.264 82.959C160.132 82.877 160.024 82.7699 159.942 82.6377C159.865 82.501 159.828 82.3529 159.833 82.1934Z" fill="#4A5056"/>
</svg>
