<svg width="200" height="112" viewBox="0 0 200 112" fill="none" xmlns="http://www.w3.org/2000/svg">
<rect width="200" height="112" rx="8" fill="#222529"/>
<path d="M92.8947 73.0896C92.3376 73.0896 91.7997 73.0507 91.2425 72.973C91.0504 72.973 90.8775 72.9341 90.6854 72.8952L76.8341 70.4272C75.2972 70.1551 73.9524 69.3 73.0686 67.998C72.1657 66.7154 71.8199 65.1412 72.0889 63.5866C72.646 60.38 75.6814 58.2229 78.8512 58.7865L80.8684 59.1363C80.8684 59.0002 80.9069 58.8448 80.9261 58.7087L75.2395 46.4073C74.0676 43.8615 75.1627 40.8104 77.6794 39.625C80.0039 38.5367 82.7319 39.3723 84.0575 41.51L83.9615 40.9853C83.5004 38.2257 85.3255 35.5633 88.0727 35.0775C90.4933 34.65 92.8179 36.0298 93.6632 38.2646C94.5277 36.3796 96.5064 35.1358 98.6773 35.3301C100.406 35.4856 101.348 36.263 101.847 36.8848C102.539 37.7593 102.846 38.9448 102.731 40.3246C102.673 41.063 102.039 41.5878 101.309 41.5295C100.579 41.4712 100.061 40.8298 100.118 40.0914C100.233 38.7116 99.7339 38.0897 98.4468 37.9731C97.1212 37.8565 95.9493 38.8476 95.8148 40.208L95.2193 47.0292C95.1616 47.6899 94.6237 48.2146 93.9705 48.234C93.3174 48.2729 92.741 47.7871 92.6258 47.1458L91.3194 39.6833C91.0889 38.3618 89.8401 37.4678 88.5145 37.701C87.2082 37.9342 86.3244 39.2169 86.555 40.5383L88.3416 50.8187C88.4569 51.4794 88.0727 52.1207 87.4387 52.3151C86.8047 52.5094 86.1323 52.2179 85.8634 51.6155L82.0019 43.2396C81.4448 42.0153 80.0039 41.4906 78.7744 42.0542C77.5641 42.6177 77.0454 44.0947 77.6025 45.319L83.462 58.048C83.5772 58.3006 83.6157 58.5921 83.558 58.8836C83.4235 59.5055 83.3659 60.1468 83.3659 60.7687C83.3659 61.1574 83.193 61.5266 82.8856 61.7792C82.5975 62.0319 82.194 62.129 81.829 62.0707L78.3902 61.4683C76.6419 61.1574 74.9706 62.3428 74.6632 64.1113C74.3558 65.8797 75.5277 67.5704 77.2759 67.8814L91.1273 70.3494C91.2425 70.3689 91.3578 70.3883 91.4539 70.3883C91.4923 70.3883 91.5115 70.3883 91.5499 70.3883C92.5489 70.5243 93.5479 70.5049 94.5085 70.33C98.8886 69.5527 102.116 65.8603 102.347 61.3517C102.385 60.6132 102.981 60.0496 103.73 60.0885C104.46 60.1274 105.017 60.7493 104.979 61.4877C104.69 67.2206 100.579 71.943 94.9887 72.9341C94.2971 73.0507 93.6055 73.1284 92.8947 73.1284V73.0896Z" fill="#DFE2E6"/>
<path d="M127.459 60.5352C126.422 58.7278 124.155 58.106 122.368 59.1554L118.065 61.6623L123.732 51.7318C124.769 49.9244 124.155 47.6118 122.368 46.5819C120.581 45.5324 118.295 46.1543 117.277 47.9616L113.896 53.8889L115.836 46.5624C116.374 44.5413 115.183 42.4814 113.204 41.9372C111.225 41.3931 109.17 42.598 108.632 44.5996L105.962 54.6857V45.4547C105.962 43.3753 104.29 41.6846 102.235 41.6846C100.179 41.6846 98.5076 43.3753 98.5076 45.4547V59.5052C98.0849 60.0688 97.7199 60.6906 97.3933 61.3514L94.5309 59.3303C92.4752 57.8728 89.6512 58.378 88.2295 60.4574C86.7887 62.5368 87.2882 65.3936 89.3438 66.8316L100.871 74.9743C101.005 75.0715 101.14 75.1492 101.274 75.2269C102.196 75.8294 103.234 76.3152 104.367 76.6262C109.324 77.9671 114.395 75.5962 116.72 71.1848L126.133 65.6851C127.92 64.6357 128.535 62.3425 127.497 60.5352H127.459Z" fill="#DFE2E6"/>
<ellipse cx="104.498" cy="64.6261" rx="1.0645" ry="1.07732" fill="#222529"/>
<ellipse cx="110.889" cy="64.6261" rx="1.0645" ry="1.07732" fill="#222529"/>
<path d="M108.845 69.0528C108.332 69.9532 107.033 69.9532 106.52 69.0528C106.011 68.1604 106.655 67.0509 107.683 67.0509C108.71 67.0509 109.354 68.1604 108.845 69.0528Z" fill="#222529"/>
</svg>
