<svg width="106" height="78" viewBox="0 0 106 78" fill="none" xmlns="http://www.w3.org/2000/svg">
<path d="M39.1777 70.7373C38.1331 70.7373 37.1245 70.6651 36.0799 70.5207C35.7197 70.5207 35.3955 70.4485 35.0353 70.3764L9.06389 65.7928C6.18219 65.2876 3.66069 63.6996 2.00371 61.2815C0.310707 58.8995 -0.337677 55.9762 0.166622 53.0889C1.21124 47.134 6.90261 43.1279 12.8461 44.1745L16.6284 44.8242C16.6284 44.5715 16.7004 44.2828 16.7364 44.0302L6.07412 21.1848C3.87682 16.4569 5.93004 10.7907 10.6488 8.58916C15.0074 6.56808 20.1224 8.11998 22.6079 12.0899L22.4278 11.1155C21.5633 5.99063 24.9853 1.04621 30.1364 0.143942C34.6751 -0.650052 39.0337 1.91238 40.6186 6.06281C42.2396 2.56202 45.9498 0.252214 50.0202 0.613121C53.2621 0.901846 55.0271 2.34547 55.9637 3.50037C57.2605 5.12445 57.8368 7.32598 57.6207 9.88842C57.5126 11.2599 56.3239 12.2343 54.9551 12.126C53.5863 12.0178 52.6137 10.8268 52.7218 9.45533C52.9379 6.89289 52.0013 5.73799 49.5879 5.52145C47.1024 5.30491 44.9051 7.14553 44.653 9.67188L43.5363 22.3397C43.4283 23.5668 42.4197 24.5412 41.1949 24.5773C39.9702 24.6495 38.8896 23.7472 38.6734 22.5562L36.224 8.69743C35.7917 6.24326 33.4503 4.58309 30.9649 5.01618C28.5154 5.44927 26.8584 7.83125 27.2907 10.2854L30.6407 29.3774C30.8568 30.6045 30.1364 31.7954 28.9477 32.1564C27.759 32.5173 26.4982 31.9759 25.9939 30.8571L18.7536 15.302C17.709 13.0283 15.0074 12.0539 12.7021 13.1005C10.4327 14.1471 9.46013 16.89 10.5047 19.1637L21.4913 42.8031C21.7074 43.2723 21.7794 43.8136 21.6714 44.355C21.4192 45.5099 21.3112 46.7009 21.3112 47.8558C21.3112 48.5776 20.987 49.2633 20.4106 49.7325C19.8703 50.2017 19.1139 50.3821 18.4294 50.2739L11.9816 49.1551C8.70368 48.5776 5.56982 50.7791 4.99348 54.0634C4.41714 57.3476 6.61444 60.4875 9.89239 61.065L35.8638 65.6485C36.0799 65.6846 36.296 65.7207 36.4761 65.7207C36.5482 65.7207 36.5842 65.7207 36.6562 65.7207C38.5294 65.9733 40.4025 65.9372 42.2035 65.6124C50.4164 64.1688 56.468 57.3115 56.9002 48.9385C56.9723 47.5671 58.0889 46.5204 59.4938 46.5926C60.8626 46.6648 61.9072 47.8197 61.8352 49.1911C61.2948 59.8379 53.5863 68.6079 43.1041 70.4485C41.8073 70.6651 40.5105 70.8095 39.1777 70.8095V70.7373Z" fill="#405EFB"/>
<path d="M103.984 47.4225C102.039 44.0661 97.7884 42.9112 94.4384 44.8601L86.3696 49.5158L96.9959 31.0734C98.941 27.717 97.7884 23.4222 94.4384 21.5094C91.0884 19.5605 86.8018 20.7154 84.8927 24.0718L78.553 35.0795L82.1911 21.4733C83.1997 17.7199 80.9664 13.8943 77.2562 12.8837C73.546 11.8732 69.6917 14.1108 68.6831 17.8281L63.6761 36.5592V19.4161C63.6761 15.5544 60.5423 12.4146 56.688 12.4146C52.8337 12.4146 49.6999 15.5544 49.6999 19.4161V45.5097C48.9074 46.5563 48.223 47.7112 47.6106 48.9383L42.2434 45.1849C38.3892 42.4781 33.094 43.4164 30.4284 47.2781C27.7268 51.1398 28.6634 56.4452 32.5177 59.1159L54.1305 74.2379C54.3826 74.4183 54.6348 74.5627 54.8869 74.707C56.616 75.8258 58.5611 76.7281 60.6864 77.3056C69.9799 79.7958 79.4895 75.3928 83.8481 67.2002L101.499 56.9865C104.849 55.0376 106.001 50.7789 104.056 47.4225H103.984Z" fill="#0028FA"/>
<ellipse cx="60.9022" cy="55.0193" rx="1.99594" ry="2.00072" fill="white"/>
<ellipse cx="72.8768" cy="55.0193" rx="1.99594" ry="2.00072" fill="white"/>
<path d="M68.6221 64.0145C67.8528 65.3502 65.9253 65.3502 65.156 64.0145L64.2946 62.519C63.5266 61.1856 64.489 59.5207 66.0277 59.5207L67.7504 59.5207C69.2891 59.5207 70.2515 61.1856 69.4835 62.519L68.6221 64.0145Z" fill="white"/>
</svg>
