<svg width="45" height="32" viewBox="0 0 45 32" fill="none" xmlns="http://www.w3.org/2000/svg">
<path d="M16.4173 29.0205C15.9796 29.0205 15.5569 28.9909 15.1192 28.9316C14.9682 28.9316 14.8324 28.902 14.6814 28.8724L3.79819 26.992C2.59062 26.7847 1.534 26.1332 0.839648 25.1412C0.130201 24.164 -0.141502 22.9646 0.0698224 21.7801C0.507567 19.3371 2.89252 17.6935 5.38313 18.1229L6.96807 18.3894C6.96807 18.2858 6.99826 18.1673 7.01335 18.0637L2.54534 8.69121C1.62457 6.75157 2.48496 4.42696 4.46236 3.52376C6.28881 2.6946 8.43225 3.33128 9.47377 4.95999L9.3983 4.56021C9.03603 2.4577 10.47 0.429215 12.6286 0.0590533C14.5305 -0.266689 16.3569 0.784569 17.0211 2.48731C17.7003 1.05109 19.2551 0.103473 20.9608 0.251537C22.3193 0.369989 23.0589 0.962247 23.4514 1.43605C23.9948 2.10234 24.2363 3.00554 24.1457 4.05679C24.1005 4.61944 23.6023 5.01921 23.0287 4.97479C22.4552 4.93038 22.0476 4.44176 22.0929 3.87912C22.1834 2.82786 21.791 2.35405 20.7796 2.26521C19.7381 2.17638 18.8173 2.9315 18.7117 3.96796L18.2438 9.16502C18.1985 9.66844 17.7758 10.0682 17.2626 10.083C16.7494 10.1126 16.2965 9.74247 16.206 9.25386L15.1795 3.56818C14.9984 2.56134 14.0173 1.88025 12.9757 2.05792C11.9493 2.2356 11.2549 3.21283 11.4361 4.21967L12.8399 12.0523C12.9304 12.5557 12.6286 13.0443 12.1304 13.1924C11.6323 13.3404 11.104 13.1183 10.8927 12.6593L7.85865 6.27776C7.42091 5.34496 6.28881 4.94518 5.32275 5.37457C4.37179 5.80396 3.96424 6.92925 4.40198 7.86205L9.00584 17.5603C9.09641 17.7528 9.1266 17.9749 9.08131 18.197C8.97565 18.6708 8.93037 19.1594 8.93037 19.6332C8.93037 19.9293 8.79452 20.2106 8.553 20.4031C8.32658 20.5956 8.0096 20.6696 7.7228 20.6252L5.02086 20.1662C3.64725 19.9293 2.33402 20.8325 2.0925 22.1799C1.85099 23.5273 2.77176 24.8154 4.14537 25.0523L15.0286 26.9328C15.1192 26.9476 15.2097 26.9624 15.2852 26.9624C15.3154 26.9624 15.3305 26.9624 15.3607 26.9624C16.1456 27.066 16.9305 27.0512 17.6853 26.918C21.1268 26.3257 23.6627 23.5125 23.8439 20.0774C23.874 19.5147 24.342 19.0853 24.9307 19.115C25.5043 19.1446 25.942 19.6184 25.9118 20.181C25.6854 24.5489 22.4552 28.1469 18.0626 28.902C17.5192 28.9909 16.9758 29.0501 16.4173 29.0501V29.0205Z" fill="#405EFB"/>
<path d="M43.5756 19.4555C42.7605 18.0785 40.9793 17.6047 39.5755 18.4043L36.1943 20.3143L40.6472 12.7482C41.4623 11.3712 40.9793 9.60923 39.5755 8.82449C38.1717 8.02494 36.3754 8.49875 35.5754 9.87575L32.9188 14.3917L34.4433 8.80968C34.866 7.26981 33.9301 5.70033 32.3754 5.28575C30.8206 4.87116 29.2055 5.78917 28.7828 7.31423L26.6847 14.9988V7.96571C26.6847 6.38142 25.3714 5.09326 23.7563 5.09326C22.1412 5.09326 20.828 6.38142 20.828 7.96571V18.6708C20.4959 19.1002 20.2091 19.574 19.9525 20.0774L17.7034 18.5375C16.0883 17.427 13.8693 17.812 12.7523 19.3963C11.6202 20.9806 12.0127 23.1571 13.6278 24.2528L22.6846 30.4567C22.7903 30.5307 22.8959 30.59 23.0016 30.6492C23.7261 31.1082 24.5412 31.4784 25.4318 31.7153C29.3262 32.7369 33.3112 30.9305 35.1377 27.5695L42.534 23.3792C43.9378 22.5797 44.4209 20.8325 43.6058 19.4555H43.5756Z" fill="#0028FA"/>
<ellipse cx="25.5161" cy="22.5719" rx="0.836393" ry="0.820809" fill="white"/>
<ellipse cx="30.5317" cy="22.5719" rx="0.836393" ry="0.820809" fill="white"/>
<path d="M28.7376 26.2876C28.4185 26.8301 27.6339 26.8301 27.3148 26.2876L26.9472 25.6627C26.6235 25.1125 27.0202 24.4188 27.6586 24.4188L28.3938 24.4188C29.0322 24.4188 29.4289 25.1125 29.1052 25.6627L28.7376 26.2876Z" fill="white"/>
</svg>
