<svg width="24" height="24" viewBox="0 0 24 24" fill="none" xmlns="http://www.w3.org/2000/svg">
<path d="M12.0016 2.40002C6.25756 2.40002 1.60156 6.34003 1.60156 11.2C1.60156 13.3409 2.50734 15.3009 4.00937 16.8266C4.03971 16.902 4.81037 18.8854 2.52812 20.9078C2.48815 20.9453 2.45629 20.9905 2.43452 21.0408C2.41275 21.0911 2.40153 21.1453 2.40156 21.2C2.40156 21.3061 2.44371 21.4079 2.51872 21.4829C2.59373 21.5579 2.69548 21.6 2.80156 21.6C2.83046 21.6 2.85928 21.5969 2.8875 21.5907C5.18819 21.4544 7.15633 20.3126 8.35781 19.4328C9.49333 19.7929 10.7174 20 12.0016 20C17.7456 20 22.4016 16.06 22.4016 11.2C22.4016 6.34003 17.7456 2.40002 12.0016 2.40002ZM12.0016 6.00003C12.664 6.00003 13.2016 6.53763 13.2016 7.20003C13.2016 7.86243 12.664 8.40003 12.0016 8.40003C11.3392 8.40003 10.8016 7.86243 10.8016 7.20003C10.8016 6.53763 11.3392 6.00003 12.0016 6.00003ZM11.2016 10.4H12.8016V16H11.2016V10.4Z" fill="#4A5056"/>
</svg>
