<svg width="292" height="344" viewBox="0 0 292 344" fill="none" xmlns="http://www.w3.org/2000/svg">
<rect width="292" height="344" fill="white"/>
<path d="M54.9121 50.4609H52.4121V49.0547H49.0137V47.3555H52.4121V37.043H54.9121V50.4609ZM39.7949 44.9141C42.028 44.901 44.0723 44.862 45.9277 44.7969C47.7832 44.7253 49.541 44.5885 51.2012 44.3867L51.3379 46.1641C49.9837 46.3919 48.5514 46.5612 47.041 46.6719V50.0508H44.541V52.4922H55.3027V54.4844H42.0605V49.1719H44.541V46.8184C43.304 46.8639 41.8197 46.8867 40.0879 46.8867L39.7949 44.9141ZM41.1035 40.832C41.1035 40.207 41.2923 39.6536 41.6699 39.1719C42.0475 38.6901 42.5749 38.3158 43.252 38.0488C43.929 37.7819 44.7038 37.6484 45.5762 37.6484C46.429 37.6484 47.1908 37.7819 47.8613 38.0488C48.5319 38.3158 49.056 38.6901 49.4336 39.1719C49.8177 39.6536 50.0098 40.207 50.0098 40.832C50.0098 41.457 49.8177 42.0072 49.4336 42.4824C49.056 42.9577 48.5319 43.3223 47.8613 43.5762C47.1908 43.8301 46.429 43.957 45.5762 43.957C44.6973 43.957 43.9193 43.8301 43.2422 43.5762C42.5716 43.3223 42.0475 42.9577 41.6699 42.4824C41.2923 42.0072 41.1035 41.457 41.1035 40.832ZM43.4668 40.832C43.4603 41.2552 43.6491 41.584 44.0332 41.8184C44.4238 42.0462 44.9512 42.1602 45.6152 42.1602C46.2142 42.1602 46.6992 42.043 47.0703 41.8086C47.4479 41.5742 47.64 41.2487 47.6465 40.832C47.64 40.4023 47.4447 40.0671 47.0605 39.8262C46.6829 39.5853 46.1882 39.4648 45.5762 39.4648C44.9316 39.4648 44.4173 39.5853 44.0332 39.8262C43.6491 40.0671 43.4603 40.4023 43.4668 40.832ZM70.3621 43.9766H72.9793V46.0273H70.3621V54.7969H67.9012V37.0234H70.3621V43.9766ZM56.241 39.6797H60.2645V37.2969H62.7645V39.6797H66.6902V41.6719H56.241V39.6797ZM56.9637 46.9062C56.9637 46.0924 57.159 45.3633 57.5496 44.7188C57.9402 44.0742 58.4806 43.5729 59.1707 43.2148C59.8673 42.8503 60.6486 42.668 61.5145 42.668C62.3673 42.668 63.1388 42.8503 63.8289 43.2148C64.519 43.5729 65.0594 44.0742 65.45 44.7188C65.8471 45.3633 66.0457 46.0924 66.0457 46.9062C66.0457 47.7201 65.8471 48.4492 65.45 49.0938C65.0594 49.7318 64.519 50.2331 63.8289 50.5977C63.1388 50.9622 62.3673 51.1445 61.5145 51.1445C60.6486 51.1445 59.8673 50.9622 59.1707 50.5977C58.4806 50.2331 57.9402 49.7318 57.5496 49.0938C57.159 48.4492 56.9637 47.7201 56.9637 46.9062ZM59.3465 46.9062C59.3465 47.3555 59.4376 47.7461 59.6199 48.0781C59.8087 48.4102 60.0659 48.6641 60.3914 48.8398C60.7169 49.0156 61.0913 49.1003 61.5145 49.0938C61.9311 49.1003 62.3022 49.0156 62.6277 48.8398C62.9533 48.6641 63.2072 48.4102 63.3895 48.0781C63.5717 47.7461 63.6629 47.3555 63.6629 46.9062C63.6629 46.457 63.5717 46.0664 63.3895 45.7344C63.2072 45.4023 62.9533 45.1452 62.6277 44.9629C62.3022 44.7806 61.9311 44.6862 61.5145 44.6797C61.0913 44.6862 60.7169 44.7806 60.3914 44.9629C60.0659 45.1452 59.8087 45.4023 59.6199 45.7344C59.4376 46.0664 59.3465 46.457 59.3465 46.9062ZM87.2574 43.8203H74.8355V37.6484H77.316V41.8672H87.2574V43.8203ZM72.8043 45.7344H89.0738V47.6875H72.8043V45.7344ZM74.6793 49.1328H77.1793V52.4141H87.3746V54.4062H74.6793V49.1328ZM100.032 41.0469C100.026 42.1602 100.192 43.2344 100.53 44.2695C100.869 45.3047 101.377 46.2259 102.054 47.0332C102.731 47.8405 103.555 48.4492 104.525 48.8594L103.06 50.8516C102.07 50.4023 101.217 49.7578 100.501 48.918C99.7915 48.0781 99.2284 47.0918 98.8117 45.959C98.4016 47.196 97.8254 48.2734 97.0832 49.1914C96.341 50.1029 95.4426 50.7995 94.3879 51.2812L92.884 49.2109C93.8866 48.7878 94.7329 48.1595 95.423 47.3262C96.1197 46.4863 96.6405 45.526 96.9855 44.4453C97.3306 43.3581 97.5064 42.2253 97.5129 41.0469V38.3906H100.032V41.0469ZM105.482 37.0234H108.001V54.8359H105.482V37.0234ZM123.705 42.0039H126.107V44.0547H123.705V49.7578H121.186V37.0234H123.705V42.0039ZM109.486 46.0469C111.452 45.5 112.999 44.7383 114.125 43.7617C115.258 42.7786 115.922 41.6523 116.117 40.3828H110.268V38.3516H118.861C118.861 39.9401 118.536 41.3724 117.885 42.6484C117.24 43.918 116.296 45.0052 115.053 45.9102C113.809 46.8151 112.299 47.5182 110.521 48.0195L109.486 46.0469ZM112.143 48.4492H114.662V52.4922H124.311V54.4844H112.143V48.4492ZM128.159 57.1211H126.089L127.065 51.5547H129.839L128.159 57.1211ZM149.254 50.4609H146.754V49.0547H143.356V47.3555H146.754V37.043H149.254V50.4609ZM134.137 44.9141C136.37 44.901 138.414 44.862 140.27 44.7969C142.125 44.7253 143.883 44.5885 145.543 44.3867L145.68 46.1641C144.326 46.3919 142.894 46.5612 141.383 46.6719V50.0508H138.883V52.4922H149.645V54.4844H136.403V49.1719H138.883V46.8184C137.646 46.8639 136.162 46.8867 134.43 46.8867L134.137 44.9141ZM135.446 40.832C135.446 40.207 135.635 39.6536 136.012 39.1719C136.39 38.6901 136.917 38.3158 137.594 38.0488C138.271 37.7819 139.046 37.6484 139.918 37.6484C140.771 37.6484 141.533 37.7819 142.204 38.0488C142.874 38.3158 143.398 38.6901 143.776 39.1719C144.16 39.6536 144.352 40.207 144.352 40.832C144.352 41.457 144.16 42.0072 143.776 42.4824C143.398 42.9577 142.874 43.3223 142.204 43.5762C141.533 43.8301 140.771 43.957 139.918 43.957C139.039 43.957 138.261 43.8301 137.584 43.5762C136.914 43.3223 136.39 42.9577 136.012 42.4824C135.635 42.0072 135.446 41.457 135.446 40.832ZM137.809 40.832C137.802 41.2552 137.991 41.584 138.375 41.8184C138.766 42.0462 139.293 42.1602 139.957 42.1602C140.556 42.1602 141.041 42.043 141.412 41.8086C141.79 41.5742 141.982 41.2487 141.989 40.832C141.982 40.4023 141.787 40.0671 141.403 39.8262C141.025 39.5853 140.53 39.4648 139.918 39.4648C139.274 39.4648 138.76 39.5853 138.375 39.8262C137.991 40.0671 137.802 40.4023 137.809 40.832ZM164.704 43.9766H167.321V46.0273H164.704V54.7969H162.243V37.0234H164.704V43.9766ZM150.583 39.6797H154.607V37.2969H157.107V39.6797H161.032V41.6719H150.583V39.6797ZM151.306 46.9062C151.306 46.0924 151.501 45.3633 151.892 44.7188C152.282 44.0742 152.823 43.5729 153.513 43.2148C154.21 42.8503 154.991 42.668 155.857 42.668C156.71 42.668 157.481 42.8503 158.171 43.2148C158.861 43.5729 159.402 44.0742 159.792 44.7188C160.189 45.3633 160.388 46.0924 160.388 46.9062C160.388 47.7201 160.189 48.4492 159.792 49.0938C159.402 49.7318 158.861 50.2331 158.171 50.5977C157.481 50.9622 156.71 51.1445 155.857 51.1445C154.991 51.1445 154.21 50.9622 153.513 50.5977C152.823 50.2331 152.282 49.7318 151.892 49.0938C151.501 48.4492 151.306 47.7201 151.306 46.9062ZM153.689 46.9062C153.689 47.3555 153.78 47.7461 153.962 48.0781C154.151 48.4102 154.408 48.6641 154.734 48.8398C155.059 49.0156 155.433 49.1003 155.857 49.0938C156.273 49.1003 156.644 49.0156 156.97 48.8398C157.295 48.6641 157.549 48.4102 157.732 48.0781C157.914 47.7461 158.005 47.3555 158.005 46.9062C158.005 46.457 157.914 46.0664 157.732 45.7344C157.549 45.4023 157.295 45.1452 156.97 44.9629C156.644 44.7806 156.273 44.6862 155.857 44.6797C155.433 44.6862 155.059 44.7806 154.734 44.9629C154.408 45.1452 154.151 45.4023 153.962 45.7344C153.78 46.0664 153.689 46.457 153.689 46.9062ZM181.6 43.8203H169.178V37.6484H171.658V41.8672H181.6V43.8203ZM167.146 45.7344H183.416V47.6875H167.146V45.7344ZM169.021 49.1328H171.521V52.4141H181.717V54.4062H169.021V49.1328ZM197.558 40.207H194.023C194.03 40.9167 194.179 41.5938 194.472 42.2383C194.772 42.8828 195.227 43.4557 195.839 43.957C196.451 44.4583 197.213 44.8424 198.125 45.1094L196.933 47.0625C195.976 46.7695 195.153 46.3398 194.462 45.7734C193.772 45.207 193.226 44.5332 192.822 43.752C192.412 44.6699 191.839 45.4674 191.103 46.1445C190.374 46.8151 189.492 47.3229 188.457 47.668L187.187 45.6953C188.131 45.3958 188.925 44.9629 189.57 44.3965C190.214 43.8301 190.693 43.1855 191.005 42.4629C191.324 41.7402 191.49 40.9883 191.504 40.207H187.871V38.2148H197.558V40.207ZM189.648 51.3398C189.648 50.6237 189.892 50.0085 190.38 49.4941C190.869 48.9798 191.572 48.5892 192.49 48.3223C193.408 48.0553 194.492 47.9219 195.742 47.9219C196.972 47.9219 198.037 48.0553 198.935 48.3223C199.834 48.5892 200.524 48.9798 201.005 49.4941C201.494 50.0085 201.738 50.6237 201.738 51.3398C201.738 52.0625 201.494 52.681 201.005 53.1953C200.524 53.7161 199.834 54.1133 198.935 54.3867C198.037 54.6602 196.972 54.7969 195.742 54.7969C194.492 54.7969 193.408 54.6602 192.49 54.3867C191.578 54.1133 190.875 53.7161 190.38 53.1953C189.892 52.6745 189.648 52.056 189.648 51.3398ZM192.148 51.3398C192.142 51.8411 192.444 52.222 193.056 52.4824C193.668 52.7363 194.563 52.8633 195.742 52.8633C196.901 52.8633 197.78 52.7363 198.379 52.4824C198.977 52.2285 199.277 51.8477 199.277 51.3398C199.277 50.8516 198.981 50.4837 198.388 50.2363C197.802 49.9824 196.943 49.8555 195.81 49.8555C194.606 49.8555 193.691 49.9792 193.066 50.2266C192.448 50.474 192.142 50.8451 192.148 51.3398ZM199.062 37.0234H201.562V41.1445H203.964V43.1758H201.562V47.5703H199.062V37.0234ZM220.215 52.668H203.946V50.6758H210.743V46.6523H213.223V50.6758H220.215V52.668ZM204.336 45.1484C205.625 44.9466 206.745 44.5462 207.696 43.9473C208.653 43.3483 209.382 42.6387 209.883 41.8184C210.385 40.998 210.638 40.1615 210.645 39.3086V38.0391H213.301V39.3086C213.295 40.168 213.542 41.0078 214.043 41.8281C214.551 42.6484 215.287 43.3581 216.25 43.957C217.214 44.5495 218.347 44.9466 219.649 45.1484L218.594 47.2188C217.058 46.9388 215.72 46.4082 214.58 45.627C213.441 44.8457 212.572 43.8919 211.973 42.7656C211.381 43.8919 210.515 44.849 209.375 45.6367C208.243 46.418 206.914 46.9453 205.391 47.2188L204.336 45.1484ZM235.841 54.7969H233.458V37.0234H235.841V54.7969ZM220.587 44.7188C220.587 43.4102 220.743 42.2708 221.056 41.3008C221.375 40.3307 221.824 39.5885 222.404 39.0742C222.989 38.5534 223.673 38.293 224.454 38.293C225.164 38.293 225.792 38.5046 226.339 38.9277C226.892 39.3509 227.338 39.9629 227.677 40.7637C228.022 41.5579 228.24 42.5052 228.331 43.6055H229.786V37.2773H232.13V53.9766H229.786V45.5781H228.351C228.279 46.7305 228.074 47.7298 227.736 48.5762C227.397 49.416 226.945 50.0605 226.378 50.5098C225.818 50.959 225.177 51.1836 224.454 51.1836C223.673 51.1836 222.989 50.9232 222.404 50.4023C221.824 49.875 221.375 49.1263 221.056 48.1562C220.743 47.1797 220.587 46.0339 220.587 44.7188ZM222.892 44.7188C222.885 46.0664 223.015 47.0853 223.282 47.7754C223.556 48.459 223.946 48.7943 224.454 48.7812C224.969 48.7943 225.366 48.4622 225.646 47.7852C225.932 47.1081 226.075 46.1087 226.075 44.7871C226.075 43.4134 225.935 42.3783 225.655 41.6816C225.376 40.985 224.975 40.6367 224.454 40.6367C223.946 40.6367 223.556 40.9818 223.282 41.6719C223.015 42.362 222.885 43.3776 222.892 44.7188ZM243.635 41.0469C243.641 42.1927 243.801 43.2865 244.113 44.3281C244.426 45.3698 244.904 46.2943 245.549 47.1016C246.2 47.9023 247.001 48.5078 247.951 48.918L246.428 50.9102C245.464 50.4414 244.644 49.7871 243.967 48.9473C243.296 48.1009 242.769 47.1113 242.385 45.9785C241.988 47.1895 241.441 48.2474 240.744 49.1523C240.048 50.0508 239.208 50.7409 238.225 51.2227L236.662 49.1914C237.639 48.7487 238.459 48.1042 239.123 47.2578C239.794 46.4115 240.292 45.4544 240.617 44.3867C240.943 43.3125 241.109 42.1992 241.115 41.0469V38.3906H243.635V41.0469ZM245.959 42.6094H249.455V37.0234H251.916V54.8359H249.455V44.6211H245.959V42.6094ZM38.2422 66.8594H43.7891C44.8372 66.8594 45.7422 67.0612 46.5039 67.4648C47.2656 67.8685 47.8451 68.4316 48.2422 69.1543C48.6458 69.8704 48.8477 70.694 48.8477 71.625C48.8477 72.569 48.6426 73.4023 48.2324 74.125C47.8288 74.8411 47.2396 75.3978 46.4648 75.7949C45.6966 76.1921 44.7786 76.3906 43.7109 76.3906H41.1719V81H38.2422V66.8594ZM43.2422 74.0273C44.0885 74.0273 44.7298 73.8125 45.166 73.3828C45.6087 72.9466 45.8268 72.3607 45.8203 71.625C45.8268 70.9023 45.6087 70.3294 45.166 69.9062C44.7298 69.4831 44.0885 69.2682 43.2422 69.2617H41.1719V74.0273H43.2422ZM59.3562 71.7812C59.2391 71.0065 58.9038 70.3945 58.3504 69.9453C57.797 69.4961 57.1036 69.2682 56.2703 69.2617C55.5346 69.2682 54.8901 69.4538 54.3367 69.8184C53.7898 70.1829 53.3667 70.7168 53.0672 71.4199C52.7677 72.1165 52.618 72.9531 52.618 73.9297C52.618 74.9258 52.7677 75.7721 53.0672 76.4688C53.3732 77.1654 53.7964 77.6927 54.3367 78.0508C54.8836 78.4089 55.5216 78.5911 56.2508 78.5977C57.0646 78.5911 57.7514 78.3763 58.3113 77.9531C58.8712 77.5234 59.2195 76.931 59.3562 76.1758L62.325 76.1953C62.2143 77.0872 61.8986 77.9141 61.3777 78.6758C60.8569 79.4375 60.1538 80.0495 59.2684 80.5117C58.3829 80.9674 57.3641 81.1953 56.2117 81.1953C54.9422 81.1953 53.8094 80.9089 52.8133 80.3359C51.8237 79.7565 51.0457 78.9199 50.4793 77.8262C49.9129 76.7259 49.6297 75.4271 49.6297 73.9297C49.6297 72.4258 49.9129 71.127 50.4793 70.0332C51.0522 68.9395 51.8367 68.1061 52.8328 67.5332C53.8289 66.9538 54.9552 66.6641 56.2117 66.6641C57.299 66.6641 58.282 66.8659 59.1609 67.2695C60.0398 67.6732 60.7527 68.2591 61.2996 69.0273C61.853 69.7956 62.1948 70.7135 62.325 71.7812H59.3562ZM81.8383 74.6328H75.393V66.5078H81.7016V68.5H77.893V72.6602H81.8383V74.6328ZM66.7211 78.7148H73.557V75.4141H76.018V78.7148H82.9906V80.7266H66.7211V78.7148ZM67.9711 66.5078H74.2797V68.5H70.4711V72.6113C71.1938 72.5918 71.8676 72.5527 72.4926 72.4941C73.1176 72.429 73.7523 72.3346 74.3969 72.2109L74.5727 74.2422C73.8044 74.3984 73.0492 74.5026 72.307 74.5547C71.5714 74.6068 70.6957 74.6328 69.6801 74.6328H69.1039H67.9711V66.5078ZM97.6398 71.8203H85.218V65.6484H87.6984V69.8672H97.6398V71.8203ZM83.1867 73.7344H99.4562V75.6875H83.1867V73.7344ZM85.0617 77.1328H87.5617V80.4141H97.757V82.4062H85.0617V77.1328ZM111.352 68.8516H106.489V71.5273H111.001V73.4414H106.489V76.6445C107.557 76.6315 108.481 76.6022 109.262 76.5566C110.05 76.5111 110.858 76.4297 111.684 76.3125L111.86 78.3438C110.884 78.5 109.914 78.6042 108.95 78.6562C107.993 78.7083 106.795 78.7344 105.356 78.7344H104.106V66.8789H111.352V68.8516ZM112.641 65.2773H114.985V71.918H116.528V65.0234H118.911V82.7969H116.528V73.9102H114.985V81.9766H112.641V65.2773ZM124.517 66.5664H131.646V65.3164H134.127V71.293H122.056V65.3164H124.517V66.5664ZM119.986 72.2695H136.197V74.2031H119.986V72.2695ZM121.861 75.2578H134.224V79.75H124.322V80.8047H134.693V82.6797H121.88V78.0117H131.763V77.0742H121.861V75.2578ZM131.646 69.4375V68.3633H124.517V69.4375H131.646ZM151.334 77.1523H148.854V65.0234H151.334V77.1523ZM137.389 66.1172H145.631V71.5859H139.85V73.3438C141.484 73.3307 142.861 73.2852 143.981 73.207C145.101 73.1224 146.224 72.9857 147.35 72.7969L147.623 74.7695C146.406 74.9974 145.172 75.1471 143.922 75.2188C142.672 75.2904 141.022 75.3294 138.971 75.3359H137.409V69.7109H143.151V68.1094H137.389V66.1172ZM138.327 80.8242C139.544 80.6745 140.579 80.388 141.432 79.9648C142.285 79.5417 142.923 79.0339 143.346 78.4414C143.776 77.849 143.991 77.224 143.991 76.5664V76.2539H146.608V76.5664C146.601 77.2174 146.81 77.8392 147.233 78.4316C147.656 79.0241 148.291 79.5352 149.137 79.9648C149.99 80.388 151.028 80.6745 152.252 80.8242L151.354 82.7383C149.915 82.5299 148.678 82.1426 147.643 81.5762C146.614 81.0098 145.83 80.3001 145.289 79.4473C144.743 80.3001 143.955 81.013 142.926 81.5859C141.904 82.1589 140.683 82.543 139.264 82.7383L138.327 80.8242ZM161.062 65.9219C162.312 65.9219 163.445 66.1367 164.46 66.5664C165.476 66.9961 166.28 67.5983 166.872 68.373C167.465 69.1478 167.761 70.0365 167.761 71.0391C167.761 72.0482 167.465 72.9434 166.872 73.7246C166.28 74.4993 165.476 75.0983 164.46 75.5215C163.445 75.9447 162.312 76.1562 161.062 76.1562C159.812 76.1562 158.679 75.9447 157.663 75.5215C156.648 75.0983 155.847 74.4993 155.261 73.7246C154.675 72.9499 154.382 72.0547 154.382 71.0391C154.382 70.0365 154.675 69.1478 155.261 68.373C155.847 67.5983 156.648 66.9961 157.663 66.5664C158.679 66.1367 159.812 65.9219 161.062 65.9219ZM152.956 78.6172H169.226V80.6289H152.956V78.6172ZM156.804 71.0391C156.804 71.6706 156.983 72.2207 157.341 72.6895C157.706 73.1517 158.21 73.5065 158.855 73.7539C159.499 74.0013 160.235 74.125 161.062 74.125C161.882 74.125 162.611 74.0013 163.249 73.7539C163.887 73.5065 164.389 73.1517 164.753 72.6895C165.118 72.2207 165.3 71.6706 165.3 71.0391C165.3 70.4141 165.118 69.8672 164.753 69.3984C164.389 68.9297 163.884 68.5716 163.239 68.3242C162.601 68.0703 161.876 67.9466 161.062 67.9531C160.241 67.9466 159.506 68.0703 158.855 68.3242C158.21 68.5716 157.706 68.9297 157.341 69.3984C156.983 69.8672 156.804 70.4141 156.804 71.0391ZM185.711 80.8242H169.441V78.7734H176.297V76.0977H171.316V70.1211H181.375V68.168H171.297V66.1758H183.836V72.0742H173.816V74.0664H184.246V76.0977H178.777V78.7734H185.711V80.8242ZM203.837 69.3984H206.24V71.4883H203.837V75.7461H201.337V65.0234H203.837V69.3984ZM189.736 66.625H193.779V64.9258H196.259V66.625H200.283V68.5977H189.736V66.625ZM190.595 72.3281C190.595 71.7096 190.781 71.1595 191.152 70.6777C191.523 70.196 192.044 69.8216 192.714 69.5547C193.385 69.2812 194.15 69.1445 195.009 69.1445C195.862 69.1445 196.621 69.2812 197.285 69.5547C197.949 69.8216 198.463 70.196 198.828 70.6777C199.199 71.1595 199.384 71.7096 199.384 72.3281C199.384 72.9596 199.199 73.5195 198.828 74.0078C198.463 74.4961 197.949 74.877 197.285 75.1504C196.621 75.4173 195.862 75.5508 195.009 75.5508C194.143 75.5508 193.375 75.4173 192.705 75.1504C192.041 74.877 191.523 74.4961 191.152 74.0078C190.781 73.5195 190.595 72.9596 190.595 72.3281ZM192.216 76.5273H203.837V82.6016H192.216V76.5273ZM193.037 72.3281C193.03 72.7708 193.203 73.1126 193.554 73.3535C193.912 73.5879 194.397 73.7083 195.009 73.7148C195.628 73.7083 196.116 73.5879 196.474 73.3535C196.839 73.1126 197.021 72.7708 197.021 72.3281C197.021 71.9115 196.839 71.5892 196.474 71.3613C196.11 71.127 195.621 71.013 195.009 71.0195C194.404 71.013 193.922 71.127 193.564 71.3613C193.206 71.5892 193.03 71.9115 193.037 72.3281ZM201.377 80.6094V78.4805H194.677V80.6094H201.377ZM210.596 67.0547C210.59 68.7018 210.511 70.196 210.362 71.5371C210.218 72.8717 209.948 74.1673 209.551 75.4238C209.161 76.6803 208.604 77.8685 207.881 78.9883L205.948 77.9727C206.54 77.0742 207.012 76.1628 207.364 75.2383C207.715 74.3138 207.972 73.36 208.135 72.377C208.298 71.3874 208.399 70.2839 208.438 69.0664H206.534V67.0547H210.596ZM209.971 78.832C210.603 77.8685 211.094 76.8724 211.446 75.8438C211.804 74.8086 212.051 73.7572 212.188 72.6895C212.331 71.6152 212.419 70.4076 212.452 69.0664H211.104V67.0547H214.58C214.58 68.8451 214.522 70.388 214.405 71.6836H215.928V65.4141H218.272V82.0156H215.928V73.6953H214.151C213.955 74.8477 213.672 75.9382 213.301 76.9668C212.937 77.9954 212.458 78.9688 211.866 79.8867L209.971 78.832ZM219.385 65.0234H221.768V82.7969H219.385V65.0234ZM231.28 69.7109H222.687V67.7383H225.773V65.5117H228.234V67.7383H231.28V69.7109ZM223.097 74.7305C223.097 73.9167 223.266 73.1908 223.605 72.5527C223.943 71.9147 224.409 71.4167 225.001 71.0586C225.6 70.694 226.274 70.5117 227.023 70.5117C227.771 70.5117 228.442 70.694 229.034 71.0586C229.627 71.4167 230.089 71.9147 230.421 72.5527C230.76 73.1908 230.929 73.9167 230.929 74.7305C230.929 75.5443 230.76 76.2734 230.421 76.918C230.089 77.5625 229.627 78.0671 229.034 78.4316C228.442 78.7897 227.771 78.9688 227.023 78.9688C226.274 78.9688 225.6 78.7897 225.001 78.4316C224.409 78.0671 223.943 77.5625 223.605 76.918C223.266 76.2734 223.097 75.5443 223.097 74.7305ZM225.284 74.7305C225.284 75.401 225.441 75.9251 225.753 76.3027C226.072 76.6738 226.495 76.8594 227.023 76.8594C227.53 76.8594 227.941 76.6706 228.253 76.293C228.572 75.9154 228.735 75.3945 228.741 74.7305C228.741 74.2943 228.667 73.9134 228.517 73.5879C228.367 73.2624 228.162 73.015 227.902 72.8457C227.648 72.6699 227.355 72.582 227.023 72.582C226.502 72.582 226.082 72.7741 225.763 73.1582C225.444 73.5423 225.284 74.0664 225.284 74.7305ZM231.945 65.375H234.269V72.25H235.714V65.0234H238.077V82.7969H235.714V74.2422H234.269V82.0352H231.945V65.375ZM255.461 80.7266H239.191V78.6758H242.824V74.3203C242.121 73.8971 241.577 73.3763 241.193 72.7578C240.809 72.1328 240.617 71.4362 240.617 70.668C240.617 69.724 240.904 68.8906 241.477 68.168C242.049 67.4453 242.84 66.8854 243.85 66.4883C244.865 66.0846 246.014 65.8828 247.297 65.8828C248.573 65.8828 249.719 66.0846 250.734 66.4883C251.75 66.8854 252.548 67.4453 253.127 68.168C253.706 68.8906 253.996 69.724 253.996 70.668C253.99 71.4232 253.801 72.1068 253.43 72.7188C253.059 73.3307 252.531 73.8483 251.848 74.2715V78.6758H255.461V80.7266ZM243.078 70.668C243.078 71.2409 243.251 71.7389 243.596 72.1621C243.947 72.5853 244.439 72.9108 245.07 73.1387C245.708 73.3665 246.451 73.4805 247.297 73.4805C248.13 73.4805 248.866 73.3665 249.504 73.1387C250.142 72.9108 250.64 72.5853 250.998 72.1621C251.356 71.7389 251.535 71.2409 251.535 70.668C251.535 70.082 251.356 69.5775 250.998 69.1543C250.646 68.7311 250.152 68.4089 249.514 68.1875C248.876 67.9596 248.137 67.849 247.297 67.8555C246.451 67.8555 245.708 67.9661 245.07 68.1875C244.439 68.4089 243.947 68.7311 243.596 69.1543C243.251 69.5775 243.078 70.082 243.078 70.668ZM249.328 78.6758V75.2188C248.677 75.349 248 75.4141 247.297 75.4141C246.613 75.4141 245.943 75.3522 245.285 75.2285V78.6758H249.328Z" fill="black"/>
<g clip-path="url(#clip0_1099_650)">
<g clip-path="url(#clip1_1099_650)">
<path d="M27.4086 184.228C26.2794 187.099 25.6154 190.132 25.4417 193.213H17.4844V192.991L17.5484 192.381C17.6459 191.324 17.8213 190.276 18.0732 189.245C18.486 187.558 19.0797 185.92 19.8438 184.36C19.858 184.322 19.8847 184.289 19.9196 184.269C19.9545 184.248 19.9955 184.239 20.0358 184.245H27.4086V184.228Z" fill="#EBEBEB"/>
<path d="M27.1679 204.302H27.0399C24.6463 204.302 22.2484 204.302 19.8548 204.302C19.8163 204.306 19.7776 204.297 19.7451 204.276C19.7125 204.255 19.688 204.224 19.6756 204.187C18.8313 202.426 18.2217 200.561 17.8623 198.641C17.681 197.717 17.5613 196.781 17.5039 195.842C17.5039 195.812 17.5039 195.778 17.5039 195.748V195.526H17.6234H25.3034C25.4442 195.526 25.4399 195.526 25.4484 195.671C25.4954 196.311 25.538 196.951 25.602 197.587C25.7094 198.603 25.8776 199.611 26.1055 200.607C26.3731 201.822 26.7209 203.018 27.1466 204.187L27.1679 204.302Z" fill="#EBEBEB"/>
<path d="M57.924 206.619L57.8642 206.726C57.2427 207.674 56.5495 208.572 55.7906 209.414C54.8747 210.447 53.857 211.384 52.7528 212.213C51.6686 213.031 50.5101 213.745 49.2925 214.346C48.1197 214.932 46.8957 215.409 45.636 215.771C44.6363 216.056 43.6185 216.273 42.5896 216.42L42.2909 216.471H42.116L41.9453 216.36L42.1416 216.224C44.3712 214.705 46.3213 212.813 47.9058 210.63C48.8041 209.399 49.5922 208.091 50.261 206.722C50.2742 206.685 50.2995 206.653 50.3328 206.632C50.3661 206.611 50.4054 206.602 50.4445 206.606H57.924V206.619Z" fill="#EBEBEB"/>
<path d="M50.6101 193.205H40.3359V184.245H48.3573C48.392 184.24 48.4272 184.249 48.4562 184.269C48.4852 184.288 48.5061 184.318 48.5151 184.351C49.2546 186.038 49.8028 187.803 50.1493 189.612C50.3346 190.553 50.4671 191.503 50.5461 192.458L50.6101 193.205Z" fill="#EBEBEB"/>
<path d="M50.5451 195.603C50.5451 195.816 50.5451 196.029 50.5152 196.234C50.4683 196.737 50.4342 197.237 50.3659 197.732C50.2678 198.423 50.1654 199.11 50.0246 199.792C49.7187 201.29 49.273 202.756 48.6934 204.17C48.6842 204.211 48.6598 204.248 48.6251 204.272C48.5904 204.297 48.5478 204.308 48.5056 204.302C45.8091 204.302 43.1069 204.302 40.399 204.302H40.2539V195.603H50.5451Z" fill="#EBEBEB"/>
<path d="M38.0192 184.283V193.273H27.9883C27.9883 193.047 27.9883 192.821 28.0309 192.599C28.0864 192.1 28.1248 191.592 28.2059 191.093C28.3296 190.333 28.4576 189.57 28.6325 188.814C28.9666 187.295 29.4512 185.813 30.0789 184.39C30.0905 184.355 30.1139 184.325 30.1451 184.306C30.1762 184.286 30.2132 184.278 30.2496 184.283H38.0278H38.0192Z" fill="#EBEBEB"/>
<path d="M38.0523 195.722C38.0523 198.538 38.0523 201.356 38.0523 204.175V204.303H37.9201C35.2918 204.303 32.665 204.303 30.0395 204.303C30.0009 204.307 29.9618 204.298 29.9291 204.277C29.8964 204.256 29.872 204.224 29.8603 204.187C29.2513 202.728 28.7938 201.209 28.495 199.656C28.3457 198.858 28.2305 198.052 28.1281 197.245C28.0641 196.721 28.047 196.187 28.0129 195.654C28.0113 195.636 28.0113 195.617 28.0129 195.599H37.9243C38.0054 195.59 38.0523 195.62 38.0523 195.722Z" fill="#EBEBEB"/>
<path d="M61.519 193.269H53.0838C52.9141 190.17 52.2515 187.118 51.1211 184.228H58.959C58.9976 184.222 59.0369 184.231 59.0703 184.251C59.1037 184.271 59.1291 184.302 59.1424 184.339C60.0411 186.117 60.697 188.009 61.0923 189.962C61.3005 191.003 61.4431 192.056 61.519 193.115V193.269Z" fill="#EBEBEB"/>
<path d="M61.5226 195.534C61.5226 195.739 61.5226 195.931 61.497 196.123C61.4429 196.882 61.3504 197.639 61.2196 198.389C60.9079 200.13 60.3879 201.827 59.6709 203.445C59.5557 203.705 59.4319 203.961 59.3167 204.221C59.3089 204.247 59.2922 204.269 59.2696 204.284C59.247 204.299 59.2198 204.305 59.193 204.302H51.4447H51.3594C51.4532 204.033 51.5471 203.773 51.6367 203.509C52.09 202.172 52.4381 200.803 52.6778 199.413C52.858 198.402 52.9791 197.382 53.0404 196.358C53.0404 196.114 53.0703 195.876 53.0788 195.632C53.0788 195.568 53.0788 195.534 53.1684 195.543H61.5226V195.534Z" fill="#EBEBEB"/>
<path d="M57.6797 181.936V181.971H50.213C50.1761 181.975 50.1386 181.968 50.1062 181.95C50.0738 181.931 50.0484 181.902 50.0338 181.868C49.056 179.912 47.8284 178.09 46.3816 176.45C45.5279 175.504 44.5896 174.639 43.5784 173.864C43.0749 173.48 42.5544 173.117 42.0424 172.746L41.957 172.682L42.0552 172.61C42.0552 172.567 42.0296 172.516 42.0082 172.452C44.6043 172.743 47.1265 173.5 49.4536 174.687C52.7773 176.35 55.612 178.848 57.6797 181.936Z" fill="#EBEBEB"/>
<path d="M36.5964 216.36C36.5273 216.382 36.4554 216.393 36.383 216.394C35.5736 216.288 34.7714 216.133 33.9809 215.929C32.507 215.553 31.0769 215.022 29.7142 214.346C28.154 213.569 26.6916 212.61 25.358 211.487C24.4089 210.695 23.5335 209.818 22.7425 208.868C22.1489 208.151 21.603 207.395 21.1084 206.606C21.0944 206.585 21.083 206.562 21.0742 206.538H28.046C28.0827 206.535 28.1193 206.544 28.1502 206.564C28.1811 206.585 28.2045 206.614 28.2166 206.649C28.9313 208.091 29.7753 209.464 30.7382 210.754C31.6263 211.928 32.6141 213.022 33.6908 214.026C34.5746 214.863 35.525 215.626 36.5324 216.309L36.5964 216.36Z" fill="#EBEBEB"/>
<path d="M36.5033 172.673C36.1875 172.9 35.8206 173.16 35.4622 173.433C34.2663 174.364 33.1555 175.399 32.1427 176.526C30.7717 178.024 29.6027 179.695 28.6654 181.497C28.6057 181.612 28.5545 181.732 28.4862 181.838C28.4743 181.857 28.4586 181.872 28.4402 181.884C28.4218 181.896 28.4011 181.903 28.3795 181.907C28.2558 181.907 28.1321 181.907 28.0041 181.907H21.2969C25.0302 176.637 30.0435 173.467 36.4222 172.499C36.4097 172.529 36.3955 172.559 36.3795 172.588L36.5033 172.673Z" fill="#EBEBEB"/>
<path d="M47.5414 206.624C46.5909 208.285 45.445 209.826 44.128 211.214C42.971 212.46 41.6706 213.564 40.2539 214.504V206.624H47.5414Z" fill="#EBEBEB"/>
<path d="M38.0186 206.627V214.35C35.118 212.362 32.729 209.716 31.0469 206.627H38.0186Z" fill="#EBEBEB"/>
<path d="M47.3162 181.902H40.3359V174.546C41.7686 175.477 43.0837 176.577 44.2527 177.823C45.4112 179.074 46.4378 180.441 47.3162 181.902Z" fill="#EBEBEB"/>
<path d="M38.019 174.769V181.962H31.3203C32.9602 179.074 35.2545 176.61 38.019 174.769Z" fill="#EBEBEB"/>
<path d="M261.457 167.72H202.82V129.533H261.457V167.72ZM203.247 167.293H261.03V129.96H203.247V167.293Z" fill="#EBEBEB"/>
<path d="M261.457 134.978H202.82V129.533H261.457V134.978ZM203.247 134.551H261.03V129.96H203.247V134.551Z" fill="#EBEBEB"/>
<path d="M207.74 132.307C207.74 132.56 207.665 132.807 207.524 133.018C207.383 133.228 207.183 133.393 206.95 133.489C206.716 133.586 206.458 133.612 206.21 133.562C205.962 133.513 205.734 133.391 205.555 133.212C205.376 133.033 205.254 132.805 205.204 132.557C205.155 132.308 205.18 132.051 205.277 131.817C205.374 131.583 205.538 131.383 205.749 131.243C205.959 131.102 206.207 131.027 206.46 131.027C206.799 131.027 207.125 131.162 207.365 131.402C207.605 131.642 207.74 131.967 207.74 132.307Z" fill="#C7C7C7"/>
<path d="M212.892 132.307C212.892 132.56 212.817 132.807 212.676 133.018C212.536 133.228 212.336 133.393 212.102 133.489C211.868 133.586 211.611 133.612 211.362 133.562C211.114 133.513 210.886 133.391 210.707 133.212C210.528 133.033 210.406 132.805 210.357 132.557C210.307 132.308 210.333 132.051 210.429 131.817C210.526 131.583 210.69 131.383 210.901 131.243C211.111 131.102 211.359 131.027 211.612 131.027C211.952 131.027 212.277 131.162 212.517 131.402C212.757 131.642 212.892 131.967 212.892 132.307Z" fill="#EBEBEB"/>
<path d="M218.044 132.307C218.044 132.56 217.969 132.807 217.829 133.018C217.688 133.228 217.488 133.392 217.254 133.489C217.02 133.586 216.763 133.612 216.515 133.562C216.266 133.513 216.038 133.391 215.859 133.212C215.68 133.033 215.558 132.805 215.509 132.557C215.46 132.308 215.485 132.051 215.582 131.817C215.679 131.583 215.843 131.383 216.053 131.243C216.264 131.102 216.511 131.027 216.764 131.027C216.933 131.024 217.101 131.055 217.258 131.118C217.414 131.182 217.557 131.276 217.676 131.395C217.795 131.515 217.89 131.657 217.953 131.814C218.016 131.97 218.047 132.138 218.044 132.307Z" fill="#0028FA"/>
<path d="M146.002 301.493C223.474 301.493 286.277 296.079 286.277 289.401C286.277 282.723 223.474 277.31 146.002 277.31C68.5299 277.31 5.72656 282.723 5.72656 289.401C5.72656 296.079 68.5299 301.493 146.002 301.493Z" fill="#EBEBEB"/>
<path d="M7.64062 253.561L42.2305 253.459L76.8204 253.42L146 253.348L215.18 253.42L249.77 253.459L284.36 253.561L249.77 253.668L215.18 253.702L146 253.774L76.8204 253.702L42.2305 253.663L7.64062 253.561Z" fill="#263238"/>
<path d="M228.958 140.324H58.8164V256.019H228.958V140.324Z" fill="#263238"/>
<path d="M228.958 238.952H58.8164V256.019H228.958V238.952Z" fill="#EBEBEB"/>
<path d="M177.043 276.874H110.734V282.416H177.043V276.874Z" fill="#DBDBDB"/>
<path d="M169.146 276.878H118.629L119.913 267.261L119.973 266.809L120.092 265.904L120.152 265.452L120.276 264.548L120.293 264.411L120.336 264.095L120.459 263.191L120.519 262.739L121.415 256.019H166.356L167.205 262.359L167.248 262.662L167.388 263.716L167.427 264.019L167.482 264.411L167.568 265.068L167.606 265.375L167.747 266.429L167.789 266.732L169.146 276.878Z" fill="#EBEBEB"/>
<path d="M146.66 246.337C146.66 246.895 146.495 247.44 146.185 247.904C145.875 248.368 145.434 248.73 144.919 248.943C144.404 249.156 143.837 249.212 143.29 249.103C142.743 248.995 142.24 248.726 141.846 248.332C141.451 247.937 141.183 247.435 141.074 246.888C140.965 246.341 141.021 245.773 141.234 245.258C141.448 244.743 141.809 244.302 142.273 243.992C142.737 243.682 143.282 243.517 143.84 243.517C144.21 243.517 144.577 243.589 144.92 243.731C145.262 243.872 145.573 244.08 145.835 244.342C146.097 244.604 146.305 244.915 146.447 245.257C146.588 245.6 146.661 245.967 146.66 246.337Z" fill="#37474F"/>
<path d="M167.482 264.411H120.293L120.336 264.095L120.459 263.191L120.519 262.739L121.415 256.019H166.356L167.205 262.359L167.248 262.662L167.388 263.716L167.427 264.019L167.482 264.411Z" fill="#DBDBDB"/>
<path d="M221.109 147.846H66.668V230.926H221.109V147.846Z" fill="white"/>
<path d="M221.109 147.846H66.668V230.926H221.109V147.846Z" fill="white"/>
<path d="M213.473 156.631H209.355V157.292H213.473V156.631Z" fill="#EBEBEB"/>
<path d="M213.473 159.601H209.355V160.262H213.473V159.601Z" fill="#EBEBEB"/>
<path d="M213.473 158.133H209.355V158.794H213.473V158.133Z" fill="#EBEBEB"/>
<path d="M221.109 147.846H66.668V150.265H221.109V147.846Z" fill="#455A64"/>
<path d="M68.5899 149.053C68.5908 149.173 68.5562 149.289 68.4906 149.389C68.425 149.488 68.3314 149.566 68.2215 149.612C68.1116 149.658 67.9906 149.671 67.8736 149.648C67.7566 149.625 67.649 149.569 67.5644 149.485C67.4799 149.401 67.4222 149.293 67.3986 149.177C67.375 149.06 67.3867 148.939 67.4321 148.828C67.4775 148.718 67.5546 148.624 67.6536 148.558C67.7527 148.491 67.8691 148.456 67.9883 148.456C68.1471 148.456 68.2995 148.519 68.4122 148.631C68.5249 148.743 68.5888 148.895 68.5899 149.053Z" fill="#C7C7C7"/>
<path d="M71.0352 149.053C71.0361 149.173 71.0014 149.29 70.9356 149.389C70.8698 149.489 70.7759 149.567 70.6658 149.613C70.5557 149.659 70.4344 149.671 70.3173 149.648C70.2002 149.625 70.0926 149.567 70.0082 149.483C69.9238 149.399 69.8665 149.291 69.8434 149.174C69.8203 149.057 69.8326 148.936 69.8786 148.825C69.9247 148.715 70.0025 148.621 70.1021 148.556C70.2016 148.49 70.3185 148.455 70.4379 148.456C70.5963 148.456 70.7482 148.519 70.8603 148.631C70.9723 148.743 71.0352 148.895 71.0352 149.053Z" fill="white"/>
<path d="M73.4688 149.053C73.4697 149.173 73.435 149.29 73.3692 149.389C73.3034 149.489 73.2095 149.567 73.0994 149.613C72.9893 149.659 72.868 149.671 72.7509 149.648C72.6338 149.625 72.5262 149.567 72.4418 149.483C72.3574 149.399 72.3001 149.291 72.277 149.174C72.2539 149.057 72.2662 148.936 72.3122 148.825C72.3583 148.715 72.4361 148.621 72.5357 148.556C72.6352 148.49 72.7521 148.455 72.8715 148.456C73.0296 148.457 73.1808 148.52 73.2926 148.632C73.4044 148.744 73.4677 148.895 73.4688 149.053Z" fill="#0028FA"/>
<path d="M221.107 150.265H218.453V230.926H221.107V150.265Z" fill="#DBDBDB"/>
<path d="M219.781 181.8C219.69 181.8 219.601 181.782 219.518 181.748C219.434 181.713 219.359 181.663 219.295 181.599C219.231 181.535 219.181 181.459 219.146 181.376C219.112 181.293 219.094 181.203 219.094 181.113V151.481C219.094 151.391 219.112 151.302 219.146 151.218C219.181 151.135 219.231 151.059 219.295 150.995C219.359 150.932 219.434 150.881 219.518 150.846C219.601 150.812 219.69 150.794 219.781 150.794C219.963 150.794 220.138 150.867 220.266 150.995C220.395 151.124 220.468 151.299 220.468 151.481V181.122C220.465 181.302 220.392 181.475 220.263 181.602C220.135 181.729 219.961 181.8 219.781 181.8Z" fill="#A6A6A6"/>
<path d="M94.6289 188.073L163.334 227.74L195.333 209.265L126.631 169.6L94.6289 188.073Z" fill="#E0E0E0"/>
<path d="M94.625 186.347L163.33 226.014L195.329 207.539L126.627 167.872L94.625 186.347Z" fill="#0028FA"/>
<path opacity="0.8" d="M94.625 186.347L163.33 226.014L195.329 207.539L126.627 167.872L94.625 186.347Z" fill="white"/>
<path opacity="0.05" d="M166.317 212.32C167.037 212.454 167.832 212.445 168.477 212.8C168.902 213.087 169.304 213.408 169.677 213.76C170.849 214.852 172.395 215.453 173.997 215.44C175.514 215.476 179.021 214.48 179.037 212.505C179.054 211.276 177.684 210.585 176.546 210.105C170.073 207.456 164.399 203.172 160.077 197.673C158.472 195.621 156.993 193.353 154.752 192.018C153.324 191.171 151.682 190.773 150.079 190.338C141.328 187.976 132.975 184.328 125.294 179.514C126.715 176.715 127.702 173.716 128.222 170.62C126.355 169.967 124.548 171.58 122.702 172.3C121.262 172.864 119.822 172.845 118.382 172.622L112.267 176.152C112.521 177.05 112.929 177.923 113.208 178.818C113.635 180.182 113.688 181.869 112.615 182.822C112.003 183.369 111.156 183.542 110.349 183.707L106.989 184.374C106.029 184.564 104.921 184.869 104.546 185.774C104.088 186.88 105.062 188.061 106.085 188.687C107.988 189.856 110.256 190.233 112.353 190.998C117.271 192.791 121.121 196.662 125.7 199.197C128.883 200.957 132.389 202.054 136.008 202.422C139.745 202.804 143.553 202.401 147.237 203.118C150.134 203.682 153.081 204.474 155.921 205.329C157.464 205.765 158.943 206.405 160.317 207.232C161.002 207.656 161.637 208.155 162.211 208.72C162.761 209.27 163.135 209.982 163.617 210.594C164.359 211.557 165.175 212.104 166.317 212.32Z" fill="black"/>
<path d="M94.625 186.347V186.971L163.33 226.636V226.014L94.625 186.347Z" fill="#0028FA"/>
<path opacity="0.6" d="M94.625 186.347V186.971L163.33 226.636V226.014L94.625 186.347Z" fill="white"/>
<path d="M163.328 226.014L195.327 207.539V208.163L163.328 226.636V226.014Z" fill="#0028FA"/>
<path opacity="0.45" d="M163.328 226.014L195.327 207.539V208.163L163.328 226.636V226.014Z" fill="white"/>
<path d="M130.747 180.587C130.747 180.587 132.406 167.109 132.029 162.186C131.837 159.664 130.618 159.09 128.75 159.234C126.883 159.378 116.203 165.054 116.203 165.054L117.715 168.726L126.612 165.935C126.612 165.935 125.707 171.179 125.498 172.175C125.29 173.171 124.85 174.513 124.505 175.715C124.334 176.305 124.097 177.076 124.097 177.448C124.097 178.326 130.747 180.587 130.747 180.587Z" fill="#FFBEB3"/>
<path d="M126.614 165.935C127.85 165.695 129.088 164.975 129.477 164.382C129.276 165.038 128.833 165.593 128.239 165.935C127.674 166.3 127.076 166.61 126.453 166.862L126.614 165.935Z" fill="#EFA49A"/>
<path d="M147.559 180.349C147.372 179.663 146.167 178.941 142.577 178.336C138.987 177.731 135.72 178.336 135.703 178.761C135.687 179.185 136.589 182.027 140.727 182.543C144.864 183.059 147.939 181.854 147.559 180.349Z" fill="#263238"/>
<path d="M136.76 186.184C136.76 186.184 134.42 171.004 134.756 167.905C135.104 164.704 136.318 163.218 138.356 163.009C141.017 164.557 142.436 168.251 144.137 171.889C145.839 175.528 147.684 183.34 147.78 187.072C147.876 190.804 144.929 193.46 141.584 193.948C138.238 194.435 136.76 186.184 136.76 186.184Z" fill="#FFBEB3"/>
<path d="M140.433 174.301C139.352 173.433 138.623 172.203 138.379 170.838L141.717 169.674L143.976 171.553C143.997 171.601 144.019 171.649 144.043 171.697L144.129 171.887C144.194 172.023 144.259 172.17 144.324 172.321L144.381 172.451L144.53 172.811L144.581 172.935C144.645 173.103 144.713 173.271 144.777 173.449C144.842 173.624 144.909 173.804 144.974 173.989C144.974 174.027 145.001 174.068 145.015 174.107C145.073 174.272 145.13 174.438 145.188 174.611C145.188 174.635 145.205 174.659 145.212 174.685C145.349 175.091 145.481 175.513 145.613 175.947L145.634 176.017C145.697 176.231 145.761 176.447 145.824 176.663C145.824 176.663 142.723 176.216 140.433 174.301Z" fill="#EFA49A"/>
<path d="M137.66 163.141C138.93 162.637 140.48 163.813 141.299 164.341C142.96 165.407 153.131 173.332 155.502 175.189C156.016 175.499 156.539 175.799 157.072 176.082L154.278 180.45C154.048 179.822 153.688 179.249 153.222 178.77C150.688 176.96 145.782 175.974 142.624 174.745C140.168 173.785 139.655 173.248 138.824 171.844C138.181 170.742 135.894 163.972 137.66 163.141Z" fill="#FFBEB3"/>
<path d="M136.706 186.265L135.703 178.76C135.703 178.76 136.603 180.831 141.25 181.374C145.896 181.916 147.677 181.134 147.559 180.349C147.559 180.349 148.774 185.046 148.303 188.101C147.833 191.156 143.174 194.403 143.174 194.403L136.706 186.265Z" fill="#37474F"/>
<path opacity="0.15" d="M138.763 187.285C138.338 187.285 137.937 187.311 137.562 187.335L142.727 193.834H143.927C145.264 192.769 147.952 190.381 148.303 188.101C148.646 185.862 148.087 182.742 147.763 181.234C147.947 182.962 144.074 187.182 138.763 187.285Z" fill="black"/>
<path d="M162.027 169.734C160.347 169.422 159.567 170.632 158.946 171.633C158.324 172.633 157.29 174.469 156.829 174.781C156.368 175.093 156.109 174.781 155.447 175.278C154.784 175.775 154.304 176.718 154.508 177.061L154.988 177.894C154.712 177.865 154.433 177.901 154.174 177.999C153.914 178.097 153.681 178.254 153.493 178.458C152.773 179.178 153.147 179.301 153.553 179.706C153.959 180.112 154.911 181.957 155.867 182.461C155.867 182.461 158.437 181.689 160.304 178.773C162.171 175.857 162.027 169.734 162.027 169.734Z" fill="#0028FA"/>
<path d="M156.389 182.847C156.291 182.83 156.197 182.792 156.114 182.736C156.031 182.68 155.961 182.607 155.908 182.522C155.854 182.438 155.819 182.343 155.805 182.244C155.79 182.145 155.796 182.044 155.823 181.947C156.109 181.048 156.538 180.199 157.092 179.435C157.74 178.52 158.95 176.795 159.154 175.854C159.358 174.913 159.797 172.268 160.515 171.162C161.232 170.055 161.969 169.417 162.915 169.772C163.86 170.127 160.875 177.212 159.999 178.412C159.123 179.612 156.389 182.847 156.389 182.847Z" fill="#37474F"/>
<path d="M156.943 182.694C159.307 181.434 160.087 180.208 160.783 178.614C161.479 177.02 163.113 175.544 163.533 174.112C163.953 172.679 164.001 169.004 162.376 169.895C160.751 170.785 160.413 174.071 159.698 175.969C158.983 177.868 154.624 183.93 156.943 182.694Z" fill="#263238"/>
<path d="M142.734 186.581C143.817 186.418 145.893 186.865 147.774 189.495C149.798 192.32 150.174 197.249 148.907 197.655C148.907 197.655 145.962 197.307 143.944 196.251C141.926 195.195 138.527 188.031 142.734 186.581Z" fill="#263238"/>
<path d="M177.252 210.092C174.115 208.861 171.552 206.747 169.332 204.38C167.549 201.954 159.898 191.574 158.568 190.112C158.088 189.594 156.953 188.262 155.376 187.926C149.791 186.74 139.457 186.906 139.457 186.906L135.482 186.236L127.562 193.691C128.654 194.852 130.027 195.868 132.029 196.914C134.03 197.96 136.202 198.714 139.123 198.467C144.974 197.972 148.483 196.319 151.618 195.587C152.525 195.376 153.466 195.181 154.178 196.669C154.891 198.157 154.949 198.901 157.058 200.485C159.766 202.516 164.23 204.786 166.178 207.205C166.5 207.798 166.691 208.453 166.74 209.125C166.925 211.674 169.066 211.175 170.791 212.284C171.73 212.886 172.43 213.62 173.563 213.872C174.595 214.085 175.66 214.065 176.683 213.815C177.602 213.594 178.925 212.932 179.376 212.034C179.966 210.841 178.15 210.448 177.252 210.092Z" fill="#FFBEB3"/>
<path d="M177.252 210.092C174.115 208.861 171.552 206.747 169.332 204.38C167.549 201.954 159.898 191.574 158.568 190.112C158.088 189.594 156.953 188.262 155.376 187.926C149.791 186.74 139.457 186.906 139.457 186.906L135.482 186.236L127.562 193.691C128.654 194.852 130.027 195.868 132.029 196.914C134.03 197.96 136.202 198.714 139.123 198.467C144.974 197.972 148.483 196.319 151.618 195.587C152.525 195.376 153.466 195.181 154.178 196.669C154.891 198.157 154.949 198.901 157.058 200.485C159.766 202.516 164.23 204.786 166.178 207.205C166.5 207.798 166.691 208.453 166.74 209.125C166.925 211.674 169.066 211.175 170.791 212.284C171.73 212.886 172.43 213.62 173.563 213.872C174.595 214.085 175.66 214.065 176.683 213.815C177.602 213.594 178.925 212.932 179.376 212.034C179.966 210.841 178.15 210.448 177.252 210.092Z" fill="#FFBEB3"/>
<path d="M156.869 199.278C156.273 198.619 155.822 197.844 155.544 197C155.329 196.297 155.052 195.615 154.716 194.96C153.741 193.28 147.276 195.424 144.413 196.302C144.252 196.542 143.582 197.262 143.34 197.86C146.81 197.154 149.306 196.122 151.603 195.587C152.51 195.376 153.451 195.181 154.164 196.669C154.877 198.157 154.934 198.901 157.044 200.485C158.143 201.308 159.535 202.165 160.929 203.072C159.369 201.865 158.193 200.653 156.869 199.278Z" fill="#EFA49A"/>
<path d="M136.09 186.236C136.09 186.236 141.773 186.512 142.736 186.582C142.736 186.582 140.6 187.16 143.201 192.416C145.803 197.672 148.911 197.648 148.911 197.648C144.831 198.952 142.712 200.418 137.511 199.808C131.312 198.913 127.551 194.272 127.551 194.272L136.09 186.236Z" fill="#455A64"/>
<path opacity="0.15" d="M148.892 197.648L148.751 197.636C148.287 197.581 146.912 197.281 145.367 195.637C144.145 195.969 142.905 196.229 141.654 196.417C137.019 197.096 133.539 196.28 128.36 193.518L127.559 194.269C129.616 196.589 132.254 198.317 135.203 199.276C135.383 199.333 135.565 199.386 135.752 199.439C135.927 199.487 136.103 199.53 136.283 199.573L136.328 199.585C136.494 199.624 136.662 199.657 136.83 199.688L136.919 199.708C137.113 199.744 137.312 199.777 137.514 199.806C137.838 199.844 138.152 199.876 138.455 199.897C138.757 199.919 139.047 199.936 139.328 199.943H139.746H140.147C140.543 199.943 140.919 199.912 141.282 199.876C141.522 199.852 141.762 199.823 142.002 199.787C142.556 199.703 143.105 199.587 143.646 199.441C143.857 199.384 144.066 199.324 144.275 199.261C144.795 199.103 145.309 198.923 145.837 198.733L146.478 198.493C147.234 198.215 148.033 197.922 148.926 197.636L148.892 197.648Z" fill="black"/>
<path d="M117.095 179.079C114.786 179.883 112.602 181.282 114.441 185.386C117.095 191.307 129.047 197.886 135.193 199.282C132.073 194.562 134.67 189.558 136.705 186.27L136.17 182.262C136.17 182.262 134.325 181.376 131.272 179.014C128.219 176.653 126.957 176.012 122.409 177.399C119.289 178.34 117.095 179.079 117.095 179.079Z" fill="#0028FA"/>
<path opacity="0.05" d="M126.449 192.462C120.166 188.862 118.191 185.656 115.726 182.577L114.113 184.547C114.156 184.673 114.204 184.803 114.257 184.936V184.957C114.312 185.097 114.37 185.236 114.435 185.382C115.596 187.972 118.536 190.689 121.992 193.043C122.487 193.379 122.99 193.707 123.502 194.027C123.759 194.188 124.016 194.344 124.272 194.507C126.032 195.564 127.853 196.516 129.725 197.358C131.482 198.168 133.311 198.811 135.188 199.278C134.504 198.263 134.047 197.112 133.848 195.904C131.667 195.239 129.327 194.113 126.449 192.462Z" fill="black"/>
<path d="M115.361 179.879C115.361 179.879 107.611 175.736 106.385 175.179L113.157 171.198L111.717 167.461C111.717 167.461 101.637 171.044 99.7173 172.074C98.7117 172.616 98.2773 173.067 98.2773 173.84C98.2773 175.127 99.5037 176.799 101.201 178.247C104.815 181.326 109.716 184.191 114.487 186.822C115.581 187.633 116.721 188.653 116.721 188.653C117.989 189.275 119.813 183.469 115.361 179.879Z" fill="#FFBEB3"/>
<path d="M122.618 165.483C122.378 164.927 122.031 164.423 121.597 164.001C121.162 163.579 120.649 163.246 120.086 163.022C119.523 162.798 118.922 162.687 118.316 162.696C117.71 162.704 117.112 162.832 116.555 163.071C115.999 163.311 115.495 163.658 115.073 164.092C114.65 164.527 114.318 165.04 114.094 165.603C113.87 166.166 113.759 166.768 113.767 167.373C113.776 167.979 113.904 168.577 114.143 169.134C114.177 169.208 114.215 169.28 114.251 169.352L113.078 171.901L111.359 168.711C111.359 168.46 111.266 168.217 111.098 168.03C110.929 167.843 110.698 167.725 110.447 167.699C110.32 167.688 110.193 167.704 110.072 167.744C109.951 167.784 109.84 167.849 109.745 167.933C109.65 168.018 109.573 168.121 109.519 168.236C109.464 168.351 109.434 168.476 109.43 168.603L110.752 168.716C110.464 168.91 110.242 169.188 110.118 169.513C109.802 170.334 110.896 172.007 112.365 173.475C112.365 173.475 114.441 176.406 114.942 176.819C115.267 177.066 115.674 177.179 116.08 177.135L116.205 171.375C117.048 171.83 118.012 172.011 118.962 171.894C119.913 171.776 120.803 171.365 121.509 170.717C122.216 170.07 122.703 169.219 122.903 168.283C123.103 167.346 123.007 166.37 122.627 165.491L122.618 165.483Z" fill="#263238"/>
<path d="M114.098 172.902C113.906 173.168 113.32 172.83 112.857 172.633C112.394 172.436 111.151 172.427 111.103 173.749C111.055 175.071 112.682 176.149 113.615 176.051C115.223 175.885 115.055 174.887 115.055 174.887L117.429 180.107C120.163 181.607 125.251 179.25 122.198 177.769L121.523 176.214C122.106 176.057 122.67 175.834 123.203 175.551C124.163 174.942 124.475 173.838 124.307 172.573C124.034 170.543 123.587 168.997 121.631 165.613C119.471 161.912 114.911 163.827 113.133 166.429C111.355 169.031 114.098 172.902 114.098 172.902Z" fill="#FFBEB3"/>
<path d="M114.285 173.339C114.155 173.396 113.305 172.787 112.845 172.633C112.221 172.417 111.21 168.483 111.21 168.483C111.21 168.483 110.387 167.763 110.838 166.434C111.213 165.349 112.585 164.627 113.536 164.147C115.249 163.28 117.165 162.291 118.007 160.477C118.072 160.335 118.17 160.17 118.326 160.167C118.426 160.178 118.518 160.227 118.583 160.304C118.977 160.748 119.2 161.319 119.212 161.912C119.212 161.97 119.229 162.037 119.281 162.054C119.334 162.071 119.38 162.025 119.411 161.987C119.586 161.774 119.719 161.529 119.802 161.267C119.92 160.909 120.522 161.819 120.568 161.943C120.709 162.339 120.77 162.758 120.747 163.177C120.724 163.597 120.618 164.007 120.433 164.384C120.059 165.133 119.286 165.601 118.583 166.011C117.011 166.928 114.323 167.799 113.949 167.905C113.44 168.047 113.536 168.555 113.826 169.943C114.093 171.159 114.717 173.139 114.285 173.339Z" fill="#263238"/>
<path d="M121.514 176.214C121.514 176.214 118.706 176.809 117.705 176.727C117.12 176.683 116.561 176.464 116.102 176.099C116.429 176.521 116.837 176.873 117.302 177.135C118.223 177.639 121.775 176.833 121.775 176.833L121.514 176.214Z" fill="#EFA49A"/>
<path d="M117.117 168.908L116.275 169.818C116.155 169.701 116.084 169.542 116.079 169.374C116.073 169.206 116.132 169.043 116.244 168.918C116.299 168.858 116.367 168.81 116.441 168.777C116.516 168.744 116.597 168.726 116.679 168.725C116.76 168.724 116.841 168.74 116.917 168.771C116.992 168.803 117.061 168.849 117.117 168.908Z" fill="#263238"/>
<path d="M119.812 173.56L121.049 173.5C121.056 173.581 121.048 173.663 121.023 173.741C120.998 173.819 120.958 173.892 120.905 173.954C120.851 174.016 120.786 174.067 120.713 174.103C120.639 174.139 120.559 174.16 120.477 174.164C120.31 174.169 120.147 174.109 120.023 173.996C119.899 173.883 119.824 173.727 119.812 173.56Z" fill="#EFA49A"/>
<path d="M122.208 167.461L121.008 167.152C121.024 167.072 121.056 166.996 121.102 166.929C121.148 166.862 121.208 166.805 121.277 166.762C121.346 166.719 121.423 166.691 121.503 166.678C121.584 166.666 121.666 166.67 121.745 166.691C121.906 166.736 122.043 166.841 122.129 166.984C122.215 167.127 122.243 167.298 122.208 167.461Z" fill="#263238"/>
<path d="M119.648 169.34L120.467 172.285L121.904 171.411L119.648 169.34Z" fill="#EFA49A"/>
<path d="M117.359 170.658C117.359 170.765 117.39 170.87 117.449 170.959C117.508 171.048 117.592 171.118 117.691 171.159C117.79 171.2 117.898 171.211 118.003 171.191C118.108 171.17 118.205 171.119 118.28 171.043C118.356 170.968 118.408 170.872 118.429 170.767C118.45 170.662 118.439 170.553 118.399 170.455C118.358 170.356 118.288 170.271 118.2 170.212C118.111 170.152 118.006 170.121 117.899 170.121C117.757 170.121 117.62 170.177 117.518 170.278C117.417 170.379 117.36 170.515 117.359 170.658Z" fill="#263238"/>
<path d="M121.262 169.136C121.262 169.239 121.292 169.339 121.349 169.424C121.406 169.509 121.487 169.576 121.582 169.615C121.676 169.654 121.781 169.665 121.881 169.645C121.982 169.625 122.074 169.575 122.147 169.503C122.219 169.43 122.269 169.338 122.289 169.237C122.309 169.137 122.298 169.032 122.259 168.938C122.22 168.843 122.153 168.762 122.068 168.705C121.983 168.648 121.883 168.618 121.78 168.618C121.643 168.618 121.511 168.672 121.414 168.77C121.316 168.867 121.262 168.999 121.262 169.136Z" fill="#263238"/>
<path d="M166.418 209.66C166.214 209.799 166.528 210.68 166.713 210.894C167.097 211.269 167.573 211.537 168.093 211.671C169.038 211.962 169.922 212.424 170.7 213.035C171.655 213.811 172.768 214.372 173.961 214.676C175.38 214.991 177.014 214.587 178.444 213.743C179.942 212.855 179.803 212.007 179.596 211.439L166.418 209.66Z" fill="#37474F"/>
<path d="M169.661 204.73C170.141 205.242 172.752 207.822 174.756 208.482C176.35 209.005 178.428 209.502 179.336 210.476C180.281 211.489 178.875 212.785 176.936 213.526C174.915 214.302 173.542 213.675 172.2 213.003C171.257 212.523 169.868 211.563 169.169 211.177C168.471 210.79 167.177 210.577 166.637 210.003C166.34 209.689 166.126 208.803 165.996 208.03C165.879 207.31 165.404 206.658 165.646 206.619L166.037 207.049C167.866 207.399 169.767 205.702 169.661 204.73Z" fill="#0028FA"/>
<path d="M106.382 175.18C105.236 175.8 103.998 176.233 102.715 176.462C102.715 176.462 104.75 176.983 107.184 175.569L106.382 175.18Z" fill="#EFA49A"/>
<path d="M139.756 205.77H26.25V281.695H139.756V205.77Z" fill="#DBDBDB"/>
<path d="M138.929 206.696H27.0742V280.769H138.929V206.696Z" fill="#263238"/>
<path d="M154.535 287.387H11.4648V292.597H154.535V287.387Z" fill="#C7C7C7"/>
<path d="M11.4648 287.387L26.2488 281.695H139.751L154.535 287.387H11.4648Z" fill="#DBDBDB"/>
<path d="M27.5664 285.369L37.1067 281.695H128.891L138.431 285.369H27.5664Z" fill="#263238"/>
<path d="M132.603 212.324H33.3906V275.142H132.603V212.324Z" fill="white"/>
<path d="M132.603 214.739H33.3906V275.142H132.603V214.739Z" fill="white"/>
<path d="M127.7 220.383H125.055V220.81H127.7V220.383Z" fill="#EBEBEB"/>
<path d="M127.7 222.291H125.055V222.717H127.7V222.291Z" fill="#EBEBEB"/>
<path d="M127.7 221.348H125.055V221.774H127.7V221.348Z" fill="#EBEBEB"/>
<path d="M132.603 212.324H33.3906V214.743H132.603V212.324Z" fill="#455A64"/>
<path d="M35.3165 213.531C35.3173 213.65 35.2828 213.767 35.2172 213.866C35.1516 213.966 35.0579 214.044 34.9481 214.09C34.8382 214.136 34.7171 214.149 34.6001 214.126C34.4832 214.103 34.3756 214.046 34.291 213.962C34.2064 213.878 34.1487 213.771 34.1252 213.654C34.1016 213.537 34.1133 213.416 34.1587 213.306C34.2041 213.196 34.2812 213.102 34.3802 213.035C34.4792 212.969 34.5957 212.934 34.7149 212.934C34.8737 212.934 35.0261 212.996 35.1388 213.108C35.2515 213.22 35.3153 213.372 35.3165 213.531Z" fill="#C7C7C7"/>
<path d="M37.1641 214.133C37.4964 214.133 37.7657 213.864 37.7657 213.531C37.7657 213.199 37.4964 212.93 37.1641 212.93C36.8318 212.93 36.5625 213.199 36.5625 213.531C36.5625 213.864 36.8318 214.133 37.1641 214.133Z" fill="white"/>
<path d="M40.211 213.531C40.2118 213.65 40.1772 213.767 40.1114 213.867C40.0456 213.966 39.9517 214.044 39.8416 214.09C39.7315 214.136 39.6102 214.149 39.4931 214.125C39.376 214.102 39.2684 214.045 39.184 213.961C39.0996 213.876 39.0422 213.769 39.0192 213.652C38.9961 213.534 39.0084 213.413 39.0544 213.303C39.1005 213.193 39.1783 213.099 39.2778 213.033C39.3774 212.967 39.4943 212.933 39.6137 212.934C39.7717 212.935 39.923 212.998 40.0348 213.11C40.1466 213.222 40.2099 213.373 40.211 213.531Z" fill="#0028FA"/>
<path d="M132.603 214.739H129.949V275.142H132.603V214.739Z" fill="#DBDBDB"/>
<path d="M131.277 246.35C131.095 246.35 130.921 246.279 130.793 246.151C130.664 246.023 130.591 245.849 130.59 245.668V216.023C130.591 215.842 130.664 215.668 130.793 215.54C130.921 215.412 131.095 215.34 131.277 215.34C131.458 215.34 131.632 215.412 131.761 215.54C131.89 215.668 131.963 215.842 131.964 216.023V245.668C131.963 245.849 131.89 246.023 131.761 246.151C131.632 246.279 131.458 246.35 131.277 246.35Z" fill="#A6A6A6"/>
<path d="M50.0859 242.715L95.8891 269.16L117.222 256.843L71.4203 230.4L50.0859 242.715Z" fill="#E0E0E0"/>
<path d="M50.082 241.565L95.8852 268.01L117.218 255.693L71.4164 229.248L50.082 241.565Z" fill="#0028FA"/>
<path opacity="0.8" d="M50.082 241.565L95.8852 268.01L117.218 255.693L71.4164 229.248L50.082 241.565Z" fill="white"/>
<path opacity="0.05" d="M97.8756 258.88C98.3556 258.97 98.8852 258.963 99.3156 259.2C99.599 259.392 99.8666 259.606 100.116 259.84C100.897 260.568 101.928 260.969 102.996 260.96C104.007 260.984 106.344 260.32 106.356 259.003C106.367 258.184 105.453 257.723 104.695 257.403C100.38 255.637 96.5965 252.781 93.7156 249.115C92.6452 247.747 91.6596 246.235 90.1652 245.346C89.2132 244.781 88.1188 244.515 87.05 244.226C81.2158 242.65 75.6475 240.219 70.5268 237.01C71.4739 235.143 72.132 233.144 72.4788 231.08C71.234 230.645 70.0292 231.72 68.7988 232.2C67.8388 232.576 66.8788 232.563 65.9188 232.414L61.842 234.768C62.0116 235.366 62.2836 235.949 62.4692 236.546C62.754 237.454 62.7892 238.579 62.074 239.214C61.666 239.579 61.1012 239.694 60.5636 239.805L58.3236 240.25C57.6836 240.376 56.9444 240.579 56.6948 241.182C56.3892 241.92 57.0388 242.707 57.7204 243.125C58.9892 243.904 60.5012 244.155 61.8996 244.666C65.178 245.861 67.7444 248.442 70.7972 250.131C72.9192 251.305 75.2569 252.036 77.6692 252.282C80.1604 252.536 82.6996 252.267 85.1556 252.746C87.0868 253.122 89.0516 253.65 90.9444 254.219C91.9736 254.51 92.9594 254.937 93.8756 255.488C94.3321 255.771 94.7555 256.103 95.138 256.48C95.5044 256.846 95.754 257.322 96.0756 257.73C96.57 258.371 97.114 258.736 97.8756 258.88Z" fill="black"/>
<path d="M50.082 241.565V241.981L95.8852 268.424V268.01L50.082 241.565Z" fill="#0028FA"/>
<path opacity="0.6" d="M50.082 241.565V241.981L95.8852 268.424V268.01L50.082 241.565Z" fill="white"/>
<path d="M95.8828 268.01L117.216 255.693V256.109L95.8828 268.424V268.01Z" fill="#0028FA"/>
<path opacity="0.45" d="M95.8828 268.01L117.216 255.693V256.109L95.8828 268.424V268.01Z" fill="white"/>
<path d="M74.1647 237.725C74.1647 237.725 75.2703 228.739 75.0191 225.457C74.8911 223.776 74.0783 223.393 72.8335 223.489C71.5887 223.585 64.4688 227.369 64.4688 227.369L65.4768 229.817L71.4079 227.956C71.4079 227.956 70.8047 231.452 70.6655 232.116C70.5263 232.78 70.2335 233.675 70.0031 234.477C69.8895 234.87 69.7311 235.384 69.7311 235.632C69.7311 236.217 74.1647 237.725 74.1647 237.725Z" fill="#FFBEB3"/>
<path d="M71.408 227.957C72.232 227.797 73.0576 227.317 73.3168 226.921C73.1827 227.359 72.8876 227.729 72.4912 227.957C72.1149 228.2 71.7163 228.407 71.3008 228.574L71.408 227.957Z" fill="#EFA49A"/>
<path d="M85.3729 237.566C85.2481 237.108 84.4449 236.627 82.0513 236.223C79.6577 235.82 77.4801 236.223 77.4689 236.507C77.4577 236.79 78.0593 238.684 80.8177 239.028C83.5761 239.372 85.6257 238.569 85.3729 237.566Z" fill="#263238"/>
<path d="M78.1744 241.455C78.1744 241.455 76.6144 231.335 76.8384 229.27C77.0704 227.135 77.88 226.145 79.2384 226.006C81.0128 227.038 81.9584 229.5 83.0928 231.926C84.2272 234.351 85.4576 239.559 85.5216 242.047C85.5856 244.535 83.6208 246.307 81.3904 246.631C79.16 246.956 78.1744 241.455 78.1744 241.455Z" fill="#FFBEB3"/>
<path d="M80.6235 233.534C79.903 232.955 79.4164 232.135 79.2539 231.225L81.4795 230.449L82.9851 231.702C82.9995 231.734 83.0139 231.766 83.0299 231.798L83.0875 231.924C83.1307 232.015 83.1739 232.113 83.2171 232.214L83.2555 232.3L83.3547 232.54L83.3883 232.623C83.4315 232.735 83.4763 232.847 83.5195 232.966C83.5627 233.082 83.6075 233.202 83.6507 233.326C83.6507 233.351 83.6683 233.378 83.6779 233.404C83.7163 233.514 83.7547 233.625 83.7931 233.74C83.7931 233.756 83.8043 233.772 83.8091 233.79C83.9003 234.06 83.9883 234.342 84.0763 234.631L84.0907 234.678C84.1323 234.82 84.1755 234.964 84.2171 235.108C84.2171 235.108 82.1499 234.81 80.6235 233.534Z" fill="#EFA49A"/>
<path d="M78.7736 226.094C79.62 225.758 80.6536 226.542 81.1992 226.894C82.3064 227.604 89.0872 232.887 90.668 234.126C91.0104 234.332 91.3592 234.532 91.7144 234.721L89.852 237.633C89.6986 237.214 89.4588 236.832 89.148 236.513C87.4584 235.306 84.188 234.649 82.0824 233.83C80.4456 233.19 80.1032 232.831 79.5496 231.895C79.1208 231.161 77.596 226.647 78.7736 226.094Z" fill="#FFBEB3"/>
<path d="M78.1375 241.51L77.4688 236.506C77.4688 236.506 78.0688 237.887 81.1664 238.249C84.264 238.61 85.4512 238.089 85.3728 237.566C85.3728 237.566 86.1824 240.697 85.8688 242.734C85.5552 244.77 82.4496 246.935 82.4496 246.935L78.1375 241.51Z" fill="#37474F"/>
<path opacity="0.15" d="M79.5109 242.19C79.2277 242.19 78.9605 242.207 78.7109 242.223L82.1541 246.556H82.9541C83.8453 245.846 85.6373 244.254 85.8709 242.734C86.0997 241.241 85.7269 239.161 85.5109 238.156C85.6341 239.308 83.0517 242.121 79.5109 242.19Z" fill="black"/>
<path d="M95.0195 230.489C93.8995 230.281 93.3795 231.087 92.9651 231.755C92.5507 232.422 91.8611 233.646 91.5539 233.854C91.2467 234.062 91.0739 233.854 90.6323 234.185C90.1907 234.516 89.8707 235.145 90.0067 235.374L90.3267 235.929C90.1428 235.91 89.9569 235.934 89.7838 235.999C89.6108 236.064 89.4554 236.169 89.3299 236.305C88.8499 236.785 89.0995 236.867 89.3699 237.137C89.6403 237.407 90.2755 238.638 90.9123 238.974C90.9123 238.974 92.6259 238.459 93.8707 236.515C95.1155 234.571 95.0195 230.489 95.0195 230.489Z" fill="#0028FA"/>
<path d="M91.2621 239.231C91.1964 239.219 91.134 239.194 91.0787 239.157C91.0234 239.119 90.9765 239.071 90.9409 239.014C90.9054 238.958 90.882 238.895 90.8723 238.829C90.8626 238.763 90.8667 238.695 90.8845 238.631C91.0755 238.031 91.3612 237.466 91.7309 236.956C92.1629 236.346 92.9693 235.196 93.1053 234.569C93.2413 233.942 93.5341 232.178 94.0125 231.441C94.4909 230.703 94.9821 230.278 95.6125 230.514C96.2429 230.751 94.2525 235.474 93.6685 236.274C93.0845 237.074 91.2621 239.231 91.2621 239.231Z" fill="#37474F"/>
<path d="M91.6322 239.129C93.2082 238.289 93.7282 237.471 94.1922 236.409C94.6562 235.346 95.7458 234.362 96.0258 233.407C96.3058 232.452 96.3378 230.002 95.2546 230.596C94.1714 231.19 93.9458 233.38 93.469 234.646C92.9922 235.911 90.0866 239.953 91.6322 239.129Z" fill="#263238"/>
<path d="M82.1588 241.721C82.8804 241.612 84.2644 241.91 85.5188 243.663C86.8676 245.547 87.1188 248.833 86.274 249.103C86.274 249.103 84.3108 248.871 82.9652 248.167C81.6196 247.463 79.354 242.687 82.1588 241.721Z" fill="#263238"/>
<path d="M105.169 257.395C103.078 256.574 101.369 255.164 99.8894 253.587C98.7006 251.969 93.5998 245.049 92.7134 244.075C92.3934 243.729 91.6366 242.841 90.5854 242.617C86.8622 241.827 79.9726 241.937 79.9726 241.937L77.323 241.491L72.043 246.46C72.771 247.235 73.6862 247.912 75.0206 248.609C76.355 249.307 77.803 249.809 79.7502 249.644C83.651 249.315 85.9902 248.212 88.0798 247.724C88.6846 247.584 89.3118 247.454 89.787 248.446C90.2622 249.438 90.3006 249.934 91.707 250.99C93.5118 252.344 96.4878 253.857 97.787 255.47C98.0012 255.865 98.1288 256.302 98.1614 256.75C98.2846 258.449 99.7118 258.116 100.862 258.856C101.488 259.257 101.955 259.747 102.71 259.915C103.398 260.056 104.108 260.043 104.79 259.876C105.403 259.729 106.285 259.288 106.585 258.689C106.979 257.894 105.768 257.632 105.169 257.395Z" fill="#FFBEB3"/>
<path d="M105.169 257.395C103.078 256.574 101.369 255.164 99.8894 253.587C98.7006 251.969 93.5998 245.049 92.7134 244.075C92.3934 243.729 91.6366 242.841 90.5854 242.617C86.8622 241.827 79.9726 241.937 79.9726 241.937L77.323 241.491L72.043 246.46C72.771 247.235 73.6862 247.912 75.0206 248.609C76.355 249.307 77.803 249.809 79.7502 249.644C83.651 249.315 85.9902 248.212 88.0798 247.724C88.6846 247.584 89.3118 247.454 89.787 248.446C90.2622 249.438 90.3006 249.934 91.707 250.99C93.5118 252.344 96.4878 253.857 97.787 255.47C98.0012 255.865 98.1288 256.302 98.1614 256.75C98.2846 258.449 99.7118 258.116 100.862 258.856C101.488 259.257 101.955 259.747 102.71 259.915C103.398 260.056 104.108 260.043 104.79 259.876C105.403 259.729 106.285 259.288 106.585 258.689C106.979 257.894 105.768 257.632 105.169 257.395Z" fill="#FFBEB3"/>
<path d="M91.5817 250.185C91.1847 249.746 90.8838 249.229 90.6985 248.667C90.5551 248.198 90.3703 247.743 90.1465 247.307C89.4969 246.187 85.1865 247.616 83.2777 248.201C83.1705 248.361 82.7241 248.841 82.5625 249.24C84.8761 248.769 86.5401 248.081 88.0713 247.724C88.6761 247.584 89.3033 247.454 89.7785 248.446C90.2537 249.438 90.2921 249.934 91.6985 250.99C92.4313 251.539 93.3593 252.11 94.2889 252.715C93.2489 251.91 92.4649 251.102 91.5817 250.185Z" fill="#EFA49A"/>
<path d="M77.728 241.491C77.728 241.491 81.5168 241.675 82.1584 241.721C82.1584 241.721 80.7344 242.107 82.4688 245.611C84.2032 249.115 86.2752 249.099 86.2752 249.099C83.5552 249.968 82.1424 250.945 78.6752 250.539C74.5424 249.942 72.0352 246.848 72.0352 246.848L77.728 241.491Z" fill="#455A64"/>
<path opacity="0.15" d="M86.2654 249.099L86.171 249.091C85.8622 249.054 84.9454 248.854 83.915 247.758C83.1006 247.979 82.2742 248.153 81.4398 248.278C78.3502 248.731 76.0302 248.187 72.5774 246.345L72.043 246.846C73.4143 248.392 75.1735 249.545 77.139 250.184C77.259 250.222 77.3806 250.257 77.5054 250.292C77.6222 250.324 77.739 250.353 77.859 250.382L77.8894 250.39C77.9998 250.416 78.1118 250.438 78.2238 250.459L78.283 250.472C78.4126 250.496 78.5454 250.518 78.6798 250.537C78.8958 250.563 79.1054 250.584 79.307 250.598C79.5086 250.612 79.7022 250.624 79.8894 250.628H80.1678H80.435C80.699 250.628 80.9502 250.608 81.1918 250.584C81.3518 250.568 81.5118 250.548 81.6718 250.524C82.0412 250.468 82.4071 250.391 82.7678 250.294C82.9086 250.256 83.0478 250.216 83.187 250.174C83.5342 250.068 83.8766 249.948 84.2286 249.822L84.6558 249.662C85.1598 249.476 85.6926 249.281 86.2878 249.091L86.2654 249.099Z" fill="black"/>
<path d="M65.0634 236.719C63.5242 237.255 62.0682 238.188 63.2938 240.924C65.0634 244.871 73.0314 249.257 77.129 250.188C75.049 247.041 76.7802 243.705 78.137 241.513L77.7802 238.841C77.7802 238.841 76.5498 238.25 74.5146 236.676C72.4794 235.102 71.6378 234.674 68.6058 235.599C66.5258 236.226 65.0634 236.719 65.0634 236.719Z" fill="#0028FA"/>
<path opacity="0.05" d="M71.2982 245.641C67.1094 243.241 65.7926 241.104 64.1494 239.051L63.0742 240.364C63.103 240.449 63.135 240.535 63.1702 240.624V240.638C63.207 240.731 63.2454 240.824 63.2886 240.921C64.063 242.648 66.023 244.459 68.327 246.028C68.6566 246.252 68.9921 246.471 69.3334 246.684C69.5046 246.792 69.6758 246.896 69.847 247.004C71.0202 247.709 72.234 248.344 73.4822 248.905C74.6534 249.445 75.8726 249.873 77.1238 250.185C76.6678 249.508 76.3633 248.741 76.231 247.936C74.7766 247.492 73.2166 246.742 71.2982 245.641Z" fill="black"/>
<path d="M63.9083 237.252C63.9083 237.252 58.7419 234.49 57.9243 234.119L62.4395 231.465L61.4795 228.974C61.4795 228.974 54.7595 231.362 53.4795 232.049C52.8091 232.41 52.5195 232.711 52.5195 233.226C52.5195 234.084 53.3371 235.199 54.4683 236.164C56.8779 238.217 60.1451 240.127 63.3259 241.881C64.0555 242.422 64.8155 243.102 64.8155 243.102C65.6603 243.516 66.8763 239.646 63.9083 237.252Z" fill="#FFBEB3"/>
<path d="M68.7451 227.655C68.5853 227.284 68.354 226.949 68.0645 226.667C67.7749 226.385 67.4326 226.164 67.0574 226.014C66.6821 225.865 66.281 225.791 65.8772 225.797C65.4733 225.802 65.0745 225.888 64.7035 226.047C64.3326 226.207 63.9967 226.438 63.7151 226.728C63.4336 227.018 63.2118 227.36 63.0625 227.735C62.9132 228.11 62.8392 228.511 62.8449 228.915C62.8506 229.319 62.9357 229.718 63.0955 230.089C63.1179 230.139 63.1435 230.187 63.1675 230.235L62.3851 231.934L61.2395 229.807C61.2396 229.639 61.1776 229.478 61.0653 229.353C60.953 229.228 60.7984 229.15 60.6315 229.132C60.5469 229.125 60.4618 229.135 60.3813 229.162C60.3008 229.189 60.2266 229.232 60.1632 229.288C60.0998 229.345 60.0484 229.414 60.0123 229.49C59.9762 229.567 59.9561 229.65 59.9531 229.735L60.8347 229.811C60.6424 229.94 60.4948 230.125 60.4123 230.342C60.2011 230.889 60.9307 232.004 61.9099 232.983C61.9099 232.983 63.2939 234.937 63.6283 235.212C63.8448 235.377 64.1162 235.452 64.3867 235.423L64.4699 231.583C65.0319 231.887 65.6744 232.007 66.3081 231.929C66.9418 231.85 67.5353 231.576 68.0062 231.145C68.477 230.713 68.8018 230.146 68.9353 229.521C69.0689 228.897 69.0047 228.246 68.7515 227.66L68.7451 227.655Z" fill="#263238"/>
<path d="M63.0639 232.601C62.9359 232.778 62.5455 232.553 62.2367 232.422C61.9279 232.29 61.0991 232.284 61.0671 233.166C61.0351 234.047 62.1199 234.766 62.7423 234.7C63.8143 234.59 63.7023 233.924 63.7023 233.924L65.2847 237.404C67.1071 238.404 70.4991 236.833 68.4639 235.846L68.0143 234.809C68.403 234.704 68.7787 234.556 69.1343 234.367C69.7743 233.961 69.9823 233.225 69.8703 232.382C69.6879 231.028 69.3903 229.998 68.0863 227.742C66.6463 225.274 63.6063 226.551 62.4207 228.286C61.2351 230.02 63.0639 232.601 63.0639 232.601Z" fill="#FFBEB3"/>
<path d="M63.1924 232.892C63.106 232.931 62.5396 232.524 62.2324 232.422C61.8164 232.278 61.1428 229.655 61.1428 229.655C61.1428 229.655 60.594 229.175 60.8948 228.289C61.1444 227.566 62.0596 227.084 62.6932 226.764C63.8356 226.187 65.1124 225.527 65.674 224.318C65.7172 224.223 65.7828 224.113 65.8868 224.111C65.9535 224.119 66.0148 224.151 66.058 224.203C66.3208 224.499 66.4694 224.879 66.4772 225.275C66.4772 225.313 66.4884 225.358 66.5236 225.369C66.5588 225.38 66.5892 225.35 66.61 225.324C66.7267 225.182 66.8153 225.019 66.8708 224.844C66.9492 224.606 67.3508 225.212 67.3812 225.295C67.4756 225.559 67.5163 225.839 67.5009 226.118C67.4855 226.397 67.4143 226.671 67.2916 226.923C67.042 227.422 66.5268 227.734 66.058 228.007C65.01 228.619 63.218 229.199 62.9684 229.27C62.6292 229.364 62.6932 229.703 62.8868 230.628C63.0644 231.439 63.4804 232.759 63.1924 232.892Z" fill="#263238"/>
<path d="M68.0103 234.809C68.0103 234.809 66.1383 235.206 65.4711 235.152C65.081 235.122 64.7087 234.976 64.4023 234.732C64.6204 235.014 64.8924 235.249 65.2023 235.424C65.8167 235.76 68.1847 235.222 68.1847 235.222L68.0103 234.809Z" fill="#EFA49A"/>
<path d="M65.0796 229.938L64.518 230.545C64.4378 230.467 64.3909 230.361 64.387 230.249C64.3831 230.137 64.4226 230.028 64.4972 229.945C64.5343 229.905 64.5791 229.873 64.6289 229.851C64.6788 229.829 64.7326 229.817 64.787 229.816C64.8415 229.816 64.8956 229.826 64.9459 229.847C64.9962 229.868 65.0417 229.899 65.0796 229.938Z" fill="#263238"/>
<path d="M66.875 233.039L67.699 232.999C67.7043 233.053 67.6985 233.108 67.682 233.16C67.6655 233.212 67.6387 233.26 67.6031 233.302C67.5675 233.343 67.524 233.377 67.475 233.401C67.426 233.425 67.3727 233.439 67.3182 233.442C67.2065 233.445 67.098 233.405 67.0153 233.33C66.9327 233.255 66.8824 233.15 66.875 233.039Z" fill="#EFA49A"/>
<path d="M68.4719 228.974L67.6719 228.767C67.6825 228.714 67.7039 228.664 67.7348 228.619C67.7656 228.574 67.8053 228.537 67.8513 228.508C67.8972 228.479 67.9486 228.46 68.0022 228.452C68.0559 228.444 68.1106 228.446 68.1631 228.46C68.2703 228.49 68.362 228.56 68.4194 228.656C68.4768 228.751 68.4956 228.865 68.4719 228.974Z" fill="#263238"/>
<path d="M66.7656 230.227L67.3112 232.19L68.2696 231.607L66.7656 230.227Z" fill="#EFA49A"/>
<path d="M65.2383 231.105C65.238 231.176 65.2588 231.246 65.2982 231.305C65.3375 231.365 65.3937 231.411 65.4594 231.439C65.5252 231.466 65.5976 231.474 65.6675 231.46C65.7375 231.446 65.8018 231.412 65.8523 231.362C65.9028 231.311 65.9372 231.247 65.9512 231.177C65.9653 231.108 65.9582 231.035 65.931 230.969C65.9038 230.903 65.8577 230.847 65.7985 230.807C65.7392 230.768 65.6696 230.747 65.5983 230.747C65.5031 230.747 65.4118 230.784 65.3443 230.851C65.2768 230.919 65.2387 231.01 65.2383 231.105Z" fill="#263238"/>
<path d="M67.8398 230.091C67.8398 230.159 67.8601 230.226 67.8981 230.283C67.9361 230.34 67.99 230.384 68.0532 230.41C68.1163 230.436 68.1858 230.443 68.2529 230.43C68.3199 230.416 68.3815 230.383 68.4298 230.335C68.4782 230.287 68.5111 230.225 68.5244 230.158C68.5377 230.091 68.5309 230.022 68.5047 229.958C68.4786 229.895 68.4343 229.841 68.3774 229.803C68.3206 229.765 68.2538 229.745 68.1854 229.745C68.0938 229.745 68.0059 229.782 67.9411 229.846C67.8763 229.911 67.8398 229.999 67.8398 230.091Z" fill="#263238"/>
<path d="M97.9466 257.106C97.8106 257.199 98.0202 257.786 98.1434 257.929C98.3995 258.179 98.7167 258.358 99.0634 258.447C99.6934 258.641 100.282 258.949 100.801 259.356C101.438 259.874 102.18 260.247 102.975 260.45C103.921 260.66 105.011 260.391 105.964 259.828C106.963 259.236 106.87 258.671 106.732 258.292L97.9466 257.106Z" fill="#37474F"/>
<path d="M100.109 253.82C100.429 254.161 102.17 255.881 103.506 256.321C104.568 256.67 105.954 257.001 106.558 257.651C107.189 258.326 106.251 259.19 104.958 259.684C103.611 260.201 102.696 259.784 101.802 259.336C101.173 259.016 100.246 258.376 99.7808 258.118C99.3152 257.86 98.4528 257.718 98.0928 257.336C97.8944 257.126 97.752 256.536 97.6656 256.02C97.5872 255.54 97.2704 255.105 97.432 255.08L97.6928 255.366C98.912 255.6 100.179 254.468 100.109 253.82Z" fill="#0028FA"/>
<path d="M57.9253 234.12C57.161 234.533 56.3357 234.821 55.4805 234.974C55.4805 234.974 56.8373 235.321 58.4597 234.379L57.9253 234.12Z" fill="#EFA49A"/>
<path d="M251.393 282.417H208.539C208.08 282.413 207.627 282.318 207.205 282.139C206.783 281.96 206.401 281.7 206.079 281.373C205.758 281.046 205.504 280.659 205.332 280.234C205.161 279.809 205.074 279.355 205.078 278.897V211.539C205.071 210.614 205.432 209.724 206.081 209.065C206.73 208.406 207.614 208.031 208.539 208.023H251.393C252.317 208.032 253.199 208.407 253.846 209.067C254.494 209.726 254.853 210.615 254.845 211.539V278.897C254.849 279.354 254.763 279.808 254.592 280.233C254.421 280.658 254.168 281.045 253.848 281.371C253.527 281.698 253.146 281.959 252.724 282.138C252.303 282.317 251.851 282.412 251.393 282.417Z" fill="#37474F"/>
<path d="M252.759 213.275H207.238V277.31H252.759V213.275Z" fill="white"/>
<path d="M252.759 213.275H207.238V277.31H252.759V213.275Z" fill="white"/>
<path d="M250.061 217.41H247.723V217.785H250.061V217.41Z" fill="#EBEBEB"/>
<path d="M250.061 219.095H247.723V219.47H250.061V219.095Z" fill="#EBEBEB"/>
<path d="M250.061 218.263H247.723V218.638H250.061V218.263Z" fill="#EBEBEB"/>
<path d="M252.815 268.503H207.238V277.305H252.815V268.503Z" fill="#C7C7C7"/>
<path d="M224.551 211.091C224.551 210.988 224.592 210.889 224.664 210.816C224.737 210.744 224.836 210.703 224.939 210.703H235C235.051 210.703 235.101 210.713 235.148 210.732C235.195 210.752 235.237 210.78 235.273 210.817C235.309 210.853 235.337 210.896 235.356 210.943C235.375 210.99 235.384 211.04 235.384 211.091C235.384 211.141 235.374 211.191 235.355 211.238C235.335 211.284 235.307 211.327 235.271 211.362C235.236 211.398 235.193 211.426 235.147 211.446C235.1 211.465 235.05 211.475 235 211.475H224.939C224.888 211.475 224.838 211.466 224.791 211.447C224.744 211.428 224.701 211.4 224.665 211.364C224.629 211.328 224.6 211.286 224.58 211.239C224.561 211.192 224.551 211.142 224.551 211.091Z" fill="#263238"/>
<path d="M229.97 281.512C229.692 281.513 229.421 281.431 229.189 281.277C228.958 281.123 228.777 280.904 228.67 280.647C228.563 280.391 228.535 280.108 228.589 279.836C228.643 279.563 228.777 279.312 228.974 279.116C229.17 278.919 229.421 278.785 229.693 278.731C229.966 278.677 230.249 278.705 230.505 278.812C230.762 278.919 230.981 279.1 231.135 279.331C231.289 279.563 231.371 279.835 231.37 280.113C231.37 280.484 231.223 280.84 230.96 281.102C230.698 281.365 230.342 281.512 229.97 281.512Z" fill="#263238"/>
<path d="M213.543 243.358L236.445 256.58L247.111 250.422L224.21 237.2L213.543 243.358Z" fill="#E0E0E0"/>
<path d="M213.543 242.782L236.445 256.005L247.111 249.846L224.21 236.624L213.543 242.782Z" fill="#0028FA"/>
<path opacity="0.8" d="M213.543 242.782L236.445 256.005L247.111 249.846L224.21 236.624L213.543 242.782Z" fill="white"/>
<path opacity="0.05" d="M237.442 251.44C237.682 251.485 237.947 251.482 238.162 251.6C238.303 251.696 238.437 251.803 238.562 251.92C238.952 252.284 239.468 252.484 240.002 252.48C240.507 252.492 241.676 252.16 241.682 251.502C241.687 251.092 241.231 250.862 240.851 250.702C238.694 249.819 236.802 248.391 235.362 246.558C234.827 245.874 234.334 245.118 233.587 244.673C233.111 244.39 232.563 244.258 232.029 244.113C229.112 243.325 226.328 242.109 223.767 240.505C224.241 239.572 224.57 238.572 224.743 237.54C224.121 237.322 223.519 237.86 222.903 238.1C222.423 238.288 221.943 238.282 221.463 238.207L219.425 239.384C219.51 239.683 219.646 239.974 219.739 240.273C219.881 240.727 219.899 241.29 219.541 241.607C219.337 241.79 219.055 241.847 218.786 241.902L217.666 242.125C217.346 242.188 216.976 242.29 216.851 242.591C216.699 242.96 217.023 243.354 217.364 243.562C217.999 243.952 218.755 244.078 219.454 244.333C221.093 244.93 222.376 246.221 223.903 247.066C224.964 247.652 226.132 248.018 227.339 248.141C228.584 248.268 229.854 248.134 231.082 248.373C232.047 248.561 233.03 248.825 233.976 249.11C234.491 249.255 234.984 249.468 235.442 249.744C235.67 249.885 235.882 250.052 236.073 250.24C236.256 250.423 236.381 250.661 236.542 250.865C236.789 251.186 237.061 251.368 237.442 251.44Z" fill="black"/>
<path d="M213.543 242.782V242.99L236.445 256.212V256.005L213.543 242.782Z" fill="#0028FA"/>
<path opacity="0.6" d="M213.543 242.782V242.99L236.445 256.212V256.005L213.543 242.782Z" fill="white"/>
<path d="M236.445 256.005L247.112 249.846V250.054L236.445 256.212V256.005Z" fill="#0028FA"/>
<path opacity="0.45" d="M236.445 256.005L247.112 249.846V250.054L236.445 256.212V256.005Z" fill="white"/>
<path d="M225.582 240.862C225.582 240.862 226.135 236.369 226.01 234.729C225.946 233.888 225.539 233.697 224.917 233.745C224.294 233.793 220.734 235.685 220.734 235.685L221.238 236.909L224.204 235.978C224.204 235.978 223.902 237.726 223.833 238.058C223.763 238.39 223.617 238.837 223.502 239.238C223.445 239.435 223.366 239.692 223.366 239.816C223.366 240.109 225.582 240.862 225.582 240.862Z" fill="#FFBEB3"/>
<path d="M224.202 235.978C224.614 235.898 225.027 235.658 225.156 235.46C225.089 235.679 224.942 235.864 224.744 235.978C224.555 236.1 224.356 236.203 224.148 236.287L224.202 235.978Z" fill="#EFA49A"/>
<path d="M231.186 240.783C231.124 240.554 230.722 240.314 229.526 240.112C228.329 239.91 227.24 240.112 227.234 240.254C227.229 240.395 227.53 241.342 228.909 241.514C230.288 241.686 231.313 241.285 231.186 240.783Z" fill="#263238"/>
<path d="M227.585 242.728C227.585 242.728 226.805 237.668 226.917 236.635C227.033 235.568 227.438 235.073 228.117 235.003C229.004 235.519 229.477 236.75 230.044 237.963C230.612 239.176 231.227 241.78 231.259 243.024C231.291 244.268 230.308 245.153 229.193 245.316C228.078 245.478 227.585 242.728 227.585 242.728Z" fill="#FFBEB3"/>
<path d="M228.81 238.767C228.45 238.478 228.206 238.068 228.125 237.613L229.238 237.225L229.991 237.851C229.998 237.867 230.005 237.883 230.013 237.899L230.042 237.962C230.063 238.008 230.085 238.057 230.107 238.107L230.126 238.15L230.175 238.27L230.192 238.312C230.214 238.368 230.236 238.424 230.258 238.483C230.279 238.541 230.302 238.601 230.323 238.663C230.323 238.676 230.332 238.689 230.337 238.702C230.356 238.757 230.375 238.813 230.395 238.87C230.395 238.878 230.4 238.886 230.403 238.895C230.448 239.03 230.492 239.171 230.536 239.316L230.543 239.339C230.564 239.41 230.586 239.482 230.607 239.554C230.607 239.554 229.573 239.405 228.81 238.767Z" fill="#EFA49A"/>
<path d="M227.887 235.047C228.31 234.879 228.827 235.271 229.1 235.447C229.653 235.802 233.044 238.444 233.834 239.063C234.005 239.166 234.18 239.266 234.357 239.36L233.426 240.816C233.349 240.607 233.229 240.416 233.074 240.256C232.229 239.653 230.594 239.324 229.541 238.915C228.723 238.595 228.552 238.416 228.275 237.948C228.06 237.58 227.298 235.324 227.887 235.047Z" fill="#FFBEB3"/>
<path d="M227.569 242.755L227.234 240.253C227.234 240.253 227.534 240.944 229.083 241.125C230.632 241.305 231.226 241.045 231.186 240.783C231.186 240.783 231.591 242.349 231.434 243.367C231.278 244.385 229.725 245.468 229.725 245.468L227.569 242.755Z" fill="#37474F"/>
<path opacity="0.15" d="M228.252 243.095C228.11 243.095 227.976 243.104 227.852 243.112L229.573 245.278H229.973C230.419 244.923 231.315 244.127 231.432 243.367C231.546 242.621 231.36 241.581 231.252 241.078C231.313 241.654 230.022 243.061 228.252 243.095Z" fill="black"/>
<path d="M236.008 237.245C235.448 237.141 235.188 237.544 234.981 237.878C234.773 238.211 234.429 238.823 234.275 238.927C234.121 239.031 234.035 238.927 233.814 239.093C233.593 239.258 233.433 239.573 233.501 239.687L233.661 239.965C233.569 239.955 233.476 239.967 233.39 240C233.303 240.032 233.226 240.085 233.163 240.153C232.923 240.393 233.048 240.434 233.183 240.569C233.318 240.704 233.636 241.319 233.954 241.487C233.954 241.487 234.811 241.23 235.433 240.258C236.056 239.286 236.008 237.245 236.008 237.245Z" fill="#0028FA"/>
<path d="M234.127 241.616C234.094 241.61 234.063 241.597 234.035 241.579C234.008 241.56 233.984 241.536 233.967 241.507C233.949 241.479 233.937 241.448 233.932 241.415C233.927 241.382 233.929 241.348 233.938 241.316C234.034 241.016 234.177 240.733 234.362 240.478C234.578 240.173 234.981 239.598 235.049 239.285C235.117 238.971 235.263 238.089 235.502 237.721C235.742 237.352 235.987 237.139 236.302 237.257C236.618 237.376 235.622 239.737 235.33 240.137C235.038 240.537 234.127 241.616 234.127 241.616Z" fill="#37474F"/>
<path d="M234.314 241.565C235.102 241.145 235.362 240.736 235.594 240.205C235.826 239.673 236.371 239.181 236.511 238.704C236.651 238.226 236.667 237.001 236.125 237.298C235.584 237.595 235.471 238.69 235.233 239.323C234.994 239.956 233.541 241.977 234.314 241.565Z" fill="#263238"/>
<path d="M229.576 242.86C229.936 242.806 230.628 242.955 231.256 243.832C231.93 244.773 232.056 246.416 231.633 246.552C231.633 246.552 230.652 246.436 229.979 246.084C229.306 245.732 228.173 243.344 229.576 242.86Z" fill="#263238"/>
<path d="M241.083 250.697C240.037 250.287 239.183 249.582 238.443 248.793C237.848 247.984 235.298 244.524 234.855 244.037C234.695 243.864 234.316 243.42 233.791 243.308C231.929 242.913 228.484 242.968 228.484 242.968L227.16 242.745L224.52 245.23C224.884 245.617 225.341 245.956 226.008 246.304C226.676 246.653 227.4 246.904 228.373 246.822C230.324 246.657 231.493 246.106 232.538 245.862C232.84 245.792 233.154 245.727 233.392 246.223C233.629 246.719 233.648 246.967 234.352 247.495C235.254 248.172 236.742 248.928 237.392 249.735C237.499 249.932 237.562 250.151 237.579 250.375C237.64 251.224 238.354 251.058 238.929 251.428C239.242 251.628 239.476 251.873 239.853 251.957C240.197 252.028 240.552 252.021 240.893 251.938C241.2 251.864 241.64 251.644 241.791 251.344C241.988 250.947 241.382 250.816 241.083 250.697Z" fill="#FFBEB3"/>
<path d="M241.083 250.697C240.037 250.287 239.183 249.582 238.443 248.793C237.848 247.984 235.298 244.524 234.855 244.037C234.695 243.864 234.316 243.42 233.791 243.308C231.929 242.913 228.484 242.968 228.484 242.968L227.16 242.745L224.52 245.23C224.884 245.617 225.341 245.956 226.008 246.304C226.676 246.653 227.4 246.904 228.373 246.822C230.324 246.657 231.493 246.106 232.538 245.862C232.84 245.792 233.154 245.727 233.392 246.223C233.629 246.719 233.648 246.967 234.352 247.495C235.254 248.172 236.742 248.928 237.392 249.735C237.499 249.932 237.562 250.151 237.579 250.375C237.64 251.224 238.354 251.058 238.929 251.428C239.242 251.628 239.476 251.873 239.853 251.957C240.197 252.028 240.552 252.021 240.893 251.938C241.2 251.864 241.64 251.644 241.791 251.344C241.988 250.947 241.382 250.816 241.083 250.697Z" fill="#FFBEB3"/>
<path d="M234.287 247.092C234.088 246.873 233.938 246.614 233.845 246.333C233.774 246.099 233.681 245.871 233.569 245.653C233.245 245.093 231.089 245.808 230.135 246.1C230.081 246.18 229.858 246.42 229.777 246.62C230.934 246.384 231.766 246.04 232.532 245.862C232.834 245.792 233.148 245.727 233.385 246.223C233.623 246.719 233.642 246.967 234.345 247.495C234.712 247.769 235.176 248.055 235.641 248.357C235.121 247.955 234.729 247.551 234.287 247.092Z" fill="#EFA49A"/>
<path d="M227.362 242.745C227.362 242.745 229.256 242.837 229.577 242.86C229.577 242.86 228.865 243.053 229.732 244.805C230.6 246.557 231.636 246.549 231.636 246.549C230.276 246.984 229.569 247.472 227.836 247.269C225.769 246.971 224.516 245.424 224.516 245.424L227.362 242.745Z" fill="#455A64"/>
<path opacity="0.15" d="M231.631 246.549L231.584 246.545C231.429 246.527 230.971 246.427 230.456 245.879C230.048 245.989 229.635 246.076 229.218 246.139C227.673 246.365 226.513 246.093 224.787 245.172L224.52 245.423C225.205 246.196 226.085 246.772 227.068 247.092C227.128 247.111 227.188 247.128 227.251 247.146C227.309 247.162 227.368 247.176 227.428 247.191L227.443 247.195C227.498 247.208 227.554 247.219 227.61 247.229L227.64 247.236C227.704 247.248 227.771 247.259 227.838 247.268C227.946 247.281 228.051 247.292 228.152 247.299C228.252 247.306 228.349 247.312 228.443 247.314H228.582H228.716C228.848 247.314 228.973 247.304 229.094 247.292C229.174 247.284 229.254 247.274 229.334 247.262C229.519 247.234 229.702 247.195 229.882 247.147C229.952 247.128 230.022 247.108 230.092 247.087C230.265 247.034 230.436 246.974 230.612 246.911L230.826 246.831C231.078 246.738 231.344 246.64 231.642 246.545L231.631 246.549Z" fill="black"/>
<path d="M221.032 240.36C220.262 240.628 219.534 241.094 220.147 242.462C221.032 244.436 225.016 246.628 227.064 247.094C226.024 245.52 226.89 243.852 227.568 242.756L227.39 241.42C227.39 241.42 226.775 241.125 225.757 240.338C224.74 239.551 224.319 239.337 222.803 239.8C221.763 240.113 221.032 240.36 221.032 240.36Z" fill="#0028FA"/>
<path opacity="0.05" d="M224.147 244.821C222.053 243.621 221.394 242.552 220.573 241.525L220.035 242.182C220.05 242.224 220.066 242.268 220.083 242.312V242.319C220.102 242.365 220.121 242.412 220.142 242.461C220.53 243.324 221.51 244.229 222.662 245.014C222.826 245.126 222.994 245.236 223.165 245.342C223.25 245.396 223.336 245.448 223.422 245.502C224.008 245.855 224.615 246.172 225.239 246.453C225.825 246.722 226.434 246.937 227.06 247.093C226.832 246.754 226.68 246.37 226.614 245.968C225.886 245.746 225.106 245.371 224.147 244.821Z" fill="black"/>
<path d="M220.452 240.626C220.452 240.626 217.869 239.245 217.46 239.06L219.718 237.732L219.238 236.487C219.238 236.487 215.878 237.681 215.238 238.024C214.903 238.205 214.758 238.356 214.758 238.613C214.758 239.042 215.167 239.6 215.732 240.082C216.937 241.108 218.571 242.064 220.161 242.94C220.526 243.211 220.906 243.551 220.906 243.551C221.328 243.758 221.936 241.823 220.452 240.626Z" fill="#FFBEB3"/>
<path d="M222.873 235.828C222.793 235.642 222.677 235.474 222.532 235.334C222.387 235.193 222.216 235.082 222.029 235.007C221.841 234.933 221.641 234.896 221.439 234.899C221.237 234.901 221.037 234.944 220.852 235.024C220.666 235.104 220.498 235.219 220.358 235.364C220.217 235.509 220.106 235.68 220.031 235.868C219.957 236.055 219.92 236.256 219.922 236.458C219.925 236.66 219.968 236.859 220.048 237.045C220.059 237.069 220.072 237.094 220.084 237.118L219.693 237.967L219.12 236.904C219.12 236.82 219.089 236.739 219.033 236.677C218.976 236.614 218.899 236.575 218.816 236.566C218.773 236.563 218.731 236.568 218.691 236.581C218.65 236.595 218.613 236.616 218.582 236.644C218.55 236.673 218.524 236.707 218.506 236.745C218.488 236.784 218.478 236.825 218.477 236.868L218.917 236.906C218.821 236.97 218.747 237.063 218.706 237.171C218.601 237.445 218.965 238.002 219.455 238.492C219.455 238.492 220.147 239.469 220.314 239.606C220.422 239.689 220.558 239.726 220.693 239.712L220.735 237.792C221.016 237.944 221.337 238.004 221.654 237.965C221.971 237.925 222.268 237.788 222.503 237.573C222.739 237.357 222.901 237.073 222.968 236.761C223.034 236.449 223.002 236.123 222.876 235.83L222.873 235.828Z" fill="#263238"/>
<path d="M220.03 238.301C219.966 238.389 219.771 238.277 219.616 238.211C219.462 238.145 219.048 238.142 219.032 238.583C219.016 239.024 219.558 239.383 219.869 239.35C220.405 239.295 220.349 238.962 220.349 238.962L221.14 240.702C222.052 241.202 223.748 240.417 222.73 239.923L222.505 239.405C222.7 239.352 222.887 239.278 223.065 239.184C223.385 238.981 223.489 238.613 223.433 238.191C223.342 237.514 223.193 236.999 222.541 235.871C221.821 234.637 220.301 235.276 219.708 236.143C219.116 237.01 220.03 238.301 220.03 238.301Z" fill="#FFBEB3"/>
<path d="M220.092 238.446C220.049 238.465 219.766 238.262 219.612 238.211C219.404 238.139 219.067 236.828 219.067 236.828C219.067 236.828 218.793 236.588 218.943 236.144C219.068 235.783 219.526 235.542 219.843 235.382C220.414 235.093 221.052 234.764 221.333 234.159C221.355 234.112 221.387 234.056 221.439 234.056C221.473 234.059 221.503 234.076 221.525 234.101C221.656 234.249 221.731 234.439 221.735 234.637C221.735 234.656 221.74 234.679 221.758 234.684C221.775 234.69 221.791 234.675 221.801 234.662C221.859 234.591 221.904 234.51 221.931 234.422C221.971 234.303 222.171 234.606 222.187 234.648C222.234 234.779 222.254 234.919 222.247 235.059C222.239 235.199 222.203 235.335 222.142 235.461C222.017 235.711 221.759 235.867 221.525 236.004C221.001 236.309 220.105 236.6 219.98 236.635C219.811 236.682 219.843 236.852 219.939 237.314C220.028 237.72 220.236 238.38 220.092 238.446Z" fill="#263238"/>
<path d="M222.503 239.405C222.503 239.405 221.567 239.603 221.234 239.576C221.039 239.561 220.852 239.488 220.699 239.366C220.808 239.507 220.944 239.624 221.099 239.712C221.406 239.88 222.59 239.611 222.59 239.611L222.503 239.405Z" fill="#EFA49A"/>
<path d="M221.038 236.969L220.757 237.272C220.717 237.233 220.693 237.18 220.692 237.124C220.69 237.069 220.709 237.014 220.747 236.972C220.765 236.952 220.788 236.936 220.813 236.925C220.837 236.914 220.864 236.909 220.892 236.908C220.919 236.908 220.946 236.913 220.971 236.924C220.996 236.934 221.019 236.95 221.038 236.969Z" fill="#263238"/>
<path d="M221.938 238.52L222.35 238.5C222.352 238.527 222.349 238.554 222.341 238.58C222.333 238.606 222.319 238.63 222.302 238.651C222.284 238.672 222.262 238.689 222.238 238.701C222.213 238.713 222.186 238.72 222.159 238.721C222.103 238.723 222.049 238.703 222.008 238.665C221.966 238.627 221.941 238.575 221.938 238.52Z" fill="#EFA49A"/>
<path d="M222.736 236.487L222.336 236.384C222.341 236.357 222.352 236.332 222.367 236.31C222.383 236.287 222.403 236.268 222.426 236.254C222.449 236.24 222.474 236.23 222.501 236.226C222.528 236.222 222.555 236.223 222.582 236.23C222.635 236.245 222.681 236.28 222.71 236.328C222.738 236.376 222.748 236.432 222.736 236.487Z" fill="#263238"/>
<path d="M221.883 237.113L222.156 238.095L222.635 237.804L221.883 237.113Z" fill="#EFA49A"/>
<path d="M221.117 237.553C221.117 237.588 221.127 237.623 221.147 237.653C221.167 237.683 221.195 237.706 221.228 237.72C221.261 237.733 221.297 237.737 221.332 237.73C221.367 237.723 221.399 237.706 221.424 237.681C221.449 237.656 221.467 237.624 221.474 237.589C221.481 237.554 221.477 237.518 221.464 237.485C221.45 237.452 221.427 237.424 221.397 237.404C221.368 237.384 221.333 237.374 221.297 237.374C221.25 237.374 221.204 237.392 221.17 237.426C221.136 237.46 221.117 237.505 221.117 237.553Z" fill="#263238"/>
<path d="M222.418 237.045C222.418 237.08 222.428 237.113 222.447 237.141C222.466 237.17 222.493 237.192 222.525 237.205C222.556 237.218 222.591 237.222 222.624 237.215C222.658 237.208 222.689 237.192 222.713 237.168C222.737 237.143 222.754 237.113 222.76 237.079C222.767 237.046 222.763 237.011 222.75 236.979C222.737 236.948 222.715 236.921 222.687 236.902C222.658 236.883 222.625 236.873 222.591 236.873C222.545 236.873 222.501 236.891 222.469 236.923C222.436 236.956 222.418 237 222.418 237.045Z" fill="#263238"/>
<path d="M237.471 250.553C237.403 250.6 237.508 250.893 237.57 250.964C237.698 251.09 237.856 251.179 238.03 251.224C238.345 251.321 238.639 251.475 238.899 251.678C239.217 251.937 239.588 252.124 239.986 252.225C240.459 252.33 241.003 252.196 241.48 251.914C241.979 251.618 241.933 251.336 241.864 251.146L237.471 250.553Z" fill="#37474F"/>
<path d="M238.552 248.91C238.712 249.081 239.583 249.941 240.251 250.161C240.782 250.335 241.475 250.501 241.777 250.825C242.092 251.163 241.624 251.595 240.977 251.842C240.304 252.101 239.846 251.892 239.399 251.668C239.084 251.508 238.621 251.188 238.388 251.059C238.156 250.93 237.724 250.859 237.544 250.668C237.445 250.563 237.374 250.268 237.331 250.01C237.292 249.77 237.133 249.553 237.214 249.54L237.344 249.683C237.954 249.8 238.588 249.234 238.552 248.91Z" fill="#0028FA"/>
<path d="M217.461 239.06C217.079 239.267 216.666 239.411 216.238 239.487C216.238 239.487 216.917 239.661 217.728 239.19L217.461 239.06Z" fill="#EFA49A"/>
</g>
</g>
<defs>
<clipPath id="clip0_1099_650">
<rect width="292" height="200" fill="white" transform="translate(0 116)"/>
</clipPath>
<clipPath id="clip1_1099_650">
<rect width="292" height="200" fill="white" transform="translate(0 112)"/>
</clipPath>
</defs>
</svg>
