<svg width="292" height="344" viewBox="0 0 292 344" fill="none" xmlns="http://www.w3.org/2000/svg">
<rect width="292" height="344" fill="white"/>
<path d="M58.0641 54.6016H45.6617V49.3867H58.0641V54.6016ZM43.7867 46.5352H50.6422V45.666C49.1057 45.5749 47.9306 45.3177 47.1168 44.8945C46.3095 44.4714 45.9091 43.8919 45.9156 43.1562C45.9091 42.3229 46.4202 41.6947 47.4488 41.2715C48.4775 40.8418 49.9586 40.6237 51.8922 40.6172C53.8323 40.6237 55.3102 40.8418 56.3258 41.2715C57.3479 41.6947 57.8622 42.3229 57.8688 43.1562C57.8622 43.8919 57.4553 44.4714 56.648 44.8945C55.8473 45.3177 54.6786 45.5749 53.1422 45.666V46.5352H59.9977V48.4883H43.7867V46.5352ZM44.568 38.293H50.6422V36.8672H53.1422V38.293H59.1578V40.168H44.568V38.293ZM55.6227 52.7461V51.2422H48.1227V52.7461H55.6227ZM48.5719 43.1562C48.5719 43.4492 48.8421 43.6673 49.3824 43.8105C49.9228 43.9473 50.7594 44.0156 51.8922 44.0156C53.025 44.0156 53.8583 43.9473 54.3922 43.8105C54.926 43.6738 55.193 43.4557 55.193 43.1562C55.193 42.8503 54.9326 42.6322 54.4117 42.502C53.8909 42.3717 53.051 42.3034 51.8922 42.2969C50.7398 42.3034 49.8967 42.3717 49.3629 42.502C48.8355 42.6322 48.5719 42.8503 48.5719 43.1562ZM74.7641 48.1758H62.1859V38.332H74.6273V40.3438H64.725V42.2188H74.2172V44.1719H64.725V46.2031H74.7641V48.1758ZM60.2719 50.6953H76.5414V52.7266H60.2719V50.6953ZM78.8273 57.1211H76.757L77.7336 51.5547H80.507L78.8273 57.1211ZM101.075 49.2109H84.8641V47.2773H91.7195V46.2812C90.1896 46.1771 89.0177 45.8939 88.2039 45.4316C87.3901 44.9694 86.9865 44.3477 86.993 43.5664C86.9865 42.694 87.4943 42.0267 88.5164 41.5645C89.5451 41.1022 91.0099 40.8711 92.9109 40.8711C94.838 40.8711 96.3224 41.1022 97.3641 41.5645C98.4122 42.0202 98.9396 42.6875 98.9461 43.5664C98.9396 44.3477 98.5294 44.9694 97.7156 45.4316C96.9018 45.8939 95.7365 46.1771 94.2195 46.2812V47.2773H101.075V49.2109ZM85.6453 38.4883H91.7195V36.9258H94.2195V38.4883H100.235V40.3633H85.6453V38.4883ZM86.8172 50.0508H89.3172V52.5312H99.2391V54.4844H86.8172V50.0508ZM89.532 43.5664C89.5255 43.9049 89.7957 44.1523 90.3426 44.3086C90.896 44.4583 91.7716 44.5365 92.9695 44.543C94.1544 44.5365 95.0203 44.4583 95.5672 44.3086C96.1206 44.1523 96.394 43.9049 96.3875 43.5664C96.394 43.2344 96.1303 42.9935 95.5965 42.8438C95.0626 42.6875 94.226 42.6094 93.0867 42.6094C91.8432 42.6094 90.9383 42.6842 90.3719 42.834C89.8055 42.9837 89.5255 43.2279 89.532 43.5664ZM107.912 41.8672C107.905 42.7982 108.068 43.7324 108.4 44.6699C108.732 45.6074 109.224 46.4635 109.875 47.2383C110.532 48.013 111.33 48.6185 112.267 49.0547L110.88 51.0078C109.923 50.5651 109.09 49.9238 108.38 49.084C107.671 48.2376 107.108 47.2611 106.691 46.1543C106.281 47.3652 105.708 48.4362 104.972 49.3672C104.243 50.2917 103.38 50.9883 102.384 51.457L100.939 49.4844C101.89 49.0417 102.7 48.4134 103.371 47.5996C104.041 46.7858 104.546 45.8809 104.884 44.8848C105.229 43.8822 105.405 42.8763 105.412 41.8672V40.7734H101.642V38.7422H111.486V40.7734H107.912V41.8672ZM112.873 37.0234H115.373V43.8008H117.99V45.8906H115.373V54.7969H112.873V37.0234ZM124.495 40.0703C124.495 40.8646 124.641 41.623 124.934 42.3457C125.227 43.0684 125.676 43.7161 126.282 44.2891C126.887 44.8555 127.646 45.2917 128.557 45.5977L127.209 47.5508C126.291 47.2122 125.5 46.7305 124.836 46.1055C124.179 45.4805 123.658 44.7448 123.274 43.8984C122.883 44.8555 122.336 45.6823 121.633 46.3789C120.93 47.069 120.074 47.5964 119.065 47.9609L117.717 46.0078C118.674 45.6953 119.468 45.2363 120.1 44.6309C120.738 44.0254 121.207 43.332 121.506 42.5508C121.812 41.763 121.968 40.9297 121.975 40.0508V38.1172H124.495V40.0703ZM120.979 48.7812H123.498V52.4922H133.186V54.4844H120.979V48.7812ZM126.995 40.8125H130.334V37.043H132.815V50.168H130.334V42.8242H126.995V40.8125ZM148.188 39.8164H144.672C144.724 40.4219 144.91 41.0013 145.229 41.5547C145.548 42.1016 146.01 42.5931 146.615 43.0293C147.221 43.4655 147.96 43.8073 148.832 44.0547L147.66 45.9688C146.684 45.7083 145.837 45.3047 145.121 44.7578C144.411 44.2044 143.848 43.5469 143.432 42.7852C143.021 43.6445 142.445 44.3835 141.703 45.002C140.967 45.6139 140.076 46.0664 139.027 46.3594L137.816 44.4258C138.715 44.1654 139.477 43.8008 140.102 43.332C140.727 42.8568 141.205 42.3164 141.537 41.7109C141.869 41.1055 142.061 40.474 142.113 39.8164H138.5V37.8633H148.188V39.8164ZM140.434 46.8281H152.23V51.5156H142.914V52.7266H152.738V54.6211H140.473V49.7578H149.75V48.7031H140.434V46.8281ZM149.73 37.0234H152.23V40.5391H154.633V42.5312H152.23V46.1445H149.73V37.0234ZM172.525 42.1211H174.927V44.1914H172.525V49.9727H170.025V37.0234H172.525V42.1211ZM158.541 42.6875C158.541 41.8216 158.755 41.0469 159.185 40.3633C159.615 39.6732 160.201 39.1361 160.943 38.752C161.692 38.3678 162.518 38.1758 163.423 38.1758C164.322 38.1758 165.139 38.3678 165.875 38.752C166.617 39.1361 167.199 39.6732 167.623 40.3633C168.052 41.0469 168.267 41.8216 168.267 42.6875C168.267 43.5404 168.052 44.3118 167.623 45.002C167.199 45.6855 166.617 46.2227 165.875 46.6133C165.139 47.0039 164.322 47.1992 163.423 47.1992C162.518 47.1992 161.692 47.0039 160.943 46.6133C160.201 46.2227 159.615 45.6855 159.185 45.002C158.755 44.3118 158.541 43.5404 158.541 42.6875ZM161.002 48.6055H163.482V52.4922H173.17V54.4844H161.002V48.6055ZM161.002 42.6875C160.995 43.1562 161.096 43.5697 161.304 43.9277C161.519 44.2793 161.812 44.5527 162.183 44.748C162.554 44.9368 162.968 45.0312 163.423 45.0312C163.879 45.0312 164.289 44.9368 164.654 44.748C165.025 44.5527 165.315 44.2793 165.523 43.9277C165.738 43.5697 165.845 43.1562 165.845 42.6875C165.845 42.2057 165.738 41.7891 165.523 41.4375C165.315 41.0794 165.025 40.806 164.654 40.6172C164.289 40.4284 163.879 40.3372 163.423 40.3438C162.968 40.3372 162.554 40.4284 162.183 40.6172C161.812 40.806 161.519 41.0794 161.304 41.4375C161.096 41.7891 160.995 42.2057 161.002 42.6875ZM192.741 43.9766H195.359V46.0273H192.741V54.7969H190.28V37.0234H192.741V43.9766ZM178.62 39.6797H182.644V37.2969H185.144V39.6797H189.07V41.6719H178.62V39.6797ZM179.343 46.9062C179.343 46.0924 179.538 45.3633 179.929 44.7188C180.32 44.0742 180.86 43.5729 181.55 43.2148C182.247 42.8503 183.028 42.668 183.894 42.668C184.747 42.668 185.518 42.8503 186.208 43.2148C186.898 43.5729 187.439 44.0742 187.829 44.7188C188.226 45.3633 188.425 46.0924 188.425 46.9062C188.425 47.7201 188.226 48.4492 187.829 49.0938C187.439 49.7318 186.898 50.2331 186.208 50.5977C185.518 50.9622 184.747 51.1445 183.894 51.1445C183.028 51.1445 182.247 50.9622 181.55 50.5977C180.86 50.2331 180.32 49.7318 179.929 49.0938C179.538 48.4492 179.343 47.7201 179.343 46.9062ZM181.726 46.9062C181.726 47.3555 181.817 47.7461 181.999 48.0781C182.188 48.4102 182.445 48.6641 182.771 48.8398C183.096 49.0156 183.471 49.1003 183.894 49.0938C184.31 49.1003 184.681 49.0156 185.007 48.8398C185.333 48.6641 185.586 48.4102 185.769 48.0781C185.951 47.7461 186.042 47.3555 186.042 46.9062C186.042 46.457 185.951 46.0664 185.769 45.7344C185.586 45.4023 185.333 45.1452 185.007 44.9629C184.681 44.7806 184.31 44.6862 183.894 44.6797C183.471 44.6862 183.096 44.7806 182.771 44.9629C182.445 45.1452 182.188 45.4023 181.999 45.7344C181.817 46.0664 181.726 46.457 181.726 46.9062ZM210.613 54.7969H208.27V37.0234H210.613V54.7969ZM194.988 49.3477C196.753 48.2995 198.068 47.1146 198.934 45.793C199.806 44.4714 200.33 42.9219 200.506 41.1445H195.965V39.1328H202.977C202.977 40.8971 202.771 42.4792 202.361 43.8789H204.5V37.4141H206.824V54.0156H204.5V45.8516H201.59C201.069 46.8932 200.382 47.8503 199.529 48.7227C198.676 49.5951 197.632 50.3893 196.395 51.1055L194.988 49.3477ZM226.084 46.2422H222.627V49.1621C224.183 49.097 225.621 48.9961 226.943 48.8594L227.138 50.6758C225.413 50.9427 223.658 51.1152 221.875 51.1934C220.097 51.265 218.095 51.3008 215.869 51.3008L215.576 49.2695L217.031 49.2793C218.151 49.2793 219.183 49.2663 220.127 49.2402V46.2422H216.748V38.6055H225.986V40.5781H219.228V44.25H226.084V46.2422ZM227.959 37.0234H230.439V54.8359H227.959V37.0234ZM235.166 48.4004C236.045 48.3874 236.866 48.3451 237.627 48.2734C238.396 48.1953 239.177 48.0716 239.971 47.9023L240.303 49.9922C239.333 50.207 238.379 50.3535 237.442 50.4316C236.511 50.5033 235.45 50.5391 234.258 50.5391H233.916H232.666V38.7227H235.166V48.4004ZM237.666 42.6484H241.221V37.3555H243.584V54.0156H241.221V44.6602H237.666V42.6484ZM245.049 37.0234H247.393V54.7969H245.049V37.0234ZM83.5934 68.7148H85.9957V70.7461H83.5934V74.3594H81.0934V65.0234H83.5934V68.7148ZM69.4137 72.6797C71.51 72.3346 73.0921 71.7682 74.1598 70.9805C75.2275 70.1862 75.8297 69.2552 75.9664 68.1875H70.2926V66.2344H78.7691C78.7626 70.8177 75.9957 73.6302 70.4684 74.6719L69.4137 72.6797ZM71.8746 75.0234H83.652V76.8594H74.3746V77.9141H83.4762V79.6914H74.3746V80.7656H84.0426V82.6016H71.8746V75.0234ZM100.86 82.8359H98.3402V65.0234H100.86V82.8359ZM86.5043 72.6016C86.5043 71.332 86.7029 70.2188 87.1 69.2617C87.5036 68.3047 88.0603 67.569 88.7699 67.0547C89.4861 66.5339 90.2999 66.2734 91.2113 66.2734C92.1033 66.2734 92.9008 66.5339 93.6039 67.0547C94.3135 67.569 94.8702 68.3047 95.2738 69.2617C95.6775 70.2188 95.8793 71.332 95.8793 72.6016C95.8793 73.8776 95.6775 74.9974 95.2738 75.9609C94.8702 76.918 94.3135 77.6569 93.6039 78.1777C92.9008 78.6921 92.1033 78.9492 91.2113 78.9492C90.2999 78.9492 89.4861 78.6921 88.7699 78.1777C88.0603 77.6569 87.5036 76.918 87.1 75.9609C86.7029 74.9974 86.5043 73.8776 86.5043 72.6016ZM88.9066 72.6016C88.9066 73.4674 89.001 74.2096 89.1898 74.8281C89.3786 75.4401 89.6456 75.9056 89.9906 76.2246C90.3422 76.5371 90.7491 76.6901 91.2113 76.6836C91.6605 76.6901 92.0544 76.5371 92.393 76.2246C92.738 75.9056 93.005 75.4401 93.1938 74.8281C93.3826 74.2096 93.477 73.4674 93.477 72.6016C93.477 71.7357 93.3826 70.9967 93.1938 70.3848C93.005 69.7728 92.738 69.3105 92.393 68.998C92.0544 68.679 91.6605 68.5195 91.2113 68.5195C90.7491 68.5195 90.3422 68.679 89.9906 68.998C89.6456 69.3105 89.3786 69.7728 89.1898 70.3848C89.001 70.9967 88.9066 71.7357 88.9066 72.6016ZM120.373 68.8516H122.775V70.8438H120.373V74.6133H117.873V64.9844H120.373V68.8516ZM106.271 66.3516H110.314V64.9062H112.795V66.3516H116.818V68.2461H106.271V66.3516ZM107.131 71.5859C107.131 71 107.313 70.4889 107.678 70.0527C108.049 69.6165 108.566 69.278 109.23 69.0371C109.895 68.7962 110.666 68.6758 111.545 68.6758C112.43 68.6758 113.202 68.7962 113.859 69.0371C114.517 69.278 115.025 69.6165 115.383 70.0527C115.741 70.4889 115.92 71 115.92 71.5859C115.92 72.1849 115.741 72.7025 115.383 73.1387C115.025 73.5749 114.517 73.9102 113.859 74.1445C113.202 74.3789 112.43 74.4961 111.545 74.4961C110.666 74.4961 109.891 74.3789 109.221 74.1445C108.557 73.9102 108.042 73.5749 107.678 73.1387C107.313 72.7025 107.131 72.1849 107.131 71.5859ZM108.576 75.3359H120.373V79.8281H111.057V80.8438H120.881V82.6797H108.615V78.1289H117.893V77.1328H108.576V75.3359ZM109.572 71.5859C109.566 71.957 109.735 72.237 110.08 72.4258C110.425 72.6146 110.913 72.7122 111.545 72.7188C112.183 72.7122 112.678 72.6146 113.029 72.4258C113.381 72.237 113.557 71.957 113.557 71.5859C113.557 71.2214 113.381 70.9382 113.029 70.7363C112.684 70.5345 112.202 70.4336 111.584 70.4336C110.946 70.4336 110.448 70.5312 110.09 70.7266C109.738 70.9219 109.566 71.2083 109.572 71.5859ZM133.109 69.0469C133.102 70.1341 133.255 71.1888 133.568 72.2109C133.88 73.2266 134.352 74.138 134.984 74.9453C135.615 75.7526 136.39 76.3776 137.308 76.8203L135.804 78.8125C134.88 78.3503 134.089 77.7057 133.431 76.8789C132.774 76.0456 132.256 75.0755 131.879 73.9688C131.475 75.1602 130.925 76.2018 130.228 77.0938C129.532 77.9792 128.695 78.6628 127.718 79.1445L126.175 77.1328C127.145 76.6901 127.963 76.0488 128.627 75.209C129.291 74.3626 129.785 73.4089 130.111 72.3477C130.443 71.2799 130.609 70.1797 130.609 69.0469V66.3906H133.109V69.0469ZM138.089 65.0234H140.589V71.8789H143.207V73.9883H140.589V82.7969H138.089V65.0234ZM157.153 69.2422H159.555V71.3125H157.153V75.5898H154.653V65.043H157.153V69.2422ZM143.676 65.9023H151.84V71.3125H146.176V72.9141C147.758 72.901 149.083 72.862 150.151 72.7969C151.218 72.7253 152.289 72.5951 153.364 72.4062L153.637 74.3594C152.433 74.5938 151.212 74.75 149.975 74.8281C148.738 74.9062 147.146 74.9453 145.2 74.9453H143.696V69.4375H149.418V67.8945H143.676V65.9023ZM145.512 76.332H157.153V82.6016H145.512V76.332ZM154.711 80.6094V78.2852H147.954V80.6094H154.711ZM167.623 77.1914H169.537V75.4141H171.842V80.8145C172.779 80.3848 173.482 79.7988 173.951 79.0566C174.42 78.3079 174.654 77.5039 174.654 76.6445V75.2773H177.154V76.6445C177.148 77.6211 177.395 78.4902 177.896 79.252C178.404 80.0072 179.186 80.5573 180.24 80.9023L178.951 82.7578C177.506 82.263 176.477 81.3223 175.865 79.9355C175.559 80.5801 175.156 81.1432 174.654 81.625C174.153 82.1133 173.554 82.4909 172.857 82.7578L171.842 81.2246V82.6016H165.318V75.4141H167.623V77.1914ZM163.58 69.8672C163.574 69.0664 163.772 68.3503 164.176 67.7188C164.586 67.0807 165.149 66.5827 165.865 66.2246C166.588 65.8665 167.402 65.6875 168.307 65.6875C169.049 65.6875 169.736 65.821 170.367 66.0879C171.005 66.3483 171.539 66.7161 171.969 67.1914C172.398 67.6602 172.695 68.207 172.857 68.832H175.846V65.0234H178.326V74.4375H175.846V70.8828H172.867C172.711 71.5208 172.415 72.0807 171.979 72.5625C171.549 73.0443 171.015 73.4186 170.377 73.6855C169.745 73.9525 169.055 74.0859 168.307 74.0859C167.402 74.0859 166.588 73.9069 165.865 73.5488C165.149 73.1908 164.586 72.6927 164.176 72.0547C163.772 71.4102 163.574 70.681 163.58 69.8672ZM165.943 69.8672C165.943 70.3099 166.041 70.6973 166.236 71.0293C166.432 71.3548 166.708 71.6087 167.066 71.791C167.431 71.9668 167.844 72.0547 168.307 72.0547C168.756 72.0547 169.156 71.9668 169.508 71.791C169.859 71.6087 170.133 71.3548 170.328 71.0293C170.53 70.6973 170.631 70.3099 170.631 69.8672C170.631 69.4375 170.53 69.0632 170.328 68.7441C170.133 68.4251 169.859 68.1777 169.508 68.002C169.156 67.8262 168.756 67.7383 168.307 67.7383C167.844 67.7383 167.434 67.8262 167.076 68.002C166.718 68.1777 166.438 68.4251 166.236 68.7441C166.041 69.0632 165.943 69.4375 165.943 69.8672ZM169.537 80.707V79.0273H167.623V80.707H169.537ZM187.936 65.2773C189.297 65.2773 190.459 65.3945 191.423 65.6289C192.393 65.8633 193.132 66.2083 193.639 66.6641C194.147 67.1133 194.401 67.6602 194.401 68.3047C194.401 68.9622 194.147 69.5189 193.639 69.9746C193.132 70.4238 192.396 70.7656 191.432 71C190.469 71.2344 189.304 71.3516 187.936 71.3516C186.569 71.3516 185.401 71.2344 184.43 71C183.46 70.7656 182.721 70.4238 182.214 69.9746C181.706 69.5189 181.452 68.9622 181.452 68.3047C181.452 67.6602 181.706 67.1133 182.214 66.6641C182.721 66.2083 183.46 65.8633 184.43 65.6289C185.401 65.3945 186.569 65.2773 187.936 65.2773ZM179.831 72.1914H196.042V74.1641H179.831V72.1914ZM181.706 75.1992H194.069V79.7305H184.167V80.8047H194.538V82.6797H181.725V77.9922H191.608V77.0156H181.706V75.1992ZM184.069 68.3047C184.063 68.7344 184.372 69.0436 184.997 69.2324C185.628 69.4212 186.608 69.5156 187.936 69.5156C189.271 69.5156 190.251 69.4212 190.876 69.2324C191.507 69.0436 191.823 68.7344 191.823 68.3047C191.823 67.4974 190.527 67.0938 187.936 67.0938C186.641 67.0938 185.671 67.1979 185.026 67.4062C184.382 67.6081 184.063 67.9076 184.069 68.3047ZM210.554 71.9961H212.918V74.0469H210.554V82.7969H208.054V65.0234H210.554V71.9961ZM195.964 77.6406C196.752 76.7878 197.377 75.9154 197.839 75.0234C198.302 74.1315 198.637 73.1973 198.845 72.2207C199.06 71.2376 199.194 70.1211 199.246 68.8711H196.746V66.8398H201.629C201.622 68.6562 201.524 70.2448 201.336 71.6055C201.147 72.9596 200.782 74.2552 200.242 75.4922C199.708 76.7292 198.933 77.9076 197.918 79.0273L195.964 77.6406ZM200.984 78.793C201.765 77.8359 202.38 76.8464 202.83 75.8242C203.285 74.8021 203.614 73.7376 203.816 72.6309C204.024 71.5176 204.151 70.2643 204.197 68.8711H202.214V66.8398H206.55C206.544 68.7669 206.453 70.4727 206.277 71.957C206.108 73.4349 205.759 74.8704 205.232 76.2637C204.711 77.6504 203.953 78.9557 202.957 80.1797L200.984 78.793ZM215.907 76.5469C215.907 75.7656 215.975 75.1341 216.112 74.6523C216.255 74.1641 216.454 73.7767 216.707 73.4902C216.961 73.1973 217.306 72.9141 217.743 72.6406C218.218 72.3281 218.586 72.0124 218.846 71.6934C219.107 71.3743 219.233 71.0065 219.227 70.5898C219.227 70.2708 219.152 69.9909 219.002 69.75C218.853 69.5026 218.648 69.3138 218.387 69.1836C218.133 69.0469 217.847 68.9753 217.528 68.9688C217.215 68.9753 216.926 69.0469 216.659 69.1836C216.392 69.3203 216.174 69.5221 216.004 69.7891C215.835 70.0495 215.744 70.362 215.731 70.7266H212.957C212.97 69.8411 213.182 69.0957 213.592 68.4902C214.002 67.8783 214.549 67.4225 215.233 67.123C215.923 66.8171 216.694 66.6641 217.547 66.6641C218.459 66.6641 219.263 66.8171 219.959 67.123C220.663 67.429 221.209 67.8717 221.6 68.4512C221.997 69.0241 222.196 69.7044 222.196 70.4922C222.196 71.2604 222.013 71.918 221.649 72.4648C221.291 73.0052 220.77 73.4805 220.086 73.8906C219.702 74.1185 219.396 74.3496 219.168 74.584C218.941 74.8184 218.768 75.0918 218.651 75.4043C218.54 75.7168 218.485 76.0977 218.485 76.5469V76.7617H215.907V76.5469ZM215.614 79.5352C215.607 79.2422 215.676 78.972 215.819 78.7246C215.968 78.4707 216.17 78.2721 216.424 78.1289C216.678 77.9857 216.955 77.9141 217.254 77.9141C217.541 77.9141 217.808 77.9857 218.055 78.1289C218.302 78.2721 218.501 78.4707 218.651 78.7246C218.801 78.972 218.875 79.2422 218.875 79.5352C218.875 79.8346 218.801 80.1113 218.651 80.3652C218.501 80.6126 218.302 80.8112 218.055 80.9609C217.808 81.1042 217.541 81.1758 217.254 81.1758C216.955 81.1758 216.678 81.1042 216.424 80.9609C216.17 80.8112 215.968 80.6126 215.819 80.3652C215.676 80.1113 215.607 79.8346 215.614 79.5352Z" fill="black"/>
<g clip-path="url(#clip0_1099_129)">
<rect width="292" height="200" transform="translate(0 116)" fill="white"/>
<path d="M88.4563 261.384H226.68C233.754 257.241 240.298 250.851 244.794 245.076C253.209 234.276 255.391 217.933 250.225 204.446C245.058 190.959 232.768 180.937 219.647 179.52C211.355 178.625 203.053 180.915 194.765 179.848C186.551 178.79 178.915 174.513 171.367 170.577C154.33 161.695 136.44 154.135 117.856 152.196C99.2725 150.256 79.8079 154.433 65.4959 167.048C51.1838 179.662 43.1333 201.543 48.3269 221.432C53.5205 241.322 70.443 255.439 88.4563 261.384Z" fill="#F2F2F2"/>
<path d="M84.0042 258.689C80.0816 255.799 75.1698 255.151 70.5474 253.971C63.6354 252.213 57.0517 249.124 50.1354 247.37C43.2191 245.616 35.6029 245.323 29.3389 248.943C23.0749 252.563 18.8629 261.013 21.3987 268.18C17.8045 269.744 15.1995 273.671 14.9922 277.848L89.4474 277.209C91.7067 270.672 89.3437 262.624 84.0042 258.689Z" fill="#F5F5F5"/>
<path d="M55.6265 268.218C55.3991 268.098 55.1811 267.961 54.9741 267.808L54.6329 267.583L54.2009 267.342C53.8985 267.169 53.5529 266.97 53.1511 266.789L52.529 266.486L51.8378 266.205C51.3626 265.994 50.8313 265.838 50.2826 265.639C49.0746 265.276 47.8454 264.988 46.602 264.775C45.3559 264.568 44.1 264.424 42.8393 264.343C41.6729 264.296 40.6231 264.283 39.7418 264.343C39.3098 264.343 38.9037 264.382 38.5538 264.413C38.2039 264.443 37.9015 264.46 37.6596 264.495C37.4049 264.532 37.148 264.552 36.8906 264.555C37.138 264.485 37.3909 264.436 37.6466 264.408C37.8929 264.361 38.1909 264.326 38.5409 264.287C38.8908 264.248 39.2925 264.21 39.7332 264.184C40.7702 264.12 41.8098 264.11 42.8479 264.153C44.1189 264.215 45.3853 264.349 46.6409 264.555C47.8955 264.773 49.1339 265.076 50.3474 265.462C50.9004 265.665 51.4317 265.83 51.9069 266.05L52.6025 266.348L53.2245 266.663C53.5839 266.838 53.9317 267.036 54.2657 267.255L54.6977 267.51L55.0303 267.756C55.2398 267.896 55.439 268.05 55.6265 268.218Z" fill="#263238"/>
<path d="M55.3959 250.709C52.7921 249.069 50.9017 246.507 50.1012 243.536C49.3006 240.564 49.6486 237.4 51.0759 234.673L51.3696 234.108C54.8947 228.237 61.8499 227.947 67.6258 231.628L91.2951 245.404L89.4461 262.088L78.6461 256.356C78.6461 256.356 74.6933 261.708 68.8311 258.732C66.0058 257.306 60.4157 253.88 55.3959 250.709Z" fill="#FFBEB3"/>
<path d="M78.6094 256.407C80.0256 253.703 80.6358 250.649 80.3676 247.607C80.3676 247.607 83.6206 251.595 80.0566 257.111L78.6094 256.407Z" fill="#EFA49A"/>
<path d="M60.4351 251.47C60.6513 251.585 60.9039 251.612 61.1395 251.544C61.375 251.476 61.5749 251.32 61.6966 251.107C61.76 251.005 61.8025 250.892 61.8216 250.774C61.8408 250.656 61.8361 250.535 61.8079 250.419C61.7798 250.303 61.7287 250.193 61.6576 250.097C61.5866 250.001 61.497 249.919 61.3942 249.858C61.178 249.743 60.9253 249.716 60.6898 249.784C60.4543 249.852 60.2544 250.008 60.1327 250.221C60.0693 250.323 60.0268 250.436 60.0076 250.554C59.9885 250.672 59.9932 250.793 60.0213 250.909C60.0495 251.025 60.1006 251.135 60.1717 251.231C60.2427 251.327 60.3323 251.408 60.4351 251.47Z" fill="#263238"/>
<path d="M58.6445 250.83C58.8043 250.787 58.6704 249.91 59.1413 249.016C59.6121 248.122 60.4027 247.72 60.3422 247.547C60.3163 247.474 60.0657 247.478 59.7115 247.655C59.2398 247.901 58.8563 248.288 58.6142 248.761C58.3684 249.226 58.2776 249.757 58.355 250.278C58.4198 250.662 58.5667 250.856 58.6445 250.83Z" fill="#263238"/>
<path d="M64.9898 243.564C65.2053 243.679 65.4573 243.706 65.6922 243.638C65.927 243.57 66.1261 243.414 66.2469 243.201C66.3104 243.1 66.3529 242.987 66.372 242.869C66.3911 242.75 66.3865 242.63 66.3583 242.513C66.3301 242.397 66.279 242.288 66.208 242.191C66.1369 242.095 66.0474 242.014 65.9445 241.953C65.729 241.837 65.477 241.811 65.2422 241.879C65.0074 241.946 64.8083 242.103 64.6874 242.316C64.624 242.417 64.5815 242.53 64.5623 242.648C64.5432 242.766 64.5479 242.887 64.576 243.003C64.6042 243.12 64.6553 243.229 64.7264 243.326C64.7974 243.422 64.887 243.503 64.9898 243.564Z" fill="#263238"/>
<path d="M63.2734 242.061C63.4332 242.013 63.2993 241.14 63.7701 240.246C64.241 239.352 65.0316 238.95 64.9711 238.777C64.9452 238.704 64.699 238.704 64.3404 238.885C63.8687 239.131 63.4852 239.518 63.2431 239.991C62.9973 240.455 62.9065 240.985 62.9839 241.503C63.0574 241.888 63.1956 242.087 63.2734 242.061Z" fill="#263238"/>
<path d="M68.6078 248.956C68.556 248.925 68.1758 249.431 67.584 250.252C67.4414 250.468 67.2816 250.658 67.1045 250.615C66.9273 250.571 66.7157 250.36 66.5083 250.109L65.1216 248.524C63.1344 246.29 61.4539 244.545 61.3632 244.636C61.2725 244.726 62.8104 246.593 64.7976 248.826L66.2102 250.425C66.4122 250.71 66.7067 250.918 67.044 251.012C67.1421 251.02 67.2408 251.006 67.3328 250.971C67.4248 250.936 67.5077 250.881 67.5754 250.809C67.6755 250.7 67.7625 250.58 67.8345 250.45C68.1542 249.987 68.414 249.485 68.6078 248.956Z" fill="#263238"/>
<path d="M63.424 237.019C63.1778 236.876 62.586 237.58 61.696 238.185C60.8061 238.79 59.9464 239.122 60.0026 239.403C60.0372 239.533 60.318 239.624 60.7543 239.589C61.3116 239.535 61.8448 239.335 62.3009 239.01C62.7603 238.701 63.1287 238.274 63.3679 237.775C63.5364 237.386 63.5407 237.092 63.424 237.019Z" fill="#263238"/>
<path d="M57.0088 245.513C56.7496 245.677 56.8576 246.489 56.715 247.426C56.5725 248.364 56.283 249.129 56.4904 249.349C56.5941 249.444 56.8403 249.349 57.1125 249.046C57.45 248.615 57.6677 248.102 57.7436 247.56C57.8195 247.018 57.7508 246.465 57.5445 245.958C57.3501 245.59 57.1341 245.444 57.0088 245.513Z" fill="#263238"/>
<path d="M49.1761 250.183C48.9322 249.999 48.7641 249.732 48.7036 249.433C48.6431 249.133 48.6944 248.822 48.8478 248.558C48.6172 248.812 48.34 249.018 48.0313 249.167C47.8759 249.239 47.7034 249.265 47.5337 249.243C47.364 249.221 47.204 249.151 47.0723 249.042C46.6921 248.666 46.8822 248.035 46.9815 247.508C47.105 246.817 47.0099 246.104 46.7094 245.469C46.2774 244.558 45.4609 243.893 44.9339 243.033C44.5926 242.475 44.3812 241.847 44.3152 241.196C44.2492 240.545 44.3304 239.887 44.5527 239.272C44.775 238.656 45.1327 238.099 45.5995 237.64C46.0663 237.181 46.6301 236.833 47.2494 236.622C47.0058 235.941 46.9283 235.213 47.0233 234.496C47.1183 233.779 47.383 233.096 47.7954 232.502C48.2078 231.908 48.756 231.422 49.3944 231.083C50.0328 230.744 50.7429 230.562 51.4657 230.552C51.5251 229.604 51.838 228.69 52.3717 227.904C52.9055 227.118 53.6405 226.49 54.4999 226.085C55.3594 225.68 56.3117 225.513 57.2576 225.602C58.2034 225.692 59.1079 226.033 59.8767 226.591L60.3087 231.369C60.0149 231.262 59.7019 231.22 59.3903 231.243C59.0787 231.266 58.7755 231.355 58.5008 231.504C58.2261 231.653 57.9861 231.859 57.7966 232.107C57.6071 232.356 57.4724 232.641 57.4014 232.946C57.1767 234.211 58.1142 235.538 57.6347 236.743C57.2631 237.672 56.1961 238.095 55.5395 238.851C54.7403 239.763 54.615 241.085 54.6755 242.307C54.7359 243.53 54.9649 244.748 54.7143 245.936C54.3466 247.323 53.5479 248.557 52.4334 249.461C52.001 249.885 51.4844 250.213 50.9171 250.424C50.6287 250.527 50.3201 250.558 50.0171 250.516C49.7141 250.474 49.4257 250.359 49.1761 250.183Z" fill="#263238"/>
<path d="M58.2787 231.157L49.9282 247.936C49.0952 246.779 48.5664 245.432 48.3903 244.018C47.8557 240.984 48.291 237.86 49.6344 235.088C51.0082 232.358 57.1987 228.582 60.0931 227.602C62.4087 226.82 63.696 227.506 63.696 227.506C65.977 228.37 67.7871 230.876 69.649 232.466C70.608 233.287 73.6536 235.49 73.6536 235.49C73.1741 236.401 72.2669 236.354 71.4375 235.745L67.9815 233.71C67.9815 233.71 64.1367 235.658 60.8707 232.06C60.6677 231.658 59.4581 230.379 58.2787 231.157Z" fill="#263238"/>
<path d="M67.8638 233.334C65.3063 231.018 62.4983 228.664 59.0898 228.12C59.1633 227.951 59.2367 227.778 59.3145 227.61L59.5694 227.476C59.6432 226.924 59.891 226.409 60.2768 226.007C60.6627 225.605 61.1666 225.337 61.7154 225.241C62.2642 225.144 62.8294 225.225 63.329 225.472C63.8287 225.719 64.2368 226.118 64.4942 226.612C64.7327 226.109 65.1483 225.711 65.6616 225.495C66.1749 225.279 66.7497 225.26 67.2762 225.441C67.9706 225.779 68.5592 226.301 68.9783 226.949C69.3945 227.596 69.9512 228.141 70.607 228.543C71.2938 228.884 72.2572 228.811 72.6762 228.167C72.9478 228.5 73.0961 228.917 73.0961 229.347C73.0961 229.776 72.9478 230.193 72.6762 230.526C73.3776 230.579 74.0794 230.429 74.698 230.094C74.9097 231.558 73.9161 232.937 72.7497 233.844C72.0928 234.438 71.2379 234.766 70.3521 234.764C69.3758 234.677 68.5852 234.008 67.8638 233.334Z" fill="#263238"/>
<path d="M71.4727 234.764C71.4727 234.643 72.3842 230.146 76.2981 232.354C80.212 234.561 77.188 238.039 77.0714 237.97C76.9547 237.901 71.4727 234.764 71.4727 234.764Z" fill="#FFBEB3"/>
<path d="M76.0767 236.298C76.0767 236.276 76.1631 236.259 76.284 236.173C76.4439 236.048 76.5504 235.867 76.5821 235.667C76.6599 235.17 76.202 234.449 75.5064 234.034C75.1765 233.834 74.8061 233.71 74.4221 233.671C74.279 233.64 74.1304 233.643 73.9889 233.682C73.8475 233.72 73.7175 233.792 73.6099 233.892C73.5449 233.958 73.5053 234.045 73.4982 234.137C73.491 234.23 73.5169 234.322 73.5711 234.397C73.6488 234.514 73.7395 234.531 73.7352 234.557C73.7309 234.583 73.6229 234.604 73.4804 234.479C73.3961 234.403 73.3398 234.301 73.3205 234.19C73.3028 234.037 73.3429 233.883 73.4328 233.758C73.5562 233.616 73.7137 233.507 73.8906 233.443C74.0675 233.379 74.2579 233.361 74.4437 233.39C74.8757 233.415 75.2954 233.544 75.6663 233.766C76.4439 234.237 76.9623 235.062 76.7981 235.719C76.7676 235.841 76.7108 235.955 76.6317 236.052C76.5526 236.15 76.4531 236.23 76.3402 236.285C76.176 236.345 76.0767 236.315 76.0767 236.298Z" fill="#EFA49A"/>
<path d="M70.1869 228.941C70.1869 228.941 70.0918 228.755 69.7549 228.638C69.5152 228.569 69.2632 228.555 69.0173 228.596C68.7714 228.637 68.5378 228.733 68.3336 228.876C67.7761 229.32 67.3158 229.875 66.9814 230.505C66.5753 231.144 66.0051 231.822 65.1454 231.883C64.3307 231.898 63.5337 231.644 62.8774 231.161C62.2467 230.729 61.7197 230.254 61.2358 229.904C60.2725 229.17 59.5078 229.04 59.5078 229.083C60.0754 229.361 60.6101 229.702 61.1019 230.098C61.5598 230.466 62.0566 230.962 62.7133 231.429C63.426 231.971 64.302 232.254 65.1973 232.233C65.6786 232.19 66.1334 231.993 66.4933 231.671C66.8025 231.379 67.0687 231.044 67.2838 230.677C67.5857 230.071 68.0007 229.529 68.5064 229.079C68.6818 228.945 68.8826 228.849 69.0965 228.795C69.3104 228.742 69.5329 228.733 69.7505 228.768C69.8991 228.817 70.0447 228.875 70.1869 228.941Z" fill="#455A64"/>
<path d="M68.906 227.096C68.906 227.096 68.8326 226.954 68.5993 226.794C68.2625 226.578 67.8673 226.471 67.4675 226.487C67.1864 226.496 66.9101 226.562 66.6553 226.681C66.3708 226.827 66.1194 227.03 65.9166 227.278C65.7266 227.523 65.4921 227.732 65.2254 227.891C65.0826 227.948 64.929 227.972 64.7757 227.961C64.6225 227.951 64.4735 227.906 64.3398 227.831C64.0244 227.692 63.7264 227.489 63.398 227.338C63.0899 227.189 62.767 227.074 62.4347 226.992C61.8714 226.844 61.2858 226.8 60.7067 226.863C60.5013 226.874 60.3018 226.936 60.1261 227.043C59.9505 227.15 59.8041 227.299 59.7001 227.476C59.5705 227.744 59.6353 227.908 59.6526 227.908C59.6699 227.908 59.6742 227.748 59.8168 227.545C59.9256 227.407 60.065 227.297 60.2239 227.222C60.3828 227.147 60.5569 227.11 60.7326 227.113C61.2781 227.092 61.8235 227.157 62.3483 227.308C62.6574 227.394 62.9581 227.509 63.2468 227.649C63.5449 227.792 63.8344 227.995 64.1929 228.155C64.3725 228.25 64.5713 228.305 64.7746 228.313C64.9779 228.322 65.1806 228.286 65.368 228.206C65.6743 228.024 65.9415 227.784 66.1542 227.498C66.3076 227.284 66.5049 227.106 66.7329 226.975C66.9609 226.844 67.2143 226.763 67.4761 226.738C67.9776 226.715 68.4747 226.839 68.906 227.096Z" fill="#455A64"/>
<path d="M46.7124 245.474C46.7124 245.499 47.0839 245.275 47.0925 244.61C47.0782 244.234 46.9839 243.866 46.8161 243.53C46.6078 243.11 46.4831 242.653 46.4489 242.186C46.4152 241.585 46.5569 240.988 46.8568 240.466C47.1567 239.945 47.6019 239.521 48.138 239.248C48.7471 238.924 49.4642 238.734 50.1727 238.358C50.5461 238.172 50.8748 237.907 51.1361 237.581C51.3824 237.225 51.5313 236.811 51.5681 236.38C51.6631 235.516 51.4989 234.734 51.5681 233.995C51.6326 233.279 51.8319 232.581 52.1556 231.939C52.7012 230.834 53.5975 229.941 54.7044 229.399C55.4538 229.035 56.2697 228.827 57.102 228.79C57.6895 228.79 58.0221 228.816 58.0265 228.79C58.0308 228.764 57.9444 228.755 57.7889 228.725C57.5604 228.686 57.3294 228.663 57.0977 228.656C56.2366 228.645 55.3838 228.825 54.6007 229.183C53.4194 229.717 52.4561 230.64 51.8705 231.796C51.5178 232.468 51.2992 233.201 51.2268 233.956C51.1404 234.751 51.3002 235.559 51.2268 236.328C51.1936 236.702 51.0608 237.06 50.8423 237.365C50.6062 237.652 50.3117 237.887 49.9783 238.052C49.326 238.402 48.6002 238.605 47.9565 238.955C47.3285 239.276 46.8221 239.793 46.5137 240.428C46.2568 240.987 46.1525 241.604 46.2113 242.216C46.2608 242.71 46.4077 243.188 46.6433 243.625C46.8151 243.932 46.9224 244.272 46.9586 244.622C46.9791 244.926 46.8919 245.228 46.7124 245.474Z" fill="#455A64"/>
<path d="M72.9809 248.002C73.2095 248.05 71.3188 249.211 70.8943 250.593C70.4698 251.974 71.683 253.047 71.4544 252.998C71.2258 252.95 69.6535 251.789 70.0698 250.414C70.4861 249.039 72.7442 247.953 72.9809 248.002Z" fill="#263238"/>
<path d="M63.6196 250.104C63.6455 250.104 63.7017 250.243 63.6973 250.489C63.6895 250.812 63.5972 251.128 63.4295 251.405C63.2626 251.681 63.0295 251.911 62.7512 252.074C62.5352 252.191 62.3797 252.213 62.3711 252.187C62.7016 251.931 62.9927 251.628 63.2351 251.288C63.4197 250.914 63.5492 250.516 63.6196 250.104Z" fill="#EFA49A"/>
<path d="M63.8455 251.059C63.906 251.059 63.8455 251.491 63.5344 251.889C63.2234 252.286 62.7914 252.403 62.7741 252.347C62.7568 252.29 63.0722 252.096 63.3616 251.746C63.6511 251.396 63.785 251.042 63.8455 251.059Z" fill="#EFA49A"/>
<path d="M68.5028 241.421C68.5287 241.421 68.6194 241.577 68.6626 241.879C68.7131 242.276 68.6503 242.679 68.4813 243.041C68.3124 243.404 68.0442 243.711 67.7079 243.927C67.4487 244.087 67.2759 244.121 67.25 244.095C67.6714 243.791 68.0221 243.399 68.2782 242.946C68.4583 242.459 68.5348 241.94 68.5028 241.421Z" fill="#EFA49A"/>
<path d="M68.7893 241.171C68.8455 241.145 69.0485 241.538 69.0269 242.065C69.0053 242.592 68.7721 242.973 68.7202 242.929C68.6684 242.886 68.785 242.523 68.8023 242.044C68.7796 241.753 68.7753 241.462 68.7893 241.171Z" fill="#EFA49A"/>
<path d="M88.4998 243.78L91.2905 242.821C91.2905 242.821 99.0665 229.55 100.959 228.315C102.851 227.079 104.393 227.451 104.393 227.451C104.393 227.451 132.996 242.264 132.607 242.739C132.218 243.215 127.76 276.003 127.76 276.003L87.3463 275.571L76.0625 264.845C76.0625 264.845 83.4065 259.773 84.9358 259.393C86.4651 259.013 87.4068 257.561 87.7092 256.736C89.0225 253.142 90.5431 246.887 88.4998 243.78Z" fill="#0028FA"/>
<path d="M90.0156 258.632C90.062 258.428 90.127 258.229 90.21 258.036C90.3526 257.66 90.5427 257.112 90.7543 256.429C90.966 255.747 91.1863 254.917 91.3764 253.993C91.7948 251.98 91.9703 249.925 91.8991 247.871C91.8646 246.925 91.7911 246.074 91.6961 245.366C91.6011 244.657 91.5147 244.07 91.4369 243.685C91.3881 243.482 91.3577 243.276 91.3462 243.067C91.4253 243.261 91.4846 243.462 91.5233 243.668C91.627 244.057 91.7436 244.631 91.8559 245.344C91.9858 246.178 92.0694 247.019 92.1065 247.863C92.1993 249.934 92.0192 252.008 91.5708 254.032C91.3902 254.857 91.1652 255.671 90.8969 256.472C90.6636 257.155 90.4649 257.699 90.2835 258.066C90.2133 258.264 90.1236 258.453 90.0156 258.632Z" fill="#263238"/>
<path d="M89.1846 259.345C88.2679 259.296 87.3494 259.296 86.4327 259.345C85.7894 259.399 85.1519 259.509 84.5276 259.673C84.2726 259.763 84.0131 259.84 83.75 259.902C83.9632 259.725 84.2122 259.595 84.4801 259.522C85.1061 259.309 85.7562 259.174 86.4154 259.12C87.3439 258.997 88.2881 259.073 89.1846 259.345Z" fill="#263238"/>
<path d="M100.941 228.444C100.732 229.005 100.573 229.584 100.466 230.172C100.293 231.592 100.494 233.032 101.049 234.35C101.617 235.664 102.342 236.904 103.209 238.043L103.982 239.097C104.088 239.22 104.176 239.357 104.246 239.504C104.122 239.4 104.01 239.283 103.913 239.154C103.71 238.92 103.425 238.575 103.079 238.138C102.163 237.011 101.404 235.764 100.824 234.432C100.254 233.08 100.071 231.596 100.297 230.146C100.372 229.71 100.504 229.286 100.69 228.885C100.753 228.727 100.838 228.579 100.941 228.444Z" fill="#263238"/>
<path d="M90.0293 273.363C90.1033 272.478 90.0831 271.588 89.9688 270.707C89.8218 269.755 89.5305 268.831 89.1048 267.968C88.5933 266.908 87.8835 265.957 87.0139 265.164C86.1387 264.388 85.1077 263.807 83.9899 263.462C83.073 263.173 82.1172 263.028 81.156 263.03C80.2665 263.049 79.3804 263.146 78.5078 263.319C78.563 263.289 78.6228 263.267 78.6849 263.255C78.8538 263.199 79.0254 263.151 79.199 263.112C80.8018 262.743 82.4728 262.794 84.0504 263.259C85.2081 263.599 86.2772 264.189 87.1824 264.987C88.0739 265.798 88.7962 266.777 89.3078 267.868C89.7282 268.755 90.0053 269.703 90.1286 270.676C90.2141 271.33 90.2228 271.991 90.1545 272.646C90.1545 272.875 90.0941 273.052 90.0768 273.173C90.0736 273.239 90.0574 273.304 90.0293 273.363Z" fill="#263238"/>
<path d="M115.112 267.398C115.072 267.445 115.025 267.487 114.974 267.523C114.875 267.597 114.736 267.717 114.542 267.843C113.989 268.208 113.398 268.514 112.779 268.754C111.865 269.116 110.915 269.381 109.946 269.545C108.753 269.735 107.539 269.75 106.343 269.588C104.168 269.37 102.031 268.872 99.9836 268.106C99.3656 267.874 98.7613 267.607 98.1735 267.307C97.9618 267.203 97.8063 267.104 97.7026 267.044C97.599 266.983 97.5428 266.944 97.5471 266.936C97.7737 267.021 97.9957 267.117 98.2124 267.225C98.6444 267.419 99.2578 267.679 100.04 267.959C102.085 268.674 104.208 269.146 106.364 269.363C107.541 269.528 108.734 269.528 109.911 269.363C110.87 269.212 111.812 268.966 112.723 268.629C113.339 268.403 113.933 268.122 114.499 267.791C114.694 267.647 114.899 267.515 115.112 267.398Z" fill="#263238"/>
<g opacity="0.3">
<path opacity="0.3" d="M119.336 247.616C117.558 247.714 115.781 247.391 114.151 246.674C112.52 245.956 111.082 244.864 109.953 243.486L119.336 247.616Z" fill="black"/>
</g>
<g opacity="0.3">
<path opacity="0.3" d="M90.0859 258.36C91.8825 256.766 93.0027 254.545 93.2179 252.153C93.4253 249.491 92.7514 245.923 91.7103 244.096C91.7103 244.096 92.8637 252.152 90.0859 258.36Z" fill="black"/>
</g>
<path d="M116.233 277.1L112.881 268.568C111.672 262.486 112.832 256.172 116.125 250.917C117.283 249.085 118.717 247.387 119.443 245.353C121.197 240.557 118.92 234.717 121.603 230.367C123.24 227.693 126.355 226.323 129.379 225.468C129.379 225.468 135.099 224.465 137.825 229.269L138.343 231.995L146.65 236.41C146.65 236.41 150.283 231.088 153.921 231.226C157.558 231.365 158.591 232.911 158.591 232.911C158.591 232.911 165.343 227.848 173.279 229.537C181.215 231.226 195.993 242.778 195.993 242.778L222.246 247.366C264.962 254.848 280.687 277.105 280.687 277.105" fill="#455A64"/>
<g opacity="0.3">
<path opacity="0.3" d="M118.737 275.048C121.497 275.152 124.111 273.912 126.595 272.698C132.111 270.007 137.654 267.302 142.674 263.769C144.674 262.36 146.614 260.792 147.966 258.753C149.318 256.714 150.014 254.139 149.348 251.785C149.259 251.364 149.086 250.966 148.839 250.613C148.593 250.261 148.278 249.962 147.914 249.733C146.825 249.163 145.495 249.646 144.419 250.234C142.022 251.552 139.957 253.379 137.913 255.193C132.98 259.577 128.067 263.982 123.173 268.408C121.195 270.197 119.121 272.154 118.508 274.75" fill="black"/>
</g>
<path d="M171.403 275.994C171.403 275.994 171.365 275.973 171.3 275.917L171.015 275.666L169.93 274.703C168.98 273.873 167.602 272.681 165.809 271.316C163.71 269.721 161.513 268.261 159.23 266.944C156.382 265.416 153.233 264.531 150.006 264.352C148.342 264.253 146.671 264.338 145.026 264.607C143.495 264.865 142.006 265.326 140.598 265.976C138.213 267.099 135.999 268.553 134.022 270.296C132.316 271.765 131.029 273.057 130.134 273.938L129.102 274.962L128.83 275.221L128.73 275.307C128.73 275.307 128.756 275.268 128.813 275.208L129.067 274.927L130.07 273.877C130.934 272.975 132.23 271.666 133.923 270.175C135.899 268.403 138.119 266.924 140.515 265.782C141.94 265.119 143.446 264.65 144.995 264.386C149.904 263.576 154.942 264.403 159.333 266.741C161.622 268.07 163.82 269.549 165.913 271.169C167.697 272.551 169.062 273.761 169.991 274.625C170.457 275.057 170.812 275.389 171.049 275.623L171.321 275.886C171.378 275.96 171.408 275.99 171.403 275.994Z" fill="#263238"/>
<path d="M151.966 264.283C151.926 264.176 151.896 264.067 151.876 263.955C151.819 263.717 151.746 263.397 151.655 263.004L151.5 262.313C151.461 262.058 151.413 261.782 151.366 261.484C151.262 260.887 151.15 260.214 151.081 259.458C151.038 259.077 150.994 258.68 150.951 258.27C150.908 257.859 150.899 257.406 150.873 256.974C150.8 256.084 150.822 255.129 150.809 254.122C150.843 251.944 151.039 249.77 151.396 247.621C151.766 245.471 152.332 243.36 153.085 241.314C153.262 240.843 153.47 240.398 153.655 239.957C153.746 239.741 153.841 239.525 153.932 239.313C154.023 239.102 154.144 238.903 154.243 238.704L154.852 237.564C155.051 237.201 155.284 236.877 155.487 236.553C155.69 236.229 155.885 235.926 156.088 235.65C156.291 235.373 156.52 235.132 156.697 234.894L157.224 234.242C157.397 234.047 157.569 233.887 157.721 233.736L158.416 233.054C158.496 232.971 158.581 232.895 158.671 232.825C158.604 232.918 158.529 233.004 158.446 233.084C158.282 233.265 158.062 233.516 157.781 233.797C157.639 233.952 157.47 234.116 157.302 234.311C157.133 234.505 156.973 234.743 156.792 234.976L156.204 235.736C156.006 236.009 155.828 236.324 155.621 236.639C155.414 236.955 155.189 237.287 155.003 237.646C154.818 238.004 154.615 238.393 154.411 238.791C154.312 238.989 154.2 239.184 154.105 239.391L153.837 240.039C153.655 240.471 153.452 240.903 153.28 241.387C152.543 243.428 151.987 245.53 151.616 247.668C151.264 249.811 151.063 251.977 151.016 254.148C151.016 255.146 150.994 256.097 151.059 256.986C151.081 257.418 151.102 257.85 151.124 258.282C151.146 258.714 151.202 259.086 151.236 259.466C151.297 260.218 151.4 260.896 151.487 261.488C151.53 261.786 151.569 262.062 151.608 262.317C151.647 262.572 151.699 262.801 151.742 263.013C151.815 263.41 151.876 263.73 151.919 263.968C151.944 264.071 151.96 264.177 151.966 264.283Z" fill="#263238"/>
<path d="M151.252 247.91C151.24 247.704 151.247 247.497 151.273 247.292C151.299 246.895 151.342 246.32 151.407 245.612C151.537 244.199 151.735 242.247 152.025 240.1C152.314 237.953 152.643 236.013 152.954 234.622C153.109 233.931 153.256 233.373 153.386 232.989C153.436 232.789 153.502 232.594 153.584 232.406C153.568 232.611 153.53 232.813 153.472 233.011C153.386 233.399 153.26 233.961 153.127 234.656C152.854 236.048 152.552 237.983 152.263 240.13C151.973 242.277 151.753 244.221 151.584 245.629C151.502 246.303 151.429 246.865 151.377 247.301C151.355 247.508 151.313 247.712 151.252 247.91Z" fill="#263238"/>
<path d="M184.197 244.489C184.076 244.484 183.956 244.468 183.838 244.441C183.605 244.411 183.264 244.333 182.819 244.281C181.57 244.1 180.309 244.013 179.047 244.022C174.232 244.053 169.525 245.458 165.481 248.073C161.437 250.689 158.224 254.404 156.22 258.783C156.026 259.185 155.905 259.513 155.788 259.725C155.747 259.838 155.695 259.946 155.633 260.049C155.66 259.932 155.698 259.818 155.745 259.708C155.832 259.488 155.94 259.155 156.125 258.749C156.621 257.58 157.214 256.454 157.897 255.384C160.153 251.823 163.274 248.891 166.969 246.86C169.007 245.762 171.188 244.951 173.449 244.45C175.292 244.04 177.176 243.843 179.065 243.862C180.333 243.868 181.599 243.98 182.849 244.195C183.281 244.26 183.631 244.35 183.864 244.398C183.977 244.419 184.088 244.449 184.197 244.489Z" fill="#263238"/>
<path d="M145.892 242.713C145.801 242.411 145.755 242.096 145.758 241.78C145.671 240.255 145.869 238.727 146.341 237.274C146.418 236.969 146.542 236.677 146.709 236.41C146.773 236.432 146.277 237.784 146.065 239.534C145.853 241.283 145.961 242.709 145.892 242.713Z" fill="#263238"/>
<path d="M252.794 268.443L252.669 268.348L252.319 268.05L250.975 266.901L250.012 266.067C249.649 265.769 249.239 265.475 248.807 265.143C247.943 264.495 246.975 263.7 245.813 262.983C245.237 262.606 244.639 262.21 244.02 261.795C243.394 261.363 242.724 261.022 242.011 260.611C241.299 260.201 240.607 259.747 239.826 259.406L237.454 258.201C230.317 254.853 222.608 252.895 214.739 252.429L212.091 252.334C211.668 252.312 211.244 252.312 210.821 252.334L209.594 252.364C208.791 252.394 208.009 252.386 207.266 252.446L205.106 252.636C203.732 252.718 202.514 252.96 201.438 253.116C200.898 253.202 200.397 253.263 199.939 253.349L198.691 253.626L196.963 253.997L196.531 254.088C196.479 254.093 196.427 254.093 196.375 254.088C196.422 254.068 196.471 254.053 196.522 254.045L196.954 253.928L198.682 253.496L199.926 253.202C200.384 253.107 200.885 253.038 201.425 252.947C202.501 252.783 203.723 252.515 205.097 252.433L207.257 252.23C208.004 252.166 208.786 252.17 209.594 252.135L210.825 252.101C211.257 252.078 211.69 252.078 212.121 252.101L214.774 252.187C222.674 252.628 230.413 254.594 237.566 257.976L239.942 259.168C240.724 259.531 241.424 259.993 242.128 260.391C242.832 260.788 243.511 261.173 244.137 261.587L245.93 262.793C247.087 263.531 248.042 264.335 248.911 264.996C249.343 265.333 249.749 265.635 250.107 265.933L251.062 266.797L252.358 267.981L252.695 268.292C252.76 268.4 252.799 268.439 252.794 268.443Z" fill="#263238"/>
<g opacity="0.3">
<path opacity="0.3" d="M176.381 273.774C176.187 272.417 175.267 271.272 174.221 270.374C171.742 268.214 168.523 267.147 165.348 266.33C160.988 265.207 156.537 264.473 152.047 264.136L152.284 264.568C154.444 264.961 156.445 265.432 158.229 266.33C160.013 267.229 161.439 267.968 162.981 269.229L170.813 275.579C171.867 276.443 173.146 277.351 174.468 277.027C175.79 276.703 176.58 275.13 176.381 273.774Z" fill="black"/>
</g>
<g opacity="0.3">
<path opacity="0.3" d="M209.471 247.992C206.602 248.131 203.759 248.904 200.904 248.649C195.31 248.144 190.411 243.763 184.808 244.13L182.941 244.251C186.324 245.085 189.918 246.843 192.074 248.934C194.23 251.025 196.506 252.736 199.439 253.397C199.439 253.397 202.377 252.965 204.412 252.602C210.974 251.496 217.717 252.222 224.586 253.708C220.767 249.388 215.225 247.712 209.471 247.992Z" fill="black"/>
</g>
<path d="M135.859 237.547C136.143 237.411 136.395 237.216 136.598 236.976C137.028 236.339 137.354 235.638 137.566 234.898C137.878 233.847 138.126 232.778 138.309 231.697C138.351 232.022 138.344 232.351 138.287 232.674C138.201 233.454 138.03 234.223 137.777 234.968C137.564 235.733 137.205 236.451 136.719 237.08C136.618 237.215 136.489 237.327 136.34 237.408C136.192 237.488 136.028 237.536 135.859 237.547Z" fill="#263238"/>
<path d="M124.734 250.13L130.268 252.152C130.268 252.152 128.458 255.781 126.406 258.144C124.354 260.507 114.215 268.08 114.215 268.08L119.217 274.927L126.155 271.471C136.091 266.425 146.485 257.444 147.431 256.576C148.377 255.707 149.323 254.29 149.008 250.096C148.693 245.901 143.647 242.687 139.314 239.931C136.636 238.24 133.782 236.846 130.804 235.771C130.804 235.771 128.022 237.356 126.242 241.901C124.341 246.804 124.734 250.13 124.734 250.13Z" fill="#FFBEB3"/>
<path d="M114.391 267.942C114.391 267.942 111.752 269.333 109.691 269.558C107.631 269.782 103.47 268.979 102.697 268.879C101.924 268.78 100.991 268.171 99.9885 268.754C98.9862 269.337 93.029 271.104 92.7395 271.346C92.4501 271.588 87.6808 275.234 87.3568 275.571C87.2647 275.675 87.1989 275.799 87.1651 275.934C87.1312 276.068 87.1303 276.209 87.1624 276.344L87.1408 276.534C86.8557 277.083 87.1797 277.256 87.1797 277.256L105.052 277.118C105.052 277.118 115.42 277.407 116.232 277.118C117.044 276.828 119.256 274.958 119.256 274.958L114.391 267.942Z" fill="#FFBEB3"/>
<path d="M92.7407 271.329C92.6101 271.474 92.4654 271.605 92.3087 271.722L91.0387 272.759L89.0947 274.314L87.9196 275.247L87.6086 275.497L87.4487 275.623C87.4061 275.659 87.3709 275.703 87.3451 275.752C87.2459 275.99 87.2145 276.25 87.2543 276.504L87.0815 276.431C87.7987 275.891 88.5892 275.338 89.4359 274.811C91.5815 273.457 93.8818 272.367 96.2875 271.562C97.2076 271.251 97.9723 271.061 98.4993 270.927L99.1127 270.797C99.1824 270.775 99.2555 270.764 99.3287 270.767C99.2618 270.797 99.1925 270.822 99.1214 270.84L98.5209 271.013C98.0025 271.169 97.2508 271.385 96.3393 271.713C93.9632 272.556 91.6873 273.659 89.5526 275.001C88.7145 275.528 87.9283 276.072 87.2155 276.603L87.0599 276.72V276.534C87.0098 276.234 87.0504 275.926 87.1766 275.649C87.2159 275.578 87.267 275.516 87.3278 275.463L87.4876 275.338L87.803 275.096L88.978 274.184L90.9566 272.664C91.4966 272.262 91.9329 271.929 92.2526 271.679C92.4058 271.549 92.569 271.432 92.7407 271.329Z" fill="#EFA49A"/>
<path d="M99.5027 272.992C99.0735 273.191 98.6337 273.365 98.1851 273.515C97.3686 273.835 96.2584 274.31 95.066 274.906C93.8737 275.502 92.8196 276.103 92.068 276.543C91.6717 276.804 91.2574 277.037 90.8281 277.239C91.1869 276.928 91.5729 276.651 91.9816 276.409C92.9449 275.788 93.9414 275.22 94.9667 274.707C95.9898 274.191 97.0462 273.744 98.1289 273.368C98.5609 273.225 98.8849 273.122 99.1268 273.066C99.2474 273.021 99.3743 272.996 99.5027 272.992Z" fill="#EFA49A"/>
<path d="M103.128 274.577C102.81 274.726 102.475 274.835 102.13 274.901C101.315 275.096 100.512 275.336 99.7236 275.618C98.8207 275.977 98.0171 276.383 97.4383 276.655C97.1349 276.824 96.8185 276.968 96.4922 277.087C96.7517 276.853 97.0425 276.657 97.3562 276.504C98.0922 276.086 98.8541 275.715 99.6371 275.394C100.434 275.106 101.253 274.885 102.087 274.733C102.428 274.65 102.777 274.598 103.128 274.577Z" fill="#EFA49A"/>
<path d="M136.52 247.552C136.52 247.591 136.04 247.664 135.302 247.915C134.341 248.249 133.444 248.744 132.649 249.379C131.857 250.017 131.18 250.788 130.649 251.656C130.247 252.321 130.07 252.779 130.031 252.766C130.046 252.651 130.078 252.539 130.126 252.433C130.231 252.135 130.361 251.845 130.515 251.569C131.534 249.722 133.242 248.352 135.267 247.759C135.568 247.668 135.876 247.603 136.187 247.565C136.297 247.541 136.409 247.537 136.52 247.552Z" fill="#EFA49A"/>
<path d="M281.269 277.204H14.4309C13.1401 277.204 12.0938 278.25 12.0938 279.541V305.064C12.0938 306.355 13.1401 307.401 14.4309 307.401H281.269C282.559 307.401 283.606 306.355 283.606 305.064V279.541C283.606 278.25 282.559 277.204 281.269 277.204Z" fill="#E0E0E0"/>
<path d="M15.0469 277.209C15.0469 277.144 74.5074 277.105 147.844 277.113C221.18 277.122 280.649 277.183 280.649 277.243C280.649 277.304 221.202 277.347 147.844 277.338C74.4858 277.329 15.0469 277.265 15.0469 277.209Z" fill="#263238"/>
<path d="M87.1251 277.238C87.0732 277.264 86.9307 277.13 86.8961 276.875C86.8863 276.818 86.8897 276.758 86.9062 276.702C86.9226 276.646 86.9517 276.595 86.9912 276.551C87.0603 276.487 87.1294 276.491 87.1424 276.517C87.1215 276.628 87.1143 276.741 87.1208 276.854C87.1424 277.035 87.1856 277.208 87.1251 277.238Z" fill="#EFA49A"/>
<path d="M49.863 237.819L48.1868 235.939H44.6228C44.6228 235.939 44.018 236.004 43.6854 236.877C43.6854 236.877 42.8776 236.41 42.3894 237.819C42.0167 239.143 41.7282 240.489 41.5254 241.849C41.331 242.078 41.2032 242.356 41.156 242.652C41.1088 242.948 41.1439 243.252 41.2576 243.53C41.2576 243.53 40.1128 244.674 40.7867 245.478C41.4606 246.282 45.7763 248.696 46.9772 250.049C47.7527 250.926 48.4495 251.87 49.0595 252.87L55.7123 248.264C55.7123 248.264 51.7465 243.111 50.2 241.698C49.2386 240.839 48.0888 240.217 46.8433 239.884C46.8903 239.581 46.8185 239.273 46.643 239.022C46.4674 238.772 46.2017 238.599 45.9016 238.54C46.0557 238.46 46.19 238.346 46.2946 238.207C46.3993 238.068 46.4716 237.907 46.5064 237.737C46.5064 237.737 46.7742 238.54 47.2451 238.406C47.2451 238.423 48.5195 240.104 49.863 237.819Z" fill="#FFBEB3"/>
<path d="M59.7797 275.096L48.9062 252.559L55.559 247.971C55.559 247.971 60.553 253.323 63.685 255.557C66.817 257.79 70.7654 262.81 72.5107 265.704C72.5107 265.704 80.0837 263.112 82.369 264.318L82.6152 264.451C84.5587 265.553 86.0986 267.248 87.0097 269.287C87.9207 271.327 88.155 273.605 87.6782 275.787L87.3672 277.239H63.0543C62.3609 277.231 61.6841 277.026 61.1038 276.646C60.5236 276.266 60.0641 275.728 59.7797 275.096Z" fill="#FFBEB3"/>
<path d="M72.5159 265.704C72.49 265.704 72.3302 265.354 71.9543 264.754C71.4118 263.913 70.8174 263.106 70.1745 262.339C68.0227 259.823 65.7294 257.432 63.3057 255.176C62.5972 254.515 61.906 253.88 61.2191 253.271C60.5322 252.662 59.8583 252.092 59.2535 251.509C58.0266 250.351 56.9726 249.262 56.0956 248.342C55.2186 247.422 54.5274 246.657 54.0566 246.126C53.8362 245.871 53.6548 245.668 53.5209 245.508C53.4545 245.438 53.3952 245.361 53.3438 245.279C53.4187 245.339 53.4881 245.406 53.5511 245.478L54.1214 246.066L56.2122 248.226C57.1021 249.133 58.1649 250.208 59.3918 251.353C60.0052 251.932 60.6878 252.502 61.366 253.081C62.0442 253.66 62.7527 254.33 63.4612 254.995C65.8935 257.249 68.1764 259.659 70.2954 262.209C70.9296 262.989 71.5071 263.814 72.0234 264.676C72.1642 264.91 72.2884 265.154 72.395 265.406C72.446 265.501 72.4865 265.601 72.5159 265.704Z" fill="#EFA49A"/>
<path d="M43.8561 241.568C43.579 241.526 43.3206 241.402 43.113 241.214C42.9905 241.112 42.8912 240.985 42.8219 240.841C42.7526 240.697 42.7149 240.54 42.7113 240.38C42.7073 240.015 42.7406 239.65 42.8106 239.292C42.8754 238.912 42.9445 238.566 43.0266 238.229C43.1223 237.947 43.2422 237.674 43.3852 237.413C43.4959 237.167 43.6229 236.929 43.7653 236.7C43.742 236.973 43.661 237.238 43.5277 237.477C43.4127 237.741 43.3131 238.01 43.2297 238.285C43.1605 238.592 43.0957 238.963 43.0309 239.331C42.9623 239.675 42.9247 240.025 42.9186 240.376C42.9163 240.511 42.942 240.644 42.994 240.769C43.0461 240.893 43.1234 241.005 43.221 241.097C43.5709 241.417 43.8777 241.534 43.8561 241.568Z" fill="#EFA49A"/>
<path d="M46.0644 238.57C46.0644 238.631 45.7923 238.618 45.5028 238.713C45.2134 238.808 45.006 238.959 44.9542 238.916C44.9024 238.873 45.0795 238.609 45.4337 238.484C45.788 238.359 46.086 238.514 46.0644 238.57Z" fill="#EFA49A"/>
<path d="M46.2847 237.033C46.3322 236.994 46.505 237.141 46.5655 237.395C46.626 237.65 46.5655 237.862 46.4834 237.849C46.4013 237.836 46.4013 237.659 46.3495 237.452C46.2976 237.244 46.2328 237.071 46.2847 237.033Z" fill="#EFA49A"/>
<path d="M42.2709 244.376C42.2709 244.437 41.8734 244.376 41.5451 244.061C41.2168 243.745 41.1736 243.339 41.2341 243.335C41.2945 243.331 41.4241 243.624 41.7049 243.905C41.9857 244.186 42.2881 244.329 42.2709 244.376Z" fill="#EFA49A"/>
<path d="M68.2593 276.824C68.2377 276.793 68.4494 276.655 68.6913 276.357C69.0234 275.966 69.2532 275.499 69.3603 274.998C69.4673 274.497 69.4483 273.977 69.3048 273.484C69.1925 273.108 69.0585 272.897 69.0888 272.875C69.119 272.854 69.2961 273.044 69.456 273.432C69.6509 273.945 69.6934 274.504 69.5784 275.04C69.4634 275.577 69.1959 276.068 68.808 276.456C68.5142 276.776 68.268 276.845 68.2593 276.824Z" fill="#EFA49A"/>
<path d="M134.841 234.751C134.841 234.751 135.934 234.837 135.952 236.479C135.983 237.394 135.836 238.307 135.52 239.166L128.586 237.896C129.083 236.713 129.986 235.745 131.133 235.169C132.28 234.592 133.595 234.444 134.841 234.751Z" fill="#0028FA"/>
<g opacity="0.3">
<path opacity="0.3" d="M134.841 234.751C134.841 234.751 135.934 234.837 135.952 236.479C135.983 237.394 135.836 238.307 135.52 239.166L128.586 237.896C129.083 236.713 129.986 235.745 131.133 235.169C132.28 234.592 133.595 234.444 134.841 234.751Z" fill="black"/>
</g>
<path d="M100.555 228.669C100.555 228.669 103.199 226.345 105.873 225.532C108.547 224.72 113.735 225.45 115.839 226.18C117.943 226.91 135.611 234.998 135.361 234.933C128.479 233.123 124.22 245.007 124.734 250.131L110.944 243.871L100.555 228.669Z" fill="#0028FA"/>
<path d="M130.267 252.152C130.189 252.146 130.112 252.129 130.038 252.1L129.399 251.906C128.846 251.72 128.056 251.439 127.084 251.068C125.144 250.325 122.5 249.21 119.601 247.927C116.703 246.644 114.098 245.435 112.223 244.549L110.007 243.482L109.406 243.184C109.334 243.151 109.266 243.11 109.203 243.063C109.28 243.082 109.356 243.108 109.428 243.141L110.041 243.404L112.288 244.402L119.692 247.72C122.586 249.016 125.222 250.139 127.144 250.921C128.103 251.31 128.872 251.612 129.429 251.82L130.056 252.057C130.13 252.081 130.201 252.113 130.267 252.152Z" fill="#263238"/>
<path d="M292.22 307.327C292.22 307.392 226.746 307.439 146.005 307.439C65.2646 307.439 -0.226562 307.392 -0.226562 307.327C-0.226562 307.262 65.2344 307.215 146.005 307.215C226.776 307.215 292.22 307.267 292.22 307.327Z" fill="#263238"/>
<path d="M81.6176 285.033H9.58594V307.679H81.6176V285.033Z" fill="#455A64"/>
<path d="M86.0318 277.344H4.04688V285.077H86.0318V277.344Z" fill="#455A64"/>
<path d="M86.0326 285.033C86.0326 285.094 67.7114 285.146 45.1178 285.146C22.5242 285.146 4.20312 285.094 4.20312 285.033C4.20312 284.973 22.5199 284.921 45.1178 284.921C67.7158 284.921 86.0326 284.968 86.0326 285.033Z" fill="#263238"/>
<path d="M60.6358 307.678C60.5753 307.678 60.5234 302.607 60.5234 296.351C60.5234 290.096 60.5753 285.024 60.6358 285.024C60.6962 285.024 60.7481 290.096 60.7481 296.351C60.7481 302.607 60.7006 307.678 60.6358 307.678Z" fill="#263238"/>
<path d="M62.7383 287.487C62.7383 287.487 62.7642 287.487 62.8161 287.487H63.058H64.0041L67.5854 287.461L80.0572 287.409H80.1652V287.517C80.1652 289.893 80.1652 292.485 80.1652 295.172C79.9449 295.401 80.1004 295.237 80.0486 295.289H70.5446L62.7383 295.224H62.6562V295.146C62.6562 292.779 62.6908 290.861 62.6995 289.53C62.6995 288.882 62.6995 288.377 62.6995 288.014C62.6995 287.854 62.6995 287.725 62.6995 287.625C62.6951 287.584 62.6951 287.542 62.6995 287.5C62.7033 287.547 62.7033 287.595 62.6995 287.642C62.6995 287.746 62.6995 287.876 62.6995 288.044C62.6995 288.411 62.6995 288.908 62.7211 289.578C62.7211 290.913 62.721 292.814 62.7642 295.159L62.7383 295.056H70.5489H75.1367H80.0615C80.014 295.103 80.1825 294.943 79.9535 295.164C79.9535 292.477 79.9535 289.885 79.9535 287.509L80.0572 287.612L67.6588 287.565L64.0516 287.534H63.0839H62.8291L62.7383 287.487Z" fill="#263238"/>
<path d="M62.7375 296.728H62.8153H63.0572H64.0033L67.5845 296.697L80.0564 296.646H80.1644V296.754C80.1644 299.134 80.1644 301.726 80.1644 304.413C79.9441 304.642 80.0996 304.478 80.0477 304.525H75.1445H70.5567H62.7461H62.6641V304.443C62.6641 302.08 62.6986 300.162 62.7073 298.827C62.7073 298.183 62.7073 297.674 62.7073 297.315C62.7073 297.151 62.7073 297.026 62.7073 296.926C62.7031 296.883 62.7031 296.84 62.7073 296.797C62.7105 296.844 62.7105 296.892 62.7073 296.939C62.7073 297.043 62.7073 297.177 62.7073 297.345C62.7073 297.713 62.7073 298.209 62.7289 298.879C62.7289 300.21 62.7289 302.115 62.7721 304.456L62.69 304.378L70.5005 304.352H80.0045C79.957 304.404 80.1255 304.244 79.8965 304.465C79.8965 301.778 79.8965 299.186 79.8965 296.805L80.0002 296.913L67.6018 296.862L63.9946 296.831H63.0269H62.7721L62.7375 296.728Z" fill="#263238"/>
<path d="M73.21 291.315C73.21 291.528 73.1469 291.736 73.0287 291.913C72.9105 292.089 72.7425 292.227 72.5459 292.309C72.3494 292.39 72.1331 292.411 71.9244 292.37C71.7158 292.328 71.5241 292.226 71.3737 292.076C71.2232 291.925 71.1208 291.733 71.0793 291.525C71.0378 291.316 71.0591 291.1 71.1405 290.903C71.2219 290.707 71.3598 290.539 71.5367 290.421C71.7135 290.302 71.9215 290.239 72.1343 290.239C72.2757 290.239 72.4158 290.266 72.5466 290.32C72.6774 290.374 72.7962 290.453 72.8962 290.553C72.9962 290.653 73.0754 290.772 73.1292 290.903C73.1831 291.033 73.2105 291.174 73.21 291.315Z" fill="#263238"/>
<path d="M73.2099 300.559C73.2091 300.772 73.1453 300.98 73.0266 301.156C72.9078 301.332 72.7396 301.469 72.5429 301.55C72.3463 301.631 72.1301 301.652 71.9218 301.61C71.7134 301.568 71.5221 301.465 71.3721 301.314C71.2221 301.164 71.1201 300.972 71.0789 300.763C71.0378 300.555 71.0593 300.339 71.1409 300.143C71.2224 299.946 71.3603 299.778 71.5371 299.66C71.7139 299.542 71.9217 299.479 72.1343 299.479C72.2759 299.479 72.4161 299.507 72.5469 299.562C72.6777 299.616 72.7965 299.696 72.8964 299.796C72.9964 299.896 73.0755 300.016 73.1293 300.147C73.1831 300.278 73.2105 300.418 73.2099 300.559Z" fill="#263238"/>
<path d="M53.8304 285.077C53.7165 283.791 53.679 282.5 53.7181 281.21C53.6791 279.92 53.7166 278.629 53.8304 277.344C53.9416 278.629 53.9791 279.92 53.9427 281.21C53.9793 282.5 53.9418 283.791 53.8304 285.077Z" fill="#263238"/>
<path d="M37.7289 273.949L36.8477 277.344H37.7289L39.4137 274.865L37.7289 273.949Z" fill="#263238"/>
<path d="M49.7395 273.949L50.6208 277.344H49.7395L48.0547 274.865L49.7395 273.949Z" fill="#263238"/>
<path d="M37.3094 256.384L34.2422 252.236L34.3156 252.185L37.3828 256.332L37.3094 256.384Z" fill="#263238"/>
<path d="M33.4976 258.513C33.4976 258.513 31.424 254.863 34.8454 252.599C38.2669 250.335 40.7249 253.368 40.7249 253.368L33.4976 258.513Z" fill="#0028FA"/>
<path d="M34.0229 252.755C34.4929 252.755 34.874 252.374 34.874 251.904C34.874 251.434 34.4929 251.053 34.0229 251.053C33.5529 251.053 33.1719 251.434 33.1719 251.904C33.1719 252.374 33.5529 252.755 34.0229 252.755Z" fill="#0028FA"/>
<path d="M49.9484 256.47L49.875 256.418L52.9422 252.271L53.0156 252.323L49.9484 256.47Z" fill="#263238"/>
<path d="M53.7742 258.6C53.7742 258.6 55.8478 254.95 52.4264 252.686C49.005 250.422 46.5469 253.455 46.5469 253.455L53.7742 258.6Z" fill="#0028FA"/>
<path d="M52.3867 251.99C52.3867 252.161 52.4374 252.328 52.5323 252.47C52.6273 252.612 52.7622 252.723 52.9201 252.788C53.078 252.854 53.2517 252.871 53.4193 252.837C53.5869 252.804 53.7408 252.722 53.8617 252.601C53.9825 252.48 54.0648 252.326 54.0981 252.159C54.1315 251.991 54.1143 251.817 54.049 251.659C53.9836 251.501 53.8728 251.367 53.7307 251.272C53.5886 251.177 53.4216 251.126 53.2507 251.126C53.0216 251.126 52.8018 251.217 52.6398 251.379C52.4777 251.541 52.3867 251.761 52.3867 251.99Z" fill="#0028FA"/>
<path d="M43.914 251.99H43.3438V254.872H43.914V251.99Z" fill="#455A64"/>
<path d="M43.9605 251.731H43.3039C42.9031 251.731 42.5781 252.056 42.5781 252.457V252.66C42.5781 253.061 42.9031 253.386 43.3039 253.386H43.9605C44.3613 253.386 44.6863 253.061 44.6863 252.66V252.457C44.6863 252.056 44.3613 251.731 43.9605 251.731Z" fill="#0028FA"/>
<path d="M54.3388 267.123C55.4645 261.278 51.6384 255.627 45.7931 254.501C39.9477 253.375 34.2966 257.202 33.171 263.047C32.0453 268.892 35.8714 274.543 41.7168 275.669C47.5621 276.795 53.2132 272.969 54.3388 267.123Z" fill="#0028FA"/>
<path d="M51.1176 271.576C54.7305 267.538 54.3859 261.336 50.3479 257.723C46.31 254.11 40.1077 254.454 36.4948 258.492C32.882 262.53 33.2265 268.733 37.2645 272.345C41.3025 275.958 47.5047 275.614 51.1176 271.576Z" fill="#FAFAFA"/>
<path d="M34.0128 264.384V265.011C34.0128 265.114 34.0128 265.227 34.0128 265.356C34.0128 265.486 34.0387 265.62 34.0517 265.788C34.0646 265.957 34.0776 266.099 34.0949 266.272C34.116 266.454 34.1463 266.634 34.1856 266.812C34.3534 267.743 34.6607 268.643 35.0971 269.482C35.6688 270.598 36.4489 271.593 37.3954 272.415L37.7971 272.757C37.9397 272.865 38.0909 272.964 38.2291 273.068C38.3674 273.171 38.5229 273.284 38.687 273.374L39.1752 273.651C39.2616 273.694 39.3437 273.742 39.4258 273.789L39.6893 273.906L40.225 274.139C40.4064 274.212 40.6008 274.269 40.7909 274.333C40.9804 274.402 41.1736 274.46 41.3698 274.506C41.772 274.606 42.1804 274.68 42.5923 274.726C42.804 274.726 43.0243 274.783 43.2274 274.796H43.8754C43.9834 274.796 44.0914 274.796 44.1994 274.796L44.5277 274.765C44.748 274.765 44.9597 274.735 45.193 274.705C45.6397 274.635 46.0813 274.535 46.5149 274.407L46.8648 274.32L47.029 274.269L47.1888 274.204L47.8411 273.94C48.0528 273.841 48.2731 273.724 48.4718 273.621C48.5755 273.56 48.6835 273.513 48.7829 273.448L49.0853 273.253C49.4924 272.991 49.882 272.702 50.2517 272.389L50.783 271.88L50.917 271.75L51.0379 271.607L51.2798 271.322L51.5218 271.042L51.7421 270.73L51.9581 270.424L52.0661 270.268L52.1611 270.104L52.537 269.439L52.848 268.735C53.6479 266.784 53.7904 264.626 53.2541 262.587L53.0338 261.849L52.7486 261.14L52.6795 260.963L52.5888 260.799L52.416 260.462L52.2389 260.129L52.0358 259.814L51.8328 259.498L51.7291 259.343L51.6168 259.2C51.4613 259.006 51.3101 258.812 51.1546 258.622C50.8292 258.263 50.4815 257.925 50.1134 257.611L49.8413 257.377C49.7506 257.3 49.6469 257.235 49.5518 257.166C49.3574 257.032 49.1674 256.889 48.9686 256.764L48.3595 256.418L48.2083 256.332L48.0485 256.263L47.7331 256.125C47.3201 255.939 46.8942 255.783 46.4587 255.658C46.247 255.598 46.0267 255.559 45.8107 255.507L45.491 255.438C45.383 255.416 45.275 255.407 45.167 255.394L44.5234 255.317C44.3117 255.317 44.0914 255.317 43.8883 255.317C43.4726 255.308 43.0567 255.329 42.6442 255.382C42.4433 255.398 42.244 255.429 42.048 255.477C41.8493 255.515 41.6506 255.541 41.4605 255.589L40.8989 255.753L40.6224 255.835L40.3589 255.939L39.8362 256.15C39.6634 256.215 39.5078 256.315 39.3437 256.392C39.1795 256.47 39.0197 256.557 38.8642 256.647L38.4322 256.932C37.3864 257.617 36.4828 258.497 35.771 259.524C35.2263 260.298 34.8038 261.15 34.5182 262.052C34.4536 262.224 34.3988 262.4 34.3541 262.579L34.2461 263.05C34.2158 263.196 34.1813 263.33 34.1597 263.456C34.1381 263.581 34.1294 263.693 34.1165 263.793C34.0906 263.996 34.069 264.151 34.056 264.259C34.043 264.367 34.056 264.415 34.056 264.415C34.0532 264.361 34.0532 264.308 34.056 264.255C34.056 264.147 34.0819 263.996 34.1035 263.793C34.1035 263.689 34.1035 263.577 34.1424 263.451C34.1813 263.326 34.1942 263.188 34.2245 263.019C34.2547 262.851 34.2893 262.717 34.3282 262.544C34.367 262.371 34.4318 262.203 34.4837 262.017C34.766 261.109 35.1856 260.249 35.7278 259.468C36.4401 258.426 37.3465 257.532 38.3976 256.833L38.8296 256.544C38.9851 256.453 39.1493 256.375 39.3091 256.289C39.4703 256.198 39.6361 256.116 39.8059 256.042L40.333 255.826L40.6008 255.718L40.8773 255.636L41.4432 255.472C41.6376 255.42 41.8363 255.394 42.035 255.351C42.2347 255.308 42.4366 255.277 42.6398 255.256C43.0553 255.204 43.474 255.182 43.8926 255.191C44.1043 255.191 44.3246 255.191 44.5363 255.191L45.1843 255.269C45.2923 255.269 45.4046 255.291 45.5126 255.308L45.8366 255.382C46.0526 255.433 46.2686 255.472 46.4933 255.533C46.9348 255.66 47.3677 255.816 47.7893 255.999L48.1046 256.142L48.2645 256.211L48.42 256.297L49.0334 256.647C49.2365 256.773 49.4266 256.919 49.6253 257.053C49.7203 257.122 49.824 257.187 49.919 257.265L50.1912 257.498C50.566 257.816 50.9195 258.158 51.2496 258.522L51.7118 259.105L51.8285 259.252L51.9322 259.408L52.1395 259.727L52.3469 260.043L52.524 260.38L52.7011 260.721L52.7875 260.89L52.861 261.067C52.956 261.304 53.0554 261.542 53.1504 261.784L53.3707 262.531C53.6279 263.557 53.7299 264.616 53.6731 265.672C53.5935 266.726 53.3531 267.762 52.9603 268.743L52.645 269.456L52.2648 270.126C52.2346 270.182 52.2043 270.238 52.1698 270.294L52.0618 270.45L51.8414 270.765L51.6211 271.076L51.3749 271.361L51.1286 271.651L51.0077 271.793L50.8694 271.923L50.3338 272.441C49.9606 272.756 49.5666 273.044 49.1544 273.305L48.8477 273.504C48.7483 273.569 48.636 273.616 48.5323 273.677C48.3206 273.785 48.1003 273.901 47.8973 274.001L47.2406 274.264L47.0765 274.329L46.908 274.381L46.5754 274.476C46.1364 274.606 45.6889 274.706 45.2362 274.774C45.0115 274.804 44.8042 274.817 44.5666 274.839L44.2339 274.865C44.1259 274.865 44.0136 274.865 43.9056 274.865H43.2533C43.0373 274.865 42.8213 274.817 42.6139 274.796C42.1975 274.747 41.7847 274.67 41.3784 274.567C41.1788 274.521 40.9826 274.462 40.7909 274.39C40.6008 274.325 40.4064 274.273 40.225 274.195L39.685 273.958L39.4171 273.837L39.1666 273.698L38.6741 273.418C38.5099 273.327 38.3674 273.21 38.2118 273.106C38.0563 273.003 37.9138 272.899 37.7798 272.791C37.6459 272.683 37.5077 272.562 37.3781 272.446C36.4255 271.618 35.6434 270.613 35.0755 269.486C34.6396 268.64 34.3352 267.733 34.1726 266.795C34.1424 266.601 34.0949 266.423 34.0862 266.251C34.0776 266.078 34.0603 265.914 34.0474 265.767C34.0344 265.62 34.0214 265.477 34.0171 265.335C34.0128 265.192 34.0171 265.093 34.0171 264.989C34.0171 264.785 34.0171 264.629 34.0171 264.523C34.0085 264.449 34.0128 264.384 34.0128 264.384Z" fill="#263238"/>
<path d="M46.6702 261.209C46.6254 261.316 46.5704 261.419 46.506 261.516L46.0179 262.337C45.5859 263.028 45.0113 263.991 44.3417 265.071L44.3072 265.123L44.2553 265.093L43.724 264.764C42.5403 264.026 41.4776 263.356 40.7 262.864L39.7928 262.272C39.677 262.207 39.5684 262.13 39.4688 262.043C39.5909 262.095 39.708 262.159 39.8187 262.233L40.7475 262.786C41.5251 263.257 42.6007 263.918 43.7715 264.656L44.2985 264.985L44.2121 265.006C44.8904 263.926 45.5081 262.972 45.9401 262.293L46.4628 261.494C46.5234 261.393 46.5928 261.298 46.6702 261.209Z" fill="#263238"/>
<path d="M43.8695 256.444C43.9503 256.99 43.9503 257.545 43.8695 258.09C43.7831 257.545 43.7831 256.99 43.8695 256.444Z" fill="#263238"/>
<path d="M48.1634 257.96C48.0711 258.219 47.9384 258.461 47.7702 258.678C47.6399 258.917 47.4722 259.134 47.2734 259.321C47.3674 259.065 47.5 258.825 47.6666 258.608C47.799 258.369 47.9665 258.151 48.1634 257.96Z" fill="#263238"/>
<path d="M50.9141 260.928C50.4762 261.247 50.0124 261.529 49.5273 261.771C49.7081 261.564 49.9266 261.394 50.171 261.27C50.3958 261.111 50.6477 260.996 50.9141 260.928Z" fill="#263238"/>
<path d="M52.446 265.162C51.698 265.243 50.9434 265.243 50.1953 265.162C50.9431 265.076 51.6983 265.076 52.446 265.162Z" fill="#263238"/>
<path d="M36.8594 265.011C36.509 265.075 36.1522 265.096 35.7967 265.076C35.4426 265.096 35.0873 265.074 34.7383 265.011C35.0873 264.947 35.4426 264.925 35.7967 264.946C36.1522 264.925 36.509 264.947 36.8594 265.011Z" fill="#263238"/>
<path d="M37.9644 268.164C37.7255 268.437 37.4559 268.682 37.1609 268.894C36.9 269.138 36.6098 269.348 36.2969 269.521C36.5366 269.249 36.8061 269.006 37.1004 268.795C37.3632 268.552 37.6531 268.34 37.9644 268.164Z" fill="#263238"/>
<path d="M40.6822 270.605C40.5226 270.933 40.3393 271.249 40.1336 271.551C39.9633 271.874 39.7698 272.185 39.5547 272.48C39.6586 272.126 39.8175 271.791 40.0256 271.486C40.1947 271.159 40.4165 270.861 40.6822 270.605Z" fill="#263238"/>
<path d="M43.8382 273.755C43.7518 273.007 43.7518 272.252 43.8382 271.504C43.9246 272.252 43.9246 273.007 43.8382 273.755Z" fill="#263238"/>
<path d="M48.677 272.256C48.3324 272.1 48.0179 271.885 47.7482 271.62C47.451 271.389 47.1954 271.108 46.9922 270.791C47.2859 271.019 47.5658 271.264 47.8303 271.525C48.1247 271.754 48.4074 271.998 48.677 272.256Z" fill="#263238"/>
<path d="M51.296 269.37C50.9892 269.25 50.6989 269.092 50.432 268.899C50.1411 268.74 49.8723 268.544 49.6328 268.315C50.2314 268.596 50.793 268.951 51.3047 269.37H51.296Z" fill="#263238"/>
<path d="M38.0971 261.382C37.5562 261.169 37.0496 260.878 36.5938 260.518C36.8717 260.605 37.1363 260.73 37.38 260.889C37.6417 261.017 37.8833 261.183 38.0971 261.382Z" fill="#263238"/>
<path d="M40.6658 259.032C40.4224 258.882 40.2038 258.695 40.0178 258.479C39.802 258.293 39.6155 258.076 39.4648 257.835C39.703 257.99 39.9195 258.176 40.1085 258.388C40.3237 258.575 40.5113 258.792 40.6658 259.032Z" fill="#263238"/>
<path d="M35.1308 265.075C35.1308 262.589 36.08 260.197 37.7846 258.387C39.4892 256.577 41.8205 255.487 44.3022 255.338C44.1121 255.338 43.9177 255.338 43.7233 255.338C41.1362 255.338 38.6551 256.366 36.8258 258.195C34.9965 260.024 33.9688 262.505 33.9688 265.092C33.9688 267.68 34.9965 270.161 36.8258 271.99C38.6551 273.819 41.1362 274.847 43.7233 274.847C43.9177 274.847 44.1121 274.847 44.3022 274.825C41.8179 274.678 39.4841 273.586 37.779 271.773C36.0739 269.96 35.1264 267.564 35.1308 265.075Z" fill="#E0E0E0"/>
<path d="M33.4382 252.288C33.41 252.25 33.3868 252.207 33.3691 252.163C33.3259 252.053 33.3111 251.934 33.3259 251.817C33.3433 251.7 33.3893 251.589 33.4598 251.493C33.4893 251.455 33.5242 251.422 33.5635 251.394C33.5635 251.394 33.5246 251.433 33.4727 251.506C33.4068 251.6 33.3652 251.708 33.3518 251.822C33.3336 251.933 33.344 252.048 33.382 252.154C33.4123 252.254 33.4425 252.288 33.4382 252.288Z" fill="white"/>
<path d="M33.3706 257.433C33.3019 257.23 33.2527 257.02 33.2237 256.807C33.0768 255.768 33.3368 254.713 33.9495 253.861C34.0771 253.686 34.2218 253.524 34.3815 253.377L34.2692 253.507C34.1629 253.62 34.0647 253.742 33.9754 253.869C33.6794 254.294 33.4628 254.768 33.336 255.269C33.2142 255.772 33.1864 256.294 33.254 256.807C33.2732 256.962 33.3035 257.115 33.3447 257.265C33.3576 257.373 33.3706 257.433 33.3706 257.433Z" fill="white"/>
<path d="M33.6009 257.991C33.6009 257.991 33.6009 257.956 33.5663 257.909C33.5612 257.88 33.5612 257.851 33.5663 257.822C33.5831 257.847 33.5935 257.875 33.5966 257.904C33.6039 257.933 33.6054 257.962 33.6009 257.991Z" fill="white"/>
<path d="M52.1941 252.785L51.9954 252.677C51.8182 252.579 51.6333 252.495 51.4424 252.427C50.8133 252.188 50.1364 252.103 49.4679 252.178C48.7993 252.253 48.1582 252.487 47.5976 252.859C47.4281 252.97 47.2664 253.092 47.1138 253.226L46.9453 253.377C47.1394 253.176 47.3553 252.998 47.589 252.846C48.1498 252.469 48.7927 252.232 49.4639 252.154C50.1353 252.08 50.8149 252.166 51.4468 252.405C51.7099 252.502 51.9607 252.63 52.1941 252.785Z" fill="white"/>
<path d="M53.093 251.394C53.093 251.394 53.0412 251.394 52.972 251.446C52.8787 251.497 52.7976 251.568 52.7344 251.653C52.6727 251.738 52.6313 251.835 52.6135 251.938C52.6135 252.02 52.6135 252.072 52.6135 252.072C52.608 252.028 52.608 251.983 52.6135 251.938C52.627 251.83 52.6687 251.727 52.7344 251.64C52.798 251.552 52.8827 251.481 52.9807 251.433C53.0161 251.415 53.0539 251.402 53.093 251.394Z" fill="white"/>
<path d="M34.2584 269.473C34.0983 269.086 33.9626 268.69 33.8524 268.285C33.3082 266.321 33.2992 264.246 33.8264 262.276C33.934 261.871 34.0667 261.473 34.2239 261.084C34.1893 261.188 34.1548 261.287 34.1116 261.404C34.0381 261.607 33.9431 261.905 33.8437 262.268C33.3214 264.236 33.3304 266.308 33.8696 268.272C33.9733 268.644 34.0684 268.946 34.1461 269.136C34.1893 269.27 34.2239 269.37 34.2584 269.473Z" fill="white"/>
<path d="M35.6335 271.728C35.6335 271.728 35.4305 271.439 35.2015 271.076C34.9726 270.713 34.7695 270.415 34.7695 270.415C34.7695 270.415 34.9726 270.7 35.2015 271.063C35.4305 271.426 35.6335 271.728 35.6335 271.728Z" fill="white"/>
<circle cx="71" cy="209" r="4" fill="#455A64"/>
<circle cx="79" cy="193" r="6" fill="#455A64"/>
<ellipse cx="120" cy="157" rx="46" ry="32" fill="#455A64"/>
<path d="M87.0859 153.715L132.889 180.16L154.222 167.843L108.42 141.4L87.0859 153.715Z" fill="#E0E0E0"/>
<path d="M87.082 152.565L132.885 179.01L154.218 166.693L108.416 140.248L87.082 152.565Z" fill="#0028FA"/>
<path opacity="0.8" d="M87.082 152.565L132.885 179.01L154.218 166.693L108.416 140.248L87.082 152.565Z" fill="white"/>
<path opacity="0.05" d="M134.876 169.88C135.356 169.97 135.885 169.963 136.316 170.2C136.599 170.392 136.867 170.606 137.116 170.84C137.897 171.568 138.928 171.969 139.996 171.96C141.007 171.984 143.344 171.32 143.356 170.003C143.367 169.184 142.453 168.723 141.695 168.403C137.38 166.637 133.596 163.781 130.716 160.115C129.645 158.747 128.66 157.235 127.165 156.346C126.213 155.781 125.119 155.515 124.05 155.226C118.216 153.65 112.648 151.219 107.527 148.01C108.474 146.143 109.132 144.144 109.479 142.08C108.234 141.645 107.029 142.72 105.799 143.2C104.839 143.576 103.879 143.563 102.919 143.414L98.842 145.768C99.0116 146.366 99.2836 146.949 99.4692 147.546C99.754 148.454 99.7892 149.579 99.074 150.214C98.666 150.579 98.1012 150.694 97.5636 150.805L95.3236 151.25C94.6836 151.376 93.9444 151.579 93.6948 152.182C93.3892 152.92 94.0388 153.707 94.7204 154.125C95.9892 154.904 97.5012 155.155 98.8996 155.666C102.178 156.861 104.744 159.442 107.797 161.131C109.919 162.305 112.257 163.036 114.669 163.282C117.16 163.536 119.7 163.267 122.156 163.746C124.087 164.122 126.052 164.65 127.944 165.219C128.974 165.51 129.959 165.937 130.876 166.488C131.332 166.771 131.756 167.103 132.138 167.48C132.504 167.846 132.754 168.322 133.076 168.73C133.57 169.371 134.114 169.736 134.876 169.88Z" fill="black"/>
<path d="M87.082 152.565V152.981L132.885 179.424V179.01L87.082 152.565Z" fill="#0028FA"/>
<path opacity="0.6" d="M87.082 152.565V152.981L132.885 179.424V179.01L87.082 152.565Z" fill="white"/>
<path d="M132.883 179.01L154.216 166.693V167.109L132.883 179.424V179.01Z" fill="#0028FA"/>
<path opacity="0.45" d="M132.883 179.01L154.216 166.693V167.109L132.883 179.424V179.01Z" fill="white"/>
<path d="M111.165 148.725C111.165 148.725 112.27 139.739 112.019 136.458C111.891 134.776 111.078 134.394 109.834 134.49C108.589 134.586 101.469 138.37 101.469 138.37L102.477 140.818L108.408 138.957C108.408 138.957 107.805 142.453 107.666 143.117C107.526 143.781 107.234 144.675 107.003 145.477C106.89 145.87 106.731 146.384 106.731 146.632C106.731 147.218 111.165 148.725 111.165 148.725Z" fill="#FFBEB3"/>
<path d="M108.408 138.957C109.232 138.797 110.058 138.317 110.317 137.922C110.183 138.359 109.888 138.729 109.491 138.957C109.115 139.2 108.716 139.407 108.301 139.574L108.408 138.957Z" fill="#EFA49A"/>
<path d="M122.373 148.566C122.248 148.109 121.445 147.627 119.051 147.224C116.658 146.821 114.48 147.224 114.469 147.507C114.458 147.79 115.059 149.685 117.818 150.029C120.576 150.373 122.626 149.569 122.373 148.566Z" fill="#263238"/>
<path d="M115.174 152.456C115.174 152.456 113.614 142.336 113.838 140.27C114.07 138.136 114.88 137.146 116.238 137.006C118.013 138.038 118.958 140.501 120.093 142.926C121.227 145.352 122.458 150.56 122.522 153.048C122.586 155.536 120.621 157.307 118.39 157.632C116.16 157.957 115.174 152.456 115.174 152.456Z" fill="#FFBEB3"/>
<path d="M117.624 144.534C116.903 143.955 116.416 143.135 116.254 142.225L118.48 141.449L119.985 142.702C120 142.734 120.014 142.766 120.03 142.798L120.088 142.925C120.131 143.016 120.174 143.113 120.217 143.214L120.256 143.301L120.355 143.541L120.388 143.624C120.432 143.736 120.476 143.848 120.52 143.966C120.563 144.083 120.608 144.203 120.651 144.326C120.651 144.352 120.668 144.379 120.678 144.405C120.716 144.515 120.755 144.625 120.793 144.741C120.793 144.757 120.804 144.773 120.809 144.79C120.9 145.061 120.988 145.342 121.076 145.632L121.091 145.678C121.132 145.821 121.176 145.965 121.217 146.109C121.217 146.109 119.15 145.811 117.624 144.534Z" fill="#EFA49A"/>
<path d="M115.774 137.094C116.62 136.758 117.654 137.542 118.199 137.894C119.306 138.604 126.087 143.888 127.668 145.126C128.01 145.332 128.359 145.532 128.714 145.721L126.852 148.633C126.699 148.215 126.459 147.833 126.148 147.513C124.458 146.307 121.188 145.649 119.082 144.83C117.446 144.19 117.103 143.832 116.55 142.896C116.121 142.161 114.596 137.648 115.774 137.094Z" fill="#FFBEB3"/>
<path d="M115.138 152.51L114.469 147.507C114.469 147.507 115.069 148.888 118.166 149.249C121.264 149.611 122.451 149.089 122.373 148.566C122.373 148.566 123.182 151.697 122.869 153.734C122.555 155.771 119.45 157.936 119.45 157.936L115.138 152.51Z" fill="#37474F"/>
<path opacity="0.15" d="M116.511 153.19C116.228 153.19 115.961 153.208 115.711 153.224L119.154 157.557H119.954C120.845 156.846 122.637 155.254 122.871 153.734C123.1 152.241 122.727 150.161 122.511 149.156C122.634 150.308 120.052 153.121 116.511 153.19Z" fill="black"/>
<path d="M132.02 141.49C130.9 141.282 130.38 142.088 129.965 142.755C129.551 143.422 128.861 144.646 128.554 144.854C128.247 145.062 128.074 144.854 127.632 145.186C127.191 145.517 126.871 146.146 127.007 146.374L127.327 146.93C127.143 146.91 126.957 146.934 126.784 147C126.611 147.065 126.455 147.17 126.33 147.306C125.85 147.786 126.1 147.867 126.37 148.138C126.64 148.408 127.276 149.638 127.912 149.974C127.912 149.974 129.626 149.459 130.871 147.515C132.116 145.571 132.02 141.49 132.02 141.49Z" fill="#0028FA"/>
<path d="M128.262 150.232C128.196 150.22 128.134 150.195 128.079 150.157C128.023 150.12 127.976 150.072 127.941 150.015C127.905 149.959 127.882 149.895 127.872 149.829C127.863 149.764 127.867 149.696 127.884 149.632C128.075 149.032 128.361 148.466 128.731 147.957C129.163 147.347 129.969 146.197 130.105 145.57C130.241 144.942 130.534 143.179 131.012 142.442C131.491 141.704 131.982 141.278 132.612 141.515C133.243 141.752 131.252 146.475 130.668 147.275C130.084 148.075 128.262 150.232 128.262 150.232Z" fill="#37474F"/>
<path d="M128.632 150.13C130.208 149.29 130.728 148.472 131.192 147.41C131.656 146.347 132.746 145.363 133.026 144.408C133.306 143.453 133.338 141.003 132.255 141.597C131.171 142.19 130.946 144.381 130.469 145.646C129.992 146.912 127.087 150.954 128.632 150.13Z" fill="#263238"/>
<path d="M119.159 152.721C119.88 152.612 121.264 152.91 122.519 154.664C123.868 156.547 124.119 159.833 123.274 160.104C123.274 160.104 121.311 159.872 119.965 159.168C118.62 158.464 116.354 153.688 119.159 152.721Z" fill="#263238"/>
<path d="M142.169 168.395C140.078 167.574 138.369 166.165 136.889 164.587C135.701 162.969 130.6 156.049 129.713 155.075C129.393 154.729 128.637 153.841 127.585 153.617C123.862 152.827 116.973 152.937 116.973 152.937L114.323 152.491L109.043 157.461C109.771 158.235 110.686 158.912 112.021 159.609C113.355 160.307 114.803 160.809 116.75 160.645C120.651 160.315 122.99 159.213 125.08 158.725C125.685 158.584 126.312 158.454 126.787 159.446C127.262 160.438 127.301 160.934 128.707 161.99C130.512 163.344 133.488 164.857 134.787 166.47C135.001 166.865 135.129 167.302 135.161 167.75C135.285 169.449 136.712 169.117 137.862 169.856C138.488 170.257 138.955 170.747 139.71 170.915C140.398 171.056 141.108 171.043 141.79 170.877C142.403 170.729 143.285 170.288 143.585 169.689C143.979 168.894 142.768 168.632 142.169 168.395Z" fill="#FFBEB3"/>
<path d="M142.169 168.395C140.078 167.574 138.369 166.165 136.889 164.587C135.701 162.969 130.6 156.049 129.713 155.075C129.393 154.729 128.637 153.841 127.585 153.617C123.862 152.827 116.973 152.937 116.973 152.937L114.323 152.491L109.043 157.461C109.771 158.235 110.686 158.912 112.021 159.609C113.355 160.307 114.803 160.809 116.75 160.645C120.651 160.315 122.99 159.213 125.08 158.725C125.685 158.584 126.312 158.454 126.787 159.446C127.262 160.438 127.301 160.934 128.707 161.99C130.512 163.344 133.488 164.857 134.787 166.47C135.001 166.865 135.129 167.302 135.161 167.75C135.285 169.449 136.712 169.117 137.862 169.856C138.488 170.257 138.955 170.747 139.71 170.915C140.398 171.056 141.108 171.043 141.79 170.877C142.403 170.729 143.285 170.288 143.585 169.689C143.979 168.894 142.768 168.632 142.169 168.395Z" fill="#FFBEB3"/>
<path d="M128.582 161.186C128.185 160.747 127.884 160.229 127.699 159.667C127.555 159.198 127.37 158.743 127.147 158.307C126.497 157.187 122.187 158.616 120.278 159.202C120.171 159.362 119.724 159.842 119.562 160.24C121.876 159.77 123.54 159.082 125.071 158.725C125.676 158.584 126.303 158.454 126.779 159.446C127.254 160.438 127.292 160.934 128.699 161.99C129.431 162.539 130.359 163.11 131.289 163.715C130.249 162.91 129.465 162.102 128.582 161.186Z" fill="#EFA49A"/>
<path d="M114.728 152.491C114.728 152.491 118.517 152.675 119.158 152.721C119.158 152.721 117.734 153.107 119.469 156.611C121.203 160.115 123.275 160.099 123.275 160.099C120.555 160.968 119.142 161.945 115.675 161.539C111.542 160.942 109.035 157.848 109.035 157.848L114.728 152.491Z" fill="#455A64"/>
<path opacity="0.15" d="M123.265 160.099L123.171 160.091C122.862 160.054 121.945 159.854 120.915 158.758C120.101 158.979 119.274 159.153 118.44 159.278C115.35 159.731 113.03 159.187 109.577 157.345L109.043 157.846C110.414 159.393 112.174 160.545 114.139 161.184C114.259 161.222 114.381 161.257 114.505 161.293C114.622 161.325 114.739 161.353 114.859 161.382L114.889 161.39C115 161.416 115.112 161.438 115.224 161.459L115.283 161.472C115.413 161.496 115.545 161.518 115.68 161.537C115.896 161.563 116.105 161.584 116.307 161.598C116.509 161.613 116.702 161.624 116.889 161.629H117.168H117.435C117.699 161.629 117.95 161.608 118.192 161.584C118.352 161.568 118.512 161.549 118.672 161.525C119.041 161.469 119.407 161.392 119.768 161.294C119.909 161.256 120.048 161.216 120.187 161.174C120.534 161.069 120.877 160.949 121.229 160.822L121.656 160.662C122.16 160.477 122.693 160.281 123.288 160.091L123.265 160.099Z" fill="black"/>
<path d="M102.063 147.72C100.524 148.256 99.0682 149.188 100.294 151.924C102.063 155.872 110.031 160.257 114.129 161.188C112.049 158.041 113.78 154.705 115.137 152.513L114.78 149.841C114.78 149.841 113.55 149.251 111.515 147.676C109.479 146.102 108.638 145.675 105.606 146.6C103.526 147.227 102.063 147.72 102.063 147.72Z" fill="#0028FA"/>
<path opacity="0.05" d="M108.298 156.642C104.109 154.242 102.793 152.104 101.149 150.051L100.074 151.365C100.103 151.449 100.135 151.536 100.17 151.624V151.638C100.207 151.731 100.245 151.824 100.289 151.922C101.063 153.648 103.023 155.459 105.327 157.029C105.657 157.253 105.992 157.472 106.333 157.685C106.505 157.792 106.676 157.896 106.847 158.005C108.02 158.71 109.234 159.344 110.482 159.906C111.653 160.445 112.873 160.874 114.124 161.186C113.668 160.509 113.363 159.741 113.231 158.936C111.777 158.493 110.217 157.742 108.298 156.642Z" fill="black"/>
<path d="M100.908 148.253C100.908 148.253 95.7419 145.491 94.9243 145.12L99.4395 142.465L98.4795 139.974C98.4795 139.974 91.7595 142.363 90.4795 143.049C89.8091 143.411 89.5195 143.712 89.5195 144.227C89.5195 145.085 90.3371 146.2 91.4683 147.165C93.8779 149.217 97.1451 151.128 100.326 152.881C101.056 153.422 101.816 154.102 101.816 154.102C102.66 154.517 103.876 150.646 100.908 148.253Z" fill="#FFBEB3"/>
<path d="M105.745 138.656C105.585 138.285 105.354 137.949 105.064 137.667C104.775 137.386 104.433 137.164 104.057 137.015C103.682 136.865 103.281 136.792 102.877 136.797C102.473 136.803 102.074 136.888 101.704 137.048C101.333 137.208 100.997 137.439 100.715 137.728C100.434 138.018 100.212 138.36 100.062 138.736C99.9132 139.111 99.8392 139.512 99.8449 139.916C99.8506 140.32 99.9357 140.718 100.096 141.089C100.118 141.139 100.144 141.187 100.168 141.235L99.3851 142.934L98.2395 140.808C98.2396 140.64 98.1776 140.478 98.0653 140.353C97.953 140.229 97.7984 140.15 97.6315 140.133C97.5469 140.126 97.4618 140.136 97.3813 140.163C97.3008 140.19 97.2266 140.233 97.1632 140.289C97.0998 140.345 97.0484 140.414 97.0123 140.491C96.9762 140.568 96.9561 140.651 96.9531 140.736L97.8347 140.811C97.6424 140.94 97.4948 141.126 97.4123 141.342C97.2011 141.889 97.9307 143.005 98.9099 143.984C98.9099 143.984 100.294 145.937 100.628 146.213C100.845 146.377 101.116 146.453 101.387 146.424L101.47 142.584C102.032 142.887 102.674 143.008 103.308 142.929C103.942 142.851 104.535 142.577 105.006 142.145C105.477 141.714 105.802 141.146 105.935 140.522C106.069 139.897 106.005 139.247 105.752 138.661L105.745 138.656Z" fill="#263238"/>
<path d="M100.064 143.601C99.9359 143.779 99.5455 143.553 99.2367 143.422C98.9279 143.291 98.0991 143.284 98.0671 144.166C98.0351 145.048 99.1199 145.766 99.7423 145.7C100.814 145.59 100.702 144.924 100.702 144.924L102.285 148.404C104.107 149.404 107.499 147.833 105.464 146.846L105.014 145.809C105.403 145.704 105.779 145.556 106.134 145.368C106.774 144.961 106.982 144.225 106.87 143.382C106.688 142.028 106.39 140.998 105.086 138.742C103.646 136.275 100.606 137.552 99.4207 139.286C98.2351 141.02 100.064 143.601 100.064 143.601Z" fill="#FFBEB3"/>
<path d="M100.192 143.893C100.106 143.931 99.5396 143.525 99.2324 143.422C98.8164 143.278 98.1428 140.656 98.1428 140.656C98.1428 140.656 97.594 140.176 97.8948 139.289C98.1444 138.566 99.0596 138.085 99.6932 137.765C100.836 137.187 102.112 136.528 102.674 135.318C102.717 135.224 102.783 135.113 102.887 135.112C102.953 135.119 103.015 135.152 103.058 135.203C103.321 135.499 103.469 135.879 103.477 136.275C103.477 136.313 103.488 136.358 103.524 136.369C103.559 136.381 103.589 136.35 103.61 136.325C103.727 136.183 103.815 136.02 103.871 135.845C103.949 135.606 104.351 136.213 104.381 136.296C104.476 136.559 104.516 136.839 104.501 137.118C104.485 137.398 104.414 137.671 104.292 137.923C104.042 138.422 103.527 138.734 103.058 139.008C102.01 139.619 100.218 140.2 99.9684 140.27C99.6292 140.365 99.6932 140.704 99.8868 141.629C100.064 142.44 100.48 143.76 100.192 143.893Z" fill="#263238"/>
<path d="M105.01 145.809C105.01 145.809 103.138 146.206 102.471 146.152C102.081 146.122 101.709 145.976 101.402 145.733C101.62 146.014 101.892 146.249 102.202 146.424C102.817 146.76 105.185 146.222 105.185 146.222L105.01 145.809Z" fill="#EFA49A"/>
<path d="M102.08 140.939L101.518 141.545C101.438 141.467 101.391 141.361 101.387 141.249C101.383 141.138 101.423 141.029 101.497 140.945C101.534 140.905 101.579 140.873 101.629 140.851C101.679 140.829 101.733 140.818 101.787 140.817C101.842 140.816 101.896 140.827 101.946 140.848C101.996 140.869 102.042 140.9 102.08 140.939Z" fill="#263238"/>
<path d="M103.875 144.04L104.699 144C104.704 144.054 104.698 144.109 104.682 144.161C104.666 144.213 104.639 144.261 104.603 144.303C104.568 144.344 104.524 144.378 104.475 144.402C104.426 144.426 104.373 144.44 104.318 144.443C104.207 144.446 104.098 144.406 104.015 144.331C103.933 144.256 103.882 144.151 103.875 144.04Z" fill="#EFA49A"/>
<path d="M105.472 139.974L104.672 139.768C104.683 139.715 104.704 139.664 104.735 139.62C104.766 139.575 104.805 139.537 104.851 139.508C104.897 139.48 104.949 139.461 105.002 139.452C105.056 139.444 105.111 139.447 105.163 139.461C105.27 139.491 105.362 139.561 105.419 139.656C105.477 139.752 105.496 139.865 105.472 139.974Z" fill="#263238"/>
<path d="M103.766 141.227L104.311 143.19L105.27 142.608L103.766 141.227Z" fill="#EFA49A"/>
<path d="M102.238 142.105C102.238 142.177 102.259 142.247 102.298 142.306C102.338 142.365 102.394 142.412 102.459 142.439C102.525 142.467 102.598 142.474 102.668 142.46C102.737 142.447 102.802 142.412 102.852 142.362C102.903 142.312 102.937 142.248 102.951 142.178C102.965 142.108 102.958 142.036 102.931 141.97C102.904 141.904 102.858 141.847 102.798 141.808C102.739 141.768 102.67 141.747 102.598 141.747C102.503 141.747 102.412 141.785 102.344 141.852C102.277 141.919 102.239 142.01 102.238 142.105Z" fill="#263238"/>
<path d="M104.84 141.091C104.84 141.159 104.86 141.226 104.898 141.283C104.936 141.34 104.99 141.384 105.053 141.41C105.116 141.436 105.186 141.443 105.253 141.43C105.32 141.417 105.381 141.384 105.43 141.335C105.478 141.287 105.511 141.225 105.524 141.158C105.538 141.091 105.531 141.022 105.505 140.959C105.479 140.896 105.434 140.842 105.377 140.804C105.321 140.766 105.254 140.745 105.185 140.745C105.094 140.745 105.006 140.782 104.941 140.847C104.876 140.911 104.84 140.999 104.84 141.091Z" fill="#263238"/>
<path d="M134.947 168.107C134.811 168.2 135.02 168.787 135.143 168.929C135.399 169.18 135.717 169.358 136.063 169.448C136.693 169.642 137.282 169.95 137.801 170.357C138.438 170.874 139.18 171.248 139.975 171.451C140.921 171.661 142.011 171.392 142.964 170.829C143.963 170.237 143.87 169.672 143.732 169.293L134.947 168.107Z" fill="#37474F"/>
<path d="M137.109 164.821C137.429 165.162 139.17 166.882 140.506 167.322C141.568 167.67 142.954 168.002 143.558 168.651C144.189 169.326 143.251 170.19 141.958 170.685C140.611 171.202 139.696 170.784 138.802 170.336C138.173 170.016 137.246 169.376 136.781 169.118C136.315 168.861 135.453 168.718 135.093 168.336C134.894 168.126 134.752 167.536 134.666 167.021C134.587 166.541 134.27 166.106 134.432 166.08L134.693 166.366C135.912 166.6 137.179 165.469 137.109 164.821Z" fill="#0028FA"/>
<path d="M94.9253 145.12C94.161 145.533 93.3357 145.822 92.4805 145.975C92.4805 145.975 93.8373 146.322 95.4597 145.379L94.9253 145.12Z" fill="#EFA49A"/>
</g>
<defs>
<clipPath id="clip0_1099_129">
<rect width="292" height="200" fill="white" transform="translate(0 116)"/>
</clipPath>
</defs>
</svg>
