<svg width="274" height="208" viewBox="0 0 274 208" fill="none" xmlns="http://www.w3.org/2000/svg">
<path d="M133.082 199.004L9.97389 125.719C6.05569 123.504 2.69234 119.868 6.51464 117.474L130.068 45.7212C131.924 44.5621 134.74 43.8032 136.624 44.9071L265.856 120.483C269.774 122.773 270.479 129.176 266.541 131.473L149.33 198.887C146.866 200.329 144.071 201.098 141.222 201.119C138.372 201.139 135.566 200.41 133.082 199.004Z" fill="#B3B3FF"/>
<path d="M88.8487 92.8531C90.0309 93.0133 91.2167 91.4225 91.4974 89.3C91.7781 87.1776 91.0473 85.3271 89.8651 85.167C88.6829 85.0068 87.4971 86.5976 87.2164 88.72C86.9357 90.8425 87.6665 92.6929 88.8487 92.8531Z" fill="#3E3BBC"/>
<path d="M88.4537 84.9752L89.8658 85.1654L90.7196 89.9679L88.849 92.8562L87.4405 92.6687" fill="#3E3BBC"/>
<path d="M87.4386 92.6675C88.6207 92.8277 89.8066 91.237 90.0873 89.1145C90.3679 86.992 89.6371 85.1416 88.455 84.9814C87.2728 84.8213 86.0869 86.412 85.8062 88.5345C85.5256 90.6569 86.2564 92.5074 87.4386 92.6675Z" fill="#8B7DE4"/>
<path d="M79.9299 86.4863L87.7187 87.826C87.8216 87.8427 87.9177 87.8883 87.9961 87.9575C88.1162 88.0515 88.2165 88.1686 88.2911 88.3021C88.3657 88.4355 88.413 88.5826 88.4304 88.7346C88.4477 88.8867 88.4347 89.0406 88.3921 89.1874C88.3495 89.3342 88.2781 89.4709 88.1822 89.5895C88.1217 89.6774 88.0376 89.7462 87.9397 89.788C87.8418 89.8297 87.7341 89.8427 87.6291 89.8254L79.6404 88.4927C79.4986 88.4687 79.3713 88.3906 79.285 88.2746C79.1987 88.1587 79.16 88.0138 79.177 87.87L79.2952 86.9888C79.3024 86.9131 79.3247 86.8397 79.3609 86.773C79.3971 86.7063 79.4463 86.6477 79.5056 86.6007C79.5649 86.5538 79.6331 86.5194 79.706 86.4998C79.779 86.4801 79.8551 86.4755 79.9299 86.4863Z" fill="#E3E3E3"/>
<path d="M77.462 90.9161C78.6442 91.0762 79.83 89.4855 80.1107 87.363C80.3914 85.2406 79.6606 83.3901 78.4784 83.23C77.2962 83.0698 76.1104 84.6605 75.8297 86.783C75.549 88.9055 76.2798 90.7559 77.462 90.9161Z" fill="#3E3BBC"/>
<path d="M77.0697 83.0332L78.479 83.227L79.332 88.0232L77.4623 90.9178L76.053 90.724" fill="#3E3BBC"/>
<path d="M76.0518 90.7232C77.234 90.8834 78.4199 89.2926 78.7005 87.1702C78.9812 85.0477 78.2504 83.1972 77.0682 83.0371C75.8861 82.8769 74.7002 84.4677 74.4195 86.5901C74.1389 88.7126 74.8697 90.563 76.0518 90.7232Z" fill="#8B7DE4"/>
<path d="M76.1734 88.695C76.7379 88.7715 77.3043 88.0116 77.4383 86.9976C77.5724 85.9837 77.2235 85.0997 76.6589 85.0233C76.0944 84.9468 75.528 85.7067 75.3939 86.7207C75.2599 87.7346 75.6088 88.6185 76.1734 88.695Z" fill="#3E3BBC"/>
<path d="M75.9847 84.9328L76.659 85.0257L77.0687 87.3185L76.1739 88.6989L75.4996 88.606" fill="#3E3BBC"/>
<path d="M75.5015 88.6071C76.066 88.6836 76.6324 87.9237 76.7665 86.9098C76.9005 85.8958 76.5516 85.0119 75.987 84.9354C75.4225 84.8589 74.8561 85.6188 74.7221 86.6328C74.588 87.6467 74.9369 88.5307 75.5015 88.6071Z" fill="#B5B3FF"/>
<path d="M183.443 152.941V156.18V159.059H188.978V152.941H183.443Z" fill="#FFBEB3"/>
<path d="M189.64 163.137L180.552 160.375L170.406 159.739L141.049 170.275L160.62 183.53C170.621 176.913 180.269 170.589 189.64 163.137Z" fill="#7D7ED6"/>
<path d="M116.628 137.062L106.661 134.026L91.79 134.564L68.5 146.245L87.8033 158.436C97.7632 151.819 107.257 144.513 116.628 137.062Z" fill="#7D7ED6"/>
<path d="M157.922 126.091L158.934 123.373L155.222 120.993L146.786 115.556L140.899 113.921L119.791 124.732L141.387 140.706C147.672 135.731 153.535 131.19 157.922 126.091Z" fill="#7D7ED6"/>
<path d="M30.7771 118.944L14.2617 127.947L21.3583 132.853L39.2163 122.518" fill="#7D7ED6"/>
<path d="M29.4078 110.644C29.4078 110.644 28.1954 121.166 33.7165 123.201C39.2376 125.236 42.1968 119.937 42.2858 110.644" fill="#0028FA"/>
<path d="M35.8453 114.391C39.4014 114.391 42.2843 112.713 42.2843 110.644C42.2843 108.575 39.4014 106.898 35.8453 106.898C32.2891 106.898 29.4062 108.575 29.4062 110.644C29.4062 112.713 32.2891 114.391 35.8453 114.391Z" fill="#F2696A"/>
<path d="M37.4963 102.309C37.4963 102.309 34.9687 98.6321 36.0715 96.1C36.0715 96.1 36.9826 94.4649 38.2704 94.2096C38.2704 94.2096 38.1402 97.6938 39.428 97.2522C40.7158 96.8107 39.428 93.6025 39.428 93.6025C39.428 93.6025 40.798 91.7603 42.2639 91.8155C43.7298 91.8707 42.2639 95.072 43.2914 94.5753C44.3189 94.0785 43.3531 91.3188 44.5176 90.9945C45.5781 90.7497 46.6537 90.5769 47.7371 90.4771C47.7371 90.4771 48.8331 93.6577 47.7371 94.113C46.6411 94.5684 45.0313 94.7202 45.8054 95.4239C46.5794 96.1276 48.7714 95.3204 48.7714 95.3204C48.7714 95.3204 48.9084 97.1073 48.1618 97.8801C47.4151 98.6528 43.038 96.9417 43.812 98.4803C44.5861 100.019 47.4768 99.1702 47.4768 99.1702C46.6079 100.401 45.5155 101.454 44.2573 102.275C42.5174 103.31 37.4963 102.309 37.4963 102.309Z" fill="#8CCC00"/>
<path d="M38.0863 111.507C38.0863 111.507 36.2642 109.692 36.6204 108.133C36.8001 107.582 37.1727 107.116 37.6684 106.822C37.6684 106.822 37.963 108.816 38.648 108.423C39.333 108.029 38.2644 106.353 38.2644 106.353C38.2644 106.353 38.8398 105.159 39.6823 105.035C40.5249 104.911 40.0248 106.884 40.5591 106.47C41.0934 106.056 40.2509 104.614 40.8742 104.304C41.4507 104.05 42.0434 103.836 42.6484 103.662C42.6484 103.662 43.6074 105.346 43.032 105.732C42.4566 106.118 41.5592 106.367 42.073 106.684C42.5867 107.001 43.7444 106.305 43.7444 106.305C43.8882 106.805 43.8617 107.339 43.669 107.822C43.3265 108.34 40.6619 107.822 41.2647 108.63C41.8675 109.437 43.4293 108.671 43.4293 108.671C43.0664 109.464 42.5573 110.18 41.9291 110.782C41.0386 111.52 38.0863 111.507 38.0863 111.507Z" fill="#8CCC00"/>
<path d="M31.3723 107.581C31.3723 107.581 26.9335 107.753 25.3991 105.449C25.3991 105.449 24.5223 103.8 24.995 102.565C24.995 102.565 27.8446 104.545 28.1665 103.213C28.4885 101.882 25.1114 101.24 25.1114 101.24C25.1114 101.24 24.2894 99.1013 25.1114 97.8732C25.9334 96.6451 27.8514 99.6256 27.9473 98.4665C28.0432 97.3074 25.2553 96.6658 25.6115 95.5067C25.9756 94.4737 26.4081 93.4664 26.9061 92.4917C26.9061 92.4917 30.153 93.2713 29.9475 94.4442C29.742 95.6171 29.0022 97.066 30.0092 96.79C31.0161 96.514 31.5162 94.2165 31.5162 94.2165C31.5162 94.2165 33.0848 95.0582 33.3383 96.1069C33.5917 97.1557 29.7968 99.9568 31.5025 100.122C33.2081 100.288 34.1192 97.4178 34.1192 97.4178C34.6824 98.8166 34.9776 100.31 34.9891 101.82C34.8864 103.841 31.3723 107.581 31.3723 107.581Z" fill="#8CCC00"/>
<path d="M46.7715 91.8431L45.3535 93.0643C45.4015 92.5607 45.4631 92.057 45.5385 91.5534C45.5796 91.2843 45.1754 91.1739 45.1343 91.443C45.0293 92.1145 44.9494 92.7906 44.8946 93.4714C43.6479 94.5684 42.4148 95.7206 41.2709 96.921C41.1725 96.0647 41.1473 95.2014 41.1955 94.3407C41.1955 94.0716 40.7914 94.0716 40.7777 94.3407C40.7235 95.3359 40.7648 96.334 40.901 97.3212C40.1702 98.1192 39.4841 98.9576 38.846 99.8326C38.1243 98.8292 37.6329 97.6768 37.4075 96.4588C37.3595 96.1897 36.9554 96.307 37.0033 96.5692C37.2427 97.8636 37.7721 99.0859 38.5514 100.143L38.5925 100.184C36.6565 102.784 35.5354 105.908 35.373 109.154C35.373 109.423 35.784 109.423 35.7909 109.154C35.9424 106.012 37.0177 102.986 38.8802 100.46C40.5721 100.913 42.3257 101.085 44.0725 100.971C44.3397 100.971 44.3397 100.529 44.0725 100.55C42.4147 100.658 40.7503 100.502 39.1405 100.088C40.0287 98.8788 41.004 97.7373 42.0587 96.6727H42.0929C43.0725 96.7624 44.052 96.8452 45.0315 96.8866C45.6471 96.9757 46.275 96.902 46.8537 96.6727C47.0934 96.5485 46.8536 96.1897 46.6413 96.307C45.9563 96.652 45.0179 96.4657 44.2918 96.4243C43.6684 96.3898 43.0519 96.3346 42.4285 96.2794C43.9218 94.7891 45.5248 93.4024 47.0729 92.0846C47.2647 91.9673 46.977 91.6706 46.7715 91.8431Z" fill="#06577A"/>
<path d="M33.7837 100.061C33.7886 100.01 33.7756 99.9599 33.7471 99.9184C33.7186 99.8768 33.6764 99.8467 33.6279 99.8335C33.5795 99.8202 33.528 99.8247 33.4825 99.8461C33.4371 99.8675 33.4006 99.9044 33.3795 99.9503C32.9251 101.507 31.9802 102.873 30.6875 103.841C30.2308 102.512 29.797 101.171 29.386 99.8192C30.3979 98.803 31.2296 97.62 31.8451 96.3212C31.9616 96.0797 31.5985 95.8658 31.4821 96.1073C30.9154 97.2999 30.1613 98.3925 29.249 99.3431C28.8106 97.7908 28.427 96.2246 28.0982 94.6378C28.0434 94.3687 27.6392 94.486 27.694 94.7481C28.1507 96.9145 28.701 99.0533 29.3449 101.165C28.5546 101.009 27.7862 100.757 27.057 100.413C26.8172 100.295 26.598 100.661 26.8446 100.778C27.6839 101.18 28.5733 101.466 29.4887 101.627C29.934 103.007 30.4272 104.387 30.9546 105.766C29.7008 105.727 28.4651 105.453 27.3104 104.959C27.0638 104.856 26.8515 105.214 27.0981 105.325C28.3699 105.874 29.7355 106.169 31.119 106.194C31.7903 107.887 32.5301 109.552 33.3384 111.189C33.4617 111.431 33.8179 111.189 33.7015 110.975C32.6199 108.793 31.6594 106.552 30.8245 104.262C32.247 103.232 33.2883 101.753 33.7837 100.061Z" fill="#06577A"/>
<path d="M41.3746 105.525L40.2238 107.45C40.0834 107.26 39.9618 107.056 39.8607 106.843C39.7443 106.594 39.3812 106.843 39.4977 107.057C39.6284 107.329 39.7892 107.586 39.9772 107.822L38.7305 109.934C38.5923 109.799 38.503 109.622 38.477 109.43C38.477 109.161 38.0249 109.161 38.0592 109.43C38.0963 109.768 38.2605 110.079 38.5181 110.299L36.9906 112.969C36.9711 113.017 36.9694 113.07 36.9858 113.119C37.0022 113.168 37.0355 113.209 37.0797 113.235C37.124 113.261 37.176 113.27 37.2263 113.261C37.2767 113.251 37.3219 113.224 37.3536 113.183L39.4086 109.733C39.7537 109.719 40.0939 109.646 40.4156 109.52C40.669 109.437 40.5594 109.03 40.306 109.113C40.0947 109.18 39.8763 109.222 39.6552 109.237L41.7102 105.711C41.7125 105.671 41.7035 105.631 41.6841 105.595C41.6647 105.56 41.6358 105.531 41.6007 105.511C41.5656 105.492 41.5257 105.483 41.4857 105.485C41.4457 105.488 41.4072 105.501 41.3746 105.525Z" fill="#06577A"/>
<path d="M146.439 112.169L146.392 107.284L142.117 107.104L141.213 114.445C141.213 114.445 145.522 114.852 146.439 112.169Z" fill="#FFBEB3"/>
<path d="M141.425 58.3057C140.79 63.8014 140.493 69.3314 140.535 74.8641C140.74 82.2947 139.85 106.539 139.85 106.539C139.85 106.539 145.549 109.299 148.974 107.67C148.974 107.67 150.344 91.5398 150.515 86.2066C150.686 80.8734 149.604 58.7679 149.604 58.7679" fill="#0028FA"/>
<path d="M146.439 112.169C146.439 112.169 143.76 114.239 141.904 113.749C141.904 113.749 142.637 111.679 142.116 110.989C141.596 110.299 141.226 110.844 140.925 111.576C140.676 112.172 140.371 112.743 140.013 113.28C139.949 113.353 139.875 113.418 139.794 113.473C138.02 115.777 133.588 114.929 134.013 117.689C134.102 118.289 135.424 118.923 135.931 119.068C136.832 119.284 137.77 119.284 138.671 119.068C141.034 118.42 141.723 118.275 143.658 117.392C145.772 116.575 146.398 116.771 146.726 116.012C147.055 115.253 146.439 112.169 146.439 112.169Z" fill="#050817"/>
<path d="M153.193 104.503C154.022 109.988 155.132 118.419 155.084 119.178C155.015 120.255 157.036 124.629 158.694 118.964C158.694 118.964 158.858 110.057 158.79 104.628C156.923 104.688 155.055 104.647 153.193 104.503Z" fill="#FFBEB3"/>
<path d="M153.714 120.041C153.714 120.041 153.419 118.344 154.556 118.24C155.694 118.137 156.995 118.378 157.153 119.303C157.252 119.966 157.312 120.634 157.331 121.304C157.331 121.304 158.701 117.164 159.036 117.164C159.372 117.164 159.804 118.544 159.776 119.075C159.617 120.9 159.309 122.6 158.934 124.392C158.646 125.206 156.92 128.21 154.474 128.576C152.029 128.941 150.734 127.403 151.131 126.285C151.529 125.167 153.693 123.063 153.714 120.041Z" fill="#050817"/>
<path d="M146.021 60.3686C146.021 60.3686 147.508 79.9696 148.124 86.2687C148.741 92.5679 151.858 113.659 151.858 113.659C151.858 113.659 156.762 114.998 160.961 113.162C160.961 113.162 159.297 80.2594 158.358 71.994C157.125 61.162 154.933 55.9116 154.933 55.9116" fill="#0028FA"/>
<path d="M153.439 39.4154C153.439 39.4154 162.639 38.2563 163.714 37.387C164.79 36.5177 164.454 25.2925 164.584 24.4162C164.715 23.54 167.66 22.8294 168.174 23.7815C168.688 24.7336 170.092 36.0623 169.379 39.0291C168.667 41.9958 154.22 48.2328 154.22 48.2328L153.439 39.4154Z" fill="#FFBEB3"/>
<path d="M140.939 38.8149C140.185 40.0982 138.199 47.6254 138.199 47.6254L135.37 41.416C134.651 39.7984 133.846 38.2208 132.959 36.6899L129.76 37.9387C131.52 43.2926 132.87 48.5775 135.754 53.4692C135.992 53.7986 136.281 54.0875 136.61 54.3247C139.555 56.1875 142.939 53.6968 143.549 53.1035L145.967 37.0763C145.487 36.3174 141.692 37.5317 140.939 38.8149Z" fill="#FFBEB3"/>
<path d="M155.152 40.1604C151.735 38.9128 148.196 38.0317 144.596 37.5317H144.144C143.592 40.3422 142.422 42.9922 140.719 45.2866C142.26 45.8386 151.206 48.4189 154.487 49.1226C158.762 39.4705 157.467 43.1754 155.152 40.1604Z" fill="#FFBEB3"/>
<path d="M133.308 37.235C133.308 37.235 133.719 32.8332 133.267 32.4744C132.814 32.1157 132.342 32.64 132.342 32.64C132.272 32.3116 132.103 32.013 131.858 31.7856C131.612 31.5582 131.303 31.4132 130.972 31.3706C129.828 31.2809 127.828 33.0057 127.643 33.9026C127.458 34.7995 129.917 38.1457 129.917 38.1457L133.308 37.235Z" fill="#FFBEB3"/>
<path d="M164.859 24.8508C164.859 24.8508 163.914 22.8913 163.489 22.022C163.065 21.1527 164.174 20.4076 164.174 20.4076C164.124 20.17 164.124 19.9243 164.175 19.6868C164.226 19.4493 164.326 19.2254 164.469 19.0298C164.612 18.8341 164.795 18.6713 165.005 18.552C165.215 18.4328 165.448 18.3597 165.688 18.3378C167.51 18.0894 168.641 18.2136 169.175 19.2692C169.709 20.3248 168.161 24.1608 168.161 24.1608" fill="#FFBEB3"/>
<path d="M147.048 36.6209C146.747 36.5726 142.705 36.269 140.938 38.6424C139.838 40.1609 138.972 41.838 138.369 43.6168L141.678 46.0454L140.732 61.6793C140.732 61.6793 145.294 64.2252 148.877 63.8802C152.46 63.5352 156.604 61.4516 156.604 61.4516V46.8043L162.954 43.6237L161.618 37.6558C161.618 37.6558 154.974 38.6286 153.795 38.4837C152.617 38.3388 152.638 37.5109 147.048 36.6209Z" fill="black"/>
<path d="M152.139 32.8262L146.988 34.0612V39.2702C147.727 39.7319 148.575 39.9845 149.445 40.0015C150.314 40.0185 151.171 39.7992 151.927 39.3668C151.991 37.1866 152.062 35.0064 152.139 32.8262Z" fill="#EFA49A"/>
<path d="M159.344 25.513C159.286 25.0852 159.143 24.6734 158.924 24.3018C158.706 23.9303 158.415 23.6065 158.071 23.3494C157.726 23.0923 157.334 22.9072 156.918 22.8048C156.501 22.7024 156.068 22.6849 155.645 22.7533C154.984 22.8134 154.345 23.0211 153.774 23.3613C153.203 23.7014 152.714 24.1654 152.343 24.7196C149.453 23.5122 146.096 24.761 144.753 26.5479C144.27 27.1009 144.004 27.8122 144.004 28.5487C144.004 29.2853 144.27 29.9966 144.753 30.5495L150.014 36.5796C150.953 36.3711 151.87 36.0755 152.754 35.6965C154.254 35.0065 155.494 32.1019 155.494 29.487C156.052 29.597 156.63 29.5541 157.166 29.3628C157.915 29.0742 158.542 28.5327 158.939 27.8306C159.336 27.1286 159.479 26.3095 159.344 25.513Z" fill="#050817"/>
<path d="M144.734 30.5498C144.734 30.5498 144.865 38.1943 146.933 38.691C147.704 38.8432 148.503 38.744 149.213 38.4078C149.924 38.0715 150.51 37.5158 150.886 36.8213C151.102 36.3929 151.224 35.922 151.242 35.4414C151.242 35.4414 153.167 34.5928 152.824 33.4682C152.482 32.3436 151.297 33.8339 150.982 33.6752C150.599 33.5475 150.271 33.2931 150.051 32.9536C149.831 32.614 149.732 32.2093 149.769 31.8055C149.728 30.3497 146.591 31.8607 144.734 30.5498Z" fill="#FFBEB3"/>
<path d="M98.9482 61.1134C98.9482 61.1134 93.2627 50.2056 99.4962 50.309L112.902 41.8022L113.004 31.9361L115.922 30.1768C115.922 30.1768 119.19 40.2222 118.56 43.8306C117.93 47.4389 108.915 54.2141 106.682 55.7457C103.668 57.8086 98.9482 61.1134 98.9482 61.1134Z" fill="#FFBEB3"/>
<path d="M101.311 48.9293L107.606 44.769L110.976 53.0483L107.606 57.9813" fill="#0028FA"/>
<path d="M102.065 132.977C101.958 133.301 101.926 133.645 101.971 133.984C102.016 134.322 102.137 134.646 102.325 134.93C102.976 135.675 110.182 139.587 113.573 138.641C116.964 137.696 116.587 136.572 116.553 136.006" fill="#2648A9"/>
<path d="M91.9476 136.986C91.6906 137.739 91.6549 138.551 91.8448 139.325C92.1736 140.532 95.2082 145.7 97.8728 146.114C100.537 146.528 103.045 145.838 102.894 143.644" fill="#2648A9"/>
<path d="M99.7502 106.491C99.7502 106.491 98.5035 113.204 98.2158 115.46C97.9281 117.716 96.8458 135.564 96.8458 135.564C96.8458 135.564 94.4826 138.842 93.3797 138.041C92.2769 137.241 91.3864 122.863 91.9138 117.109C92.4413 111.355 93.4756 103.165 93.4756 103.165" fill="#FFBEB3"/>
<path d="M108.716 99.957C108.853 100.268 106.619 131.101 106.619 131.101C106.619 131.101 104.914 133.033 102.907 131.942C102.907 131.942 100.338 111.093 103.003 102.682" fill="#FFBEB3"/>
<path d="M93.9896 74.8158C93.9896 74.8158 91.5578 85.9789 91.1742 89.9944C90.7906 94.0098 91.3455 108.202 91.3455 108.202C91.3455 108.202 99.2572 112.397 102.079 105.89C102.079 105.89 103.669 107.726 110.258 103.821C110.258 103.821 110.436 81.86 108.169 77.0926C105.902 72.3251 94.6746 73.022 93.9896 74.8158Z" fill="#050817"/>
<path d="M91.153 51.0684C88.8984 52.4087 87.2556 54.5861 86.5772 57.1329C85.4195 61.4312 83.07 69.8415 82.7754 71.1524C82.4809 72.4632 81.5424 83.3987 81.5424 83.3987C81.5424 83.3987 80.3848 86.8484 80.3848 87.7729C80.4268 88.5606 80.7858 88.9628 80.9852 89.7257C80.9852 89.7257 82.6622 90.4054 83.3472 90.4054C84.0322 90.4054 85.634 90.1672 85.7093 89.7257C85.7963 89.2161 84.0358 89.5943 84.2482 88.4283C84.4605 87.2623 85.7093 87.3466 86.3842 87.6865C86.9721 87.6865 86.8512 87.1519 86.8512 87.1519C86.8512 87.1519 85.1113 85.0407 84.2482 84.1645C84.2482 84.1645 87.4334 72.8289 88.0088 71.1731C88.5842 69.5172 90.8242 64.3151 91.516 63.8528C92.2079 63.3906 94.667 64.2668 96.4754 58.8715C98.2838 53.4762 91.153 51.0684 91.153 51.0684Z" fill="#FFBEB3"/>
<path d="M108.402 54.8215C108.196 52.4068 107.292 49.4952 104.689 48.7294C103.9 48.5231 103.077 48.4785 102.271 48.5983L99.1199 49.0744L95.051 49.6884C95.051 49.6884 91.8589 50.1645 91.1602 51.0683C91.1602 51.0683 95.0441 53.0001 94.8797 57.1949C94.7701 60.134 93.5577 64.0942 91.4958 63.8804C91.4958 63.8804 92.2219 77.3341 93.0576 79.2728C93.0576 79.2728 102.271 81.3978 108.724 76.9684C108.724 76.9753 108.813 59.5959 108.402 54.8215Z" fill="#0028FA"/>
<path d="M96.2701 44.769C96.382 45.7247 96.382 46.6904 96.2701 47.6461C96.0701 48.4399 95.6467 49.1587 95.0508 49.7159C95.0508 49.7159 99.332 55.1043 102.702 54.5454C106.072 53.9866 101.332 48.9845 101.332 48.9845C101.332 48.9845 101.702 49.1018 101.647 47.5426" fill="#FFBEB3"/>
<path d="M93.0158 133.377C93.0158 133.377 93.3926 137.248 94.0913 136.489C94.79 135.73 93.8447 133.405 95.0845 133.453C96.3244 133.502 97.0573 133.212 97.1943 133.791C97.3313 134.371 98.7219 138.621 100.825 140.387C102.928 142.153 103.818 144.044 101.702 144.168C101.154 144.234 100.643 144.476 100.243 144.858C99.6535 145.458 97.1327 145.106 96.0846 143.975C95.0366 142.843 91.9746 137.986 91.9746 136.993C91.9746 135.999 92.0705 133.605 93.0158 133.377Z" fill="#050817"/>
<path d="M105.996 131.494C105.996 131.494 105.359 129.914 106.065 129.61C106.77 129.307 107.476 128.92 107.825 129.348C108.175 129.776 108.387 130.645 108.661 130.901C108.935 131.156 114.977 134.171 115.881 135.04C116.785 135.909 116.6 136.461 116.326 136.289C116.052 136.116 115.689 135.868 115.511 136.289C115.333 136.71 115.36 138.172 114.223 138.097C113.086 138.021 110.88 138.221 109.654 137.193C108.428 136.165 105.339 135.378 104.174 134.826C103.01 134.274 102.064 133.764 102.064 132.977C102.064 132.191 102.153 129.659 102.66 129.576C103.167 129.493 102.989 131.004 103.791 131.404C104.504 131.636 105.267 131.667 105.996 131.494Z" fill="#050817"/>
<path d="M101.381 48.9776L101.34 48.9293L97.9148 45.8384L96.5859 46.9009C96.9103 47.34 97.2602 47.7593 97.634 48.1566C98.7916 49.1639 100.326 49.9987 101.381 48.9776Z" fill="#CC7158"/>
<path d="M104.448 36.6624C104.168 36.3565 103.799 36.1486 103.393 36.0691C103.306 35.9203 103.202 35.7815 103.085 35.6551C102.62 35.143 101.978 34.8295 101.29 34.7789C101.034 34.764 100.778 34.8114 100.544 34.9169C100.15 34.6782 99.7071 34.532 99.2491 34.4891C98.7839 34.4449 98.3175 34.5617 97.9271 34.8203C97.2808 34.5767 96.5657 34.5965 95.9337 34.8755C95.4982 35.0763 95.1381 35.4124 94.9062 35.8345C94.5379 35.9022 94.1896 36.0527 93.8871 36.2749C93.5847 36.4971 93.3359 36.7852 93.1595 37.1178C93.0187 37.3589 92.9279 37.6263 92.8925 37.9038C92.8572 38.1813 92.8781 38.4631 92.954 38.7322C92.7438 39.0204 92.615 39.3604 92.5812 39.7163C92.5474 40.0723 92.61 40.4307 92.7622 40.7537C92.8979 41.0433 93.0942 41.2998 93.3376 41.5058C93.3327 41.5747 93.3327 41.6439 93.3376 41.7128C93.4842 42.651 93.8275 43.5471 94.3445 44.3414C94.5635 44.6727 94.8161 44.9802 95.098 45.259C95.283 45.4453 95.4748 45.6178 95.6734 45.7903C95.8721 45.9628 95.831 46.0524 95.8104 45.9007C95.8338 46.1236 95.9188 46.3354 96.0556 46.5122C96.1924 46.689 96.3756 46.8237 96.5845 46.9011C97.501 46.2931 98.2165 45.4234 98.6395 44.4035C98.6636 44.3589 98.6993 44.3216 98.7427 44.2957C98.786 44.2697 98.8356 44.256 98.8861 44.256C98.9365 44.256 98.9861 44.2697 99.0295 44.2957C99.0729 44.3216 99.1085 44.3589 99.1327 44.4035L102.859 40.3881C103.305 40.2861 103.718 40.0709 104.059 39.763C104.399 39.4551 104.656 39.0647 104.804 38.6287C104.919 38.298 104.947 37.9429 104.885 37.5981C104.822 37.2534 104.672 36.931 104.448 36.6624Z" fill="#583228"/>
<path d="M103.867 39.2705C104.065 38.8841 105.346 48.1982 102.36 48.8606C99.3732 49.5229 97.6813 45.9283 97.6813 45.9283C97.6813 45.9283 94.8454 44.307 96.3113 43.2928C97.7772 42.2786 98.4485 43.6861 98.4485 43.6861C98.4485 43.6861 97.7635 39.6775 99.6198 40.0156C101.476 40.3537 103.079 40.7952 103.867 39.2705Z" fill="#FFBEB3"/>
<path d="M91.3457 108.188L91.7224 130.555C91.7224 130.555 96.2777 131.521 99.4767 130.555L101.799 107.449L101.114 126.892C101.114 126.892 105.381 128.092 108.69 126.802L110.286 103.813" fill="#050817"/>
<path d="M92.0368 50.4819C92.0368 50.4819 88.4611 52.3448 86.9267 55.6564C85.7554 58.1885 84.084 63.2457 84.084 63.2457L89.927 66.6057L92.5574 64.2254C92.5574 64.2254 95.7975 60.0858 95.8865 57.7125C95.9756 55.3391 94.9549 50.6337 92.0368 50.4819Z" fill="#0028FA"/>
<path d="M113.025 31.9361C113.025 31.9361 110.922 29.7214 110.97 29.0591C110.997 28.8619 111.074 28.6751 111.194 28.5168C111.314 28.3585 111.473 28.234 111.655 28.1553C111.655 28.1553 110.97 26.4718 112.49 25.8716C114.011 25.2714 116.367 25.1817 116.662 25.8716C116.956 26.5615 115.922 30.1768 115.922 30.1768C115.922 30.1768 114.052 33.1297 113.025 31.9361Z" fill="#FFBEB3"/>
<path d="M189.923 42.9615C187.559 43.0029 184.682 41.2366 184.395 38.7184C184.589 38.7309 184.783 38.7309 184.977 38.7184C186.416 38.6563 188.731 37.6007 188.779 35.8689C188.827 34.1372 186.587 33.9647 185.415 34.4408C184.865 34.6676 184.381 35.0327 184.011 35.5014C183.64 35.97 183.395 36.5265 183.299 37.1177C183.005 36.9741 182.731 36.7933 182.484 36.5796C181.552 35.7417 180.929 34.611 180.716 33.3714C180.613 32.8467 180.592 32.3089 180.655 31.7776C181.215 31.9698 181.815 32.0079 182.395 31.888C183.84 31.5913 185.683 29.7423 184.361 28.2659C183.258 27.024 181.319 27.8036 180.442 28.8799C180.236 29.1362 180.057 29.4137 179.908 29.7078C179.39 29.145 179.104 28.4053 179.107 27.638C179.113 26.9883 179.272 26.3494 179.569 25.7728C179.867 25.1963 180.295 24.6984 180.819 24.3194C181.449 23.8227 180.566 22.9396 179.942 23.4363C179.084 24.0789 178.449 24.9769 178.125 26.0034C177.802 27.0298 177.807 28.1327 178.141 29.1559C178.399 29.8921 178.846 30.5465 179.435 31.0532C178.867 33.9371 180.511 37.4213 183.217 38.4217C183.256 39.1159 183.424 39.7966 183.71 40.4294C184.274 41.5946 185.162 42.5695 186.267 43.2358C187.371 43.9021 188.643 44.2311 189.93 44.1827C190.066 44.149 190.186 44.0702 190.273 43.959C190.359 43.8477 190.405 43.7104 190.404 43.5693C190.404 43.4282 190.356 43.2915 190.268 43.1812C190.181 43.071 190.059 42.9935 189.923 42.9615ZM184.498 37.3385L185.183 36.0621H185.237C185.409 35.8612 185.618 35.6968 185.853 35.5783C186.089 35.4598 186.345 35.3898 186.607 35.3722C186.748 35.3347 186.897 35.3471 187.029 35.4075C187.161 35.4678 187.269 35.5723 187.333 35.7034C187.346 35.7602 187.346 35.819 187.333 35.8758C187.505 36.4485 186.429 37.0418 186.135 37.1798C185.611 37.4241 185.031 37.5241 184.456 37.4696C184.477 37.4213 184.484 37.3799 184.491 37.3385H184.498ZM182.347 28.9144C182.461 28.8668 182.587 28.8539 182.708 28.8772C182.83 28.9005 182.942 28.9589 183.032 29.0455C183.717 29.6112 182.991 30.4254 182.306 30.6185C181.878 30.7448 181.424 30.7448 180.997 30.6185C181.401 29.8803 182.032 28.7971 182.347 28.9144Z" fill="#464DAA"/>
<path d="M77.1854 56.0907C74.8222 56.1321 71.9452 54.3659 71.6575 51.8477C71.8514 51.8602 72.0458 51.8602 72.2397 51.8477C73.6782 51.7856 75.9935 50.73 76.0415 48.9982C76.0894 47.2665 73.8495 47.094 72.6781 47.5701C72.1245 47.7971 71.6383 48.1639 71.2664 48.6352C70.8945 49.1065 70.6493 49.6664 70.5546 50.2608C70.2612 50.1172 69.9873 49.9363 69.7395 49.7227C68.8079 48.8847 68.185 47.7541 67.9722 46.5145C67.869 45.9897 67.8482 45.4519 67.9105 44.9207C68.4704 45.1128 69.071 45.1509 69.6504 45.0311C71.0958 44.7344 72.9384 42.8854 71.6164 41.4089C70.5135 40.1671 68.575 40.9467 67.6982 42.023C67.4917 42.2793 67.3126 42.5568 67.1639 42.8509C66.6461 42.2881 66.3596 41.5484 66.3624 40.7811C66.3693 40.1314 66.5279 39.4924 66.8254 38.9159C67.1229 38.3394 67.5509 37.8415 68.0749 37.4625C68.7051 36.9658 67.8215 36.0826 67.1981 36.5794C66.3401 37.2219 65.7045 38.12 65.3812 39.1464C65.0579 40.1729 65.0633 41.2757 65.3966 42.2989C65.6548 43.0351 66.1014 43.6896 66.6912 44.1963C66.1227 47.0802 67.7667 50.5644 70.4724 51.5648C70.5122 52.259 70.6794 52.9397 70.9656 53.5725C71.53 54.7377 72.4183 55.7126 73.5224 56.3789C74.6266 57.0452 75.8992 57.3741 77.1854 57.3257C77.3288 57.2992 77.4584 57.2229 77.5517 57.1101C77.645 56.9972 77.6961 56.8551 77.6961 56.7082C77.6961 56.5614 77.645 56.4192 77.5517 56.3064C77.4584 56.1936 77.3288 56.1173 77.1854 56.0907ZM71.7602 50.4678L72.4452 49.1914H72.5C72.6714 48.9905 72.8809 48.826 73.1161 48.7076C73.3513 48.5891 73.6076 48.519 73.87 48.5015C74.0104 48.4639 74.1594 48.4764 74.2917 48.5367C74.424 48.5971 74.5315 48.7016 74.5961 48.8326C74.6084 48.8895 74.6084 48.9483 74.5961 49.0051C74.7674 49.5778 73.6919 50.1711 73.3974 50.3091C72.8732 50.5534 72.2941 50.6534 71.7191 50.5989C71.7397 50.5437 71.7465 50.5092 71.7534 50.4678H71.7602ZM69.6093 42.0437C69.7238 41.9961 69.8496 41.9832 69.9712 42.0064C70.0929 42.0297 70.2052 42.0882 70.2943 42.1748C70.9793 42.7405 70.2532 43.5546 69.5682 43.7478C69.1411 43.8741 68.687 43.8741 68.2599 43.7478C68.664 43.0027 69.2874 41.9057 69.6093 42.0437Z" fill="#DD582A"/>
<path d="M198.363 57.4362C197.822 56.9122 197.107 56.6088 196.357 56.5846C195.606 56.5604 194.874 56.8171 194.301 57.3051C193.307 58.1882 194.766 59.6509 195.753 58.7678C196.157 58.409 196.856 58.7678 197.123 59.1265C197.664 59.8165 197.582 60.9204 197.465 61.7345C197.399 61.995 197.433 62.271 197.56 62.5076C197.687 62.7441 197.898 62.9238 198.15 63.0109C198.409 63.0843 198.686 63.0534 198.923 62.9246C199.159 62.7958 199.337 62.5793 199.418 62.3209C199.705 60.6168 199.719 58.6574 198.363 57.4362Z" fill="#DD582A"/>
<path d="M110.374 16.0541C108.01 15.1296 105.332 17.1304 105.291 19.6073C105.291 20.9389 107.346 20.9389 107.346 19.6073C107.369 19.3214 107.458 19.0448 107.606 18.7998C107.754 18.5548 107.957 18.3482 108.199 18.1966C108.441 18.045 108.715 17.9526 108.998 17.9268C109.282 17.901 109.568 17.9425 109.833 18.048C111.066 18.531 111.6 16.5302 110.374 16.0541Z" fill="#FFC866"/>
<path d="M133.951 15.4604C133.679 15.4604 133.417 15.5695 133.225 15.7636C133.032 15.9576 132.924 16.2209 132.924 16.4954C132.924 16.7698 133.032 17.0331 133.225 17.2271C133.417 17.4212 133.679 17.5303 133.951 17.5303C134.224 17.5303 134.485 17.4212 134.678 17.2271C134.871 17.0331 134.979 16.7698 134.979 16.4954C134.979 16.2209 134.871 15.9576 134.678 15.7636C134.485 15.5695 134.224 15.4604 133.951 15.4604Z" fill="#DD582A"/>
<path d="M128.006 62.9697C127.734 62.9697 127.472 63.0788 127.279 63.2728C127.087 63.4669 126.979 63.7302 126.979 64.0046C126.979 64.2791 127.087 64.5423 127.279 64.7364C127.472 64.9305 127.734 65.0395 128.006 65.0395C128.279 65.0395 128.54 64.9305 128.733 64.7364C128.925 64.5423 129.034 64.2791 129.034 64.0046C129.034 63.7302 128.925 63.4669 128.733 63.2728C128.54 63.0788 128.279 62.9697 128.006 62.9697Z" fill="#CFE217"/>
<path d="M198.092 91.085C197.819 91.085 197.558 91.194 197.365 91.3881C197.173 91.5822 197.064 91.8454 197.064 92.1199C197.064 92.3943 197.173 92.6576 197.365 92.8516C197.558 93.0457 197.819 93.1548 198.092 93.1548C198.364 93.1548 198.626 93.0457 198.819 92.8516C199.011 92.6576 199.119 92.3943 199.119 92.1199C199.119 91.8454 199.011 91.5822 198.819 91.3881C198.626 91.194 198.364 91.085 198.092 91.085Z" fill="#CFE217"/>
<path d="M177.832 48.8465L175.359 52.5929C174.626 53.7106 176.407 54.7455 177.133 53.6347L179.592 49.8883C180.339 48.8051 178.558 47.7357 177.832 48.8465Z" fill="#FFC866"/>
<path d="M86.4397 32.2469L84.4463 30.7083C84.2106 30.5722 83.9311 30.535 83.6683 30.6047C83.4056 30.6744 83.1806 30.8455 83.042 31.0809C82.9121 31.3195 82.8781 31.5992 82.9469 31.8624C83.0157 32.1255 83.1822 32.3521 83.4119 32.4953L85.4053 34.0338C85.641 34.1699 85.9205 34.2072 86.1833 34.1375C86.446 34.0677 86.671 33.8967 86.8096 33.6612C86.9395 33.4226 86.9735 33.1429 86.9047 32.8798C86.8359 32.6166 86.6694 32.3901 86.4397 32.2469Z" fill="#464DAA"/>
<path d="M151.173 10.2515C150.619 9.04411 148.844 10.0928 149.399 11.2933C149.491 11.5602 149.526 11.8436 149.502 12.125C149.478 12.4065 149.395 12.6797 149.26 12.9269C149.124 13.1741 148.938 13.3899 148.715 13.5601C148.491 13.7303 148.234 13.8513 147.961 13.915C146.639 14.2255 145.378 13.1354 144.94 11.9556C144.502 10.7758 142.494 11.2657 142.96 12.5076C143.83 14.8534 146.303 16.7093 148.851 15.8055C149.381 15.6142 149.865 15.3143 150.273 14.9247C150.682 14.5351 151.005 14.0643 151.224 13.5422C151.442 13.0201 151.55 12.458 151.541 11.8916C151.533 11.3251 151.408 10.7666 151.173 10.2515Z" fill="#CFE217"/>
<path d="M161.31 85.5923C161.31 85.5923 158.755 84.5367 158.638 84.2125C158.12 83.394 157.526 82.627 156.864 81.9219C156.707 82.1002 156.612 82.3249 156.592 82.5624C156.572 82.7999 156.629 83.0375 156.755 83.2397C157.172 83.7709 157.508 84.0538 157.364 84.247C157.22 84.4401 151.987 82.0323 151.734 82.0599C151.48 82.0875 151.569 82.9016 152.151 83.2948L153.097 83.8813C153.097 83.8813 151.658 83.5156 151.597 83.7157C151.571 83.9179 151.619 84.1225 151.731 84.2923C151.842 84.462 152.011 84.5855 152.206 84.6402C152.206 84.6402 151.521 84.8058 152.124 85.2887C152.359 85.5217 152.645 85.6944 152.96 85.7924C152.96 85.7924 152.35 85.7924 152.569 86.2409C152.788 86.6893 154.357 86.6893 154.693 86.8549C156.68 87.4301 158.709 87.8431 160.762 88.0899C161.933 88.0761 161.31 85.5923 161.31 85.5923Z" fill="#FFB5A9"/>
<path d="M167.141 65.7015C166.437 64.7077 165.673 63.7584 164.853 62.859C164.408 62.5416 161.154 62.0242 160.839 61.5895C160.524 61.1549 163.319 61.01 163.627 61.1066C163.935 61.2032 160.49 57.8501 160.764 57.1532C161.038 56.4564 163.901 59.5473 163.901 59.5473C163.901 59.5473 161.161 56.1804 161.592 55.7182C162.024 55.2559 164.25 58.6435 164.572 58.5883C164.894 58.5331 163.257 56.0701 163.771 55.6354C164.284 55.2007 166.093 58.6642 166.093 58.6642C166.093 58.6642 166.093 56.5599 166.497 56.484C166.901 56.4081 167.031 59.6025 167.093 59.9682C167.155 60.3338 169.552 64.1078 169.552 64.1078" fill="#FFB5A9"/>
<path d="M179.826 73.1738C179.183 72.677 168.181 61.7554 168.181 61.7554C168.181 61.7554 165.674 62.6178 165.441 64.3495C165.441 64.3495 172.887 75.8645 175.196 77.4583" fill="black"/>
<path d="M184.839 162.151C183.896 162.151 181.823 161.727 181.823 161.727C181.823 161.727 178.612 160.306 177.737 158.792C177.559 158.485 177.475 158.13 177.495 157.772C177.516 157.415 177.64 157.072 177.852 156.79C179.129 155.169 181.005 158.379 182.927 156.79C183.634 156.544 184.052 157.563 184.538 157.772C186.9 158.792 188.092 158.426 188.965 158.124C189.678 157.878 190.412 161.484 190.304 162.151C190.195 162.819 189.518 163.246 189.18 163.37C188.841 163.494 188.076 163.466 187.133 163.137C186.189 162.809 185.783 162.151 184.839 162.151Z" fill="#050817"/>
<path d="M192.484 130.618L194.176 153.848C194.176 153.848 191.436 157.663 182.216 155.545L182.127 139.877" fill="#0028FA"/>
<path d="M191.54 136.579C188.666 138.261 185.615 139.617 182.443 140.622H182.375C182.299 140.585 182.217 140.564 182.133 140.561C182.049 140.557 181.965 140.57 181.886 140.6C181.808 140.629 181.736 140.675 181.675 140.733C181.614 140.791 181.566 140.862 181.532 140.939C179.572 141.527 177.577 141.988 175.559 142.319C172.97 142.74 170.819 140.808 168.168 140.67C168.168 130.411 168.12 101.192 172.456 95.0172L185.272 90.6982C185.334 91.7607 191.499 98.9775 191.348 107.733C191.25 115.515 191.63 123.296 192.485 131.032" fill="#0028FA"/>
<path d="M171.25 83.1982L172.435 94.9685C172.435 94.9685 182.025 95.3618 186.135 92.4917V82.5083" fill="black"/>
<path d="M177.34 72.4629C177.34 72.4629 172.819 73.691 170.99 76.6439C169.579 78.9138 168.84 87.1723 168.84 87.1723L160.818 84.8127C160.49 86.0945 159.861 87.2778 158.982 88.2624C158.982 88.2624 163.777 91.5879 167.963 92.4986C172.148 93.4093 176.601 86.2271 176.601 86.2271C176.601 86.2271 177.525 89.2076 177.34 86.027" fill="black"/>
<path d="M174.462 83.7848C175.78 82.6995 176.771 81.2661 177.325 79.6452C177.867 77.7824 177.188 76.1472 176.551 74.4155C175.867 72.7107 175.464 70.9044 175.36 69.0685C175.305 67.254 175.51 65.4464 175.634 63.6387C175.651 63.5615 175.651 63.4814 175.634 63.4042C176.236 61.3344 177.476 59.6371 179.915 59.4232C186.23 58.8851 186.587 65.9293 186.539 68.7925C186.491 71.6558 186.189 73.6221 188.279 74.795C190.368 75.9679 191.889 79.1347 189.888 81.6943C187.888 84.254 189.683 83.3088 191.019 85.5649C192.354 87.8209 192.005 90.6359 189.272 91.657C186.539 92.6781 173.825 90.7601 172.654 89.5872C172.239 89.1097 172.026 88.4887 172.058 87.8554C172.342 86.2494 173.196 84.8024 174.462 83.7848Z" fill="#FFC866"/>
<path d="M120.032 32.3843C121.22 32.3862 122.18 30.6525 122.177 28.5119C122.173 26.3714 121.208 24.6346 120.02 24.6328C118.832 24.6309 117.872 26.3646 117.875 28.5052C117.878 30.6457 118.844 32.3825 120.032 32.3843Z" fill="#3E3BBC"/>
<path d="M118.597 24.6292L120.022 24.6301L121.505 29.2773L120.033 32.3892L118.612 32.3905" fill="#3E3BBC"/>
<path d="M118.61 32.3883C119.798 32.3901 120.758 30.6564 120.755 28.5158C120.752 26.3753 119.786 24.6385 118.598 24.6367C117.41 24.6348 116.45 26.3686 116.453 28.5091C116.457 30.6496 117.422 32.3864 118.61 32.3883Z" fill="#8B7DE4"/>
<path d="M110.348 27.2642L118.244 27.557C118.349 27.56 118.45 27.5924 118.537 27.6505C118.668 27.7277 118.783 27.8304 118.875 27.9528C118.966 28.0751 119.033 28.2146 119.07 28.363C119.107 28.5113 119.115 28.6656 119.092 28.8168C119.069 28.9679 119.017 29.1129 118.937 29.2431C118.889 29.3383 118.815 29.4176 118.723 29.472C118.632 29.5264 118.527 29.5536 118.421 29.5504L110.327 29.291C110.184 29.2861 110.047 29.2256 109.946 29.1222C109.845 29.0187 109.788 28.8802 109.786 28.7355L109.786 27.8465C109.783 27.7706 109.796 27.6949 109.823 27.624C109.85 27.5531 109.891 27.4884 109.943 27.434C109.996 27.3796 110.059 27.3365 110.128 27.3073C110.198 27.2781 110.273 27.2635 110.348 27.2642Z" fill="#E3E3E3"/>
<path d="M108.491 31.9859C109.679 31.9878 110.639 30.254 110.636 28.1135C110.632 25.973 109.667 24.2362 108.479 24.2343C107.291 24.2325 106.331 25.9662 106.334 28.1067C106.337 30.2473 107.303 31.984 108.491 31.9859Z" fill="#3E3BBC"/>
<path d="M107.057 24.2254L108.479 24.2302L109.96 28.8713L108.49 31.9893L107.067 31.9845" fill="#3E3BBC"/>
<path d="M107.069 31.983C108.257 31.9848 109.217 30.2511 109.214 28.1106C109.211 25.97 108.245 24.2333 107.057 24.2314C105.869 24.2295 104.909 25.9633 104.912 28.1038C104.916 30.2444 105.881 31.9811 107.069 31.983Z" fill="#8B7DE4"/>
<path d="M106.92 29.9571C107.487 29.958 107.945 29.1297 107.944 28.1072C107.942 27.0846 107.481 26.2549 106.914 26.2541C106.347 26.2532 105.888 27.0814 105.89 28.104C105.891 29.1265 106.352 29.9562 106.92 29.9571Z" fill="#3E3BBC"/>
<path d="M106.233 26.2533L106.914 26.2558L107.624 28.4742L106.92 29.9616L106.239 29.9591" fill="#3E3BBC"/>
<path d="M106.242 29.9595C106.809 29.9604 107.268 29.1322 107.266 28.1096C107.265 27.0871 106.803 26.2574 106.236 26.2565C105.669 26.2556 105.21 27.0838 105.212 28.1064C105.213 29.129 105.675 29.9586 106.242 29.9595Z" fill="#B5B3FF"/>
<ellipse cx="114.055" cy="27.5294" rx="2.69951" ry="1.01961" fill="#FFBEB3"/>
<path d="M67.956 63.8955C67.956 63.8955 68.9835 70.9259 62.7637 71.5952C62.7637 71.5952 67.5587 72.7819 67.956 76.8249C67.956 76.8249 69.0314 72.085 72.9565 71.5952C72.9565 71.5952 68.3122 72.4576 67.956 63.8955Z" fill="#F4BA14"/>
<path d="M74.643 91.085C74.643 91.085 75.3913 95.8899 70.8613 96.3473C70.8613 96.3473 74.3536 97.1584 74.643 99.9216C74.643 99.9216 75.4263 96.6821 78.285 96.3473C78.285 96.3473 74.9024 96.9367 74.643 91.085Z" fill="#FFDF82"/>
<path d="M202.87 93.124C202.87 93.124 203.618 97.929 199.088 98.3864C199.088 98.3864 202.58 99.1974 202.87 101.961C202.87 101.961 203.653 98.7212 206.512 98.3864C206.512 98.3864 203.129 98.9758 202.87 93.124Z" fill="#FFDF82"/>
<path d="M172.338 158.379V161.618V164.497H177.872V158.379H172.338Z" fill="#FFBEB3"/>
<path d="M167.896 161.843C170.148 162.645 171.285 161.843 172.274 161.843C172.427 161.843 172.774 163.025 173.838 163.513C174.955 164.026 176.485 163.847 176.966 163.847C177.591 163.847 177.591 163.179 178.217 163.179C178.659 163.179 178.842 166.185 178.842 166.519C178.842 166.853 178.842 167.856 177.904 168.19C176.966 168.524 176.653 168.858 175.089 168.19C173.525 167.522 174.776 167.188 171.649 166.853C168.522 166.519 166.02 164.515 166.02 163.513C166.02 162.511 166.958 161.509 167.896 161.843Z" fill="#050817"/>
<path d="M181.805 135.22C182.004 137.221 181.805 159.285 181.805 159.285C181.805 159.285 179.257 164.114 168.16 159.285L168.318 140.539" fill="#0028FA"/>
</svg>
