<svg width="130" height="32" viewBox="0 0 130 32" fill="none" xmlns="http://www.w3.org/2000/svg">
<path d="M16.1686 29.0205C15.7375 29.0205 15.3212 28.9909 14.8901 28.9316C14.7414 28.9316 14.6076 28.902 14.459 28.8724L3.74065 26.992C2.55138 26.7847 1.51076 26.1332 0.826927 25.1412C0.128228 24.164 -0.139359 22.9646 0.0687646 21.7801C0.499877 19.3371 2.84869 17.6935 5.30157 18.1229L6.8625 18.3894C6.8625 18.2858 6.89223 18.1673 6.90709 18.0637L2.50678 8.69121C1.59996 6.75157 2.44731 4.42696 4.39475 3.52376C6.19353 2.6946 8.30449 3.33128 9.33024 4.95999L9.25591 4.56021C8.89913 2.4577 10.3114 0.429215 12.4372 0.0590534C14.3103 -0.266689 16.1091 0.784569 16.7632 2.48731C17.4322 1.05109 18.9634 0.103473 20.6432 0.251537C21.9812 0.369989 22.7096 0.962247 23.0961 1.43605C23.6313 2.10234 23.8691 3.00554 23.7799 4.05679C23.7353 4.61944 23.2448 5.01921 22.6799 4.97479C22.1149 4.93038 21.7136 4.44176 21.7582 3.87912C21.8474 2.82786 21.4608 2.35405 20.4648 2.26521C19.4391 2.17638 18.5323 2.9315 18.4282 3.96796L17.9674 9.16502C17.9228 9.66844 17.5065 10.0682 17.0011 10.083C16.4956 10.1126 16.0496 9.74247 15.9604 9.25386L14.9496 3.56818C14.7712 2.56134 13.8049 1.88025 12.7791 2.05792C11.7683 2.2356 11.0844 3.21283 11.2628 4.21967L12.6453 12.0523C12.7345 12.5557 12.4372 13.0443 11.9466 13.1924C11.4561 13.3404 10.9358 13.1183 10.7276 12.6593L7.73959 6.27776C7.30848 5.34496 6.19353 4.94518 5.24211 5.37457C4.30556 5.80396 3.90418 6.92925 4.33529 7.86205L8.8694 17.5603C8.95859 17.7528 8.98833 17.9749 8.94373 18.197C8.83967 18.6708 8.79507 19.1594 8.79507 19.6332C8.79507 19.9293 8.66128 20.2106 8.42342 20.4031C8.20043 20.5956 7.88825 20.6696 7.60579 20.6252L4.94479 20.1662C3.59199 19.9293 2.29866 20.8325 2.0608 22.1799C1.82294 23.5273 2.72977 24.8154 4.08257 25.0523L14.8009 26.9328C14.8901 26.9476 14.9793 26.9624 15.0536 26.9624C15.0834 26.9624 15.0982 26.9624 15.128 26.9624C15.901 27.066 16.674 27.0512 17.4173 26.918C20.8067 26.3257 23.3042 23.5125 23.4826 20.0774C23.5123 19.5147 23.9732 19.0853 24.553 19.115C25.1179 19.1446 25.549 19.6184 25.5192 20.181C25.2963 24.5489 22.1149 28.1469 17.789 28.902C17.2538 28.9909 16.7186 29.0501 16.1686 29.0501V29.0205Z" fill="#AEB5BC"/>
<path d="M42.9152 19.456C42.1124 18.079 40.3583 17.6052 38.9757 18.4048L35.6457 20.3148L40.0312 12.7487C40.834 11.3717 40.3583 9.60972 38.9757 8.82498C37.5932 8.02543 35.8241 8.49923 35.0362 9.87623L32.4198 14.3922L33.9213 8.81017C34.3375 7.2703 33.4159 5.70081 31.8847 5.28623C30.3535 4.87165 28.7628 5.78965 28.3466 7.31472L26.2802 14.9993V7.9662C26.2802 6.38191 24.9869 5.09375 23.3962 5.09375C21.8056 5.09375 20.5122 6.38191 20.5122 7.9662V18.6713C20.1852 19.1007 19.9027 19.5745 19.65 20.0779L17.435 18.538C15.8443 17.4275 13.659 17.8125 12.5589 19.3968C11.444 20.9811 11.8305 23.1576 13.4212 24.2533L22.3407 30.4572C22.4448 30.5312 22.5489 30.5905 22.6529 30.6497C23.3665 31.1087 24.1692 31.4788 25.0463 31.7158C28.8817 32.7374 32.8064 30.931 34.6051 27.5699L41.8894 23.3797C43.272 22.5802 43.7477 20.833 42.9449 19.456H42.9152Z" fill="#AEB5BC"/>
<ellipse cx="25.1323" cy="22.5728" rx="0.823721" ry="0.820809" fill="#F8F9FA"/>
<ellipse cx="30.0737" cy="22.5728" rx="0.823721" ry="0.820809" fill="#F8F9FA"/>
<path d="M28.3189 26.2654C28.001 26.8142 27.2086 26.8142 26.8906 26.2654L26.5393 25.6592C26.2205 25.1089 26.6176 24.42 27.2535 24.42L27.956 24.42C28.592 24.42 28.989 25.1089 28.6702 25.6592L28.3189 26.2654Z" fill="#F8F9FA"/>
<path d="M47.6836 17.8695C47.6836 17.6467 47.7282 17.5129 47.8173 17.4238C47.9065 17.3569 48.0402 17.3124 48.263 17.3124H55.5282V16.5992C54.3916 16.5547 53.4333 16.4655 52.6533 16.3095C51.851 16.1758 51.1824 15.9975 50.6922 15.7301C50.1796 15.5072 49.8007 15.1952 49.5779 14.8164C49.3327 14.4598 49.2213 14.0364 49.2213 13.5461C49.2213 13.0112 49.3773 12.5209 49.6893 12.1198C50.0013 11.7409 50.4916 11.4289 51.1824 11.1615C51.851 10.9387 52.7424 10.7604 53.8122 10.6267C54.8596 10.5375 56.1522 10.4707 57.6676 10.4707C59.183 10.4707 60.4756 10.5375 61.5453 10.6267C62.5927 10.7604 63.4619 10.9387 64.1527 11.1615C64.8213 11.4289 65.3339 11.7409 65.6459 12.1198C65.9579 12.5209 66.1139 13.0112 66.1139 13.5461C66.1139 14.0364 65.9801 14.4598 65.7573 14.8164C65.5121 15.1952 65.1333 15.5072 64.643 15.7301C64.1304 15.9975 63.4841 16.1758 62.7042 16.3095C61.9019 16.4655 60.9213 16.5547 59.807 16.5992V17.3124H67.0721C67.2727 17.3124 67.4287 17.3569 67.5179 17.4238C67.607 17.5129 67.6516 17.6467 67.6516 17.8695V19.8084C67.6516 20.0312 67.607 20.1872 67.5179 20.2541C67.4287 20.3432 67.2727 20.3655 67.0721 20.3655H48.263C48.0402 20.3655 47.9065 20.3432 47.8173 20.2541C47.7282 20.1872 47.6836 20.0312 47.6836 19.8084V17.8695ZM66.2253 25.0455C66.2253 25.9815 66.0247 26.6055 65.6236 26.9621C65.2224 27.2964 64.6207 27.4746 63.8184 27.4746H51.4944C50.6922 27.4746 50.0904 27.2964 49.6893 26.9621C49.2882 26.6055 49.0876 25.9815 49.0876 25.0455V21.9032C49.0876 21.6804 49.1322 21.5466 49.2213 21.4575C49.3104 21.3906 49.4442 21.3461 49.667 21.3461H65.6459C65.8464 21.3461 66.0024 21.3906 66.0916 21.4575C66.1807 21.5466 66.2253 21.6804 66.2253 21.9032V25.0455ZM48.7756 7.48438C48.7756 7.26152 48.8202 7.12781 48.9093 7.03866C48.9984 6.97181 49.1322 6.92723 49.355 6.92723H55.595V6.30324C55.595 6.08038 55.6396 5.94667 55.7287 5.85752C55.8179 5.79066 55.9516 5.74609 56.1744 5.74609H59.2944C59.495 5.74609 59.651 5.79066 59.7402 5.85752C59.8293 5.94667 59.8739 6.08038 59.8739 6.30324V6.92723H65.9801C66.1807 6.92723 66.3367 6.97181 66.4259 7.03866C66.515 7.12781 66.5596 7.26152 66.5596 7.48438V9.24495C66.5596 9.4678 66.515 9.6238 66.4259 9.69066C66.3367 9.7798 66.1807 9.80209 65.9801 9.80209H49.355C49.1322 9.80209 48.9984 9.7798 48.9093 9.69066C48.8202 9.6238 48.7756 9.4678 48.7756 9.24495V7.48438ZM61.5899 24.8226C61.7904 24.8226 61.9242 24.8004 62.0133 24.7558C62.0802 24.7112 62.1247 24.5998 62.1247 24.4438V23.8866H53.1436V24.4438C53.1436 24.5998 53.1659 24.7112 53.255 24.7558C53.3219 24.8004 53.4556 24.8226 53.6784 24.8226H61.5899ZM57.6676 14.1032C58.4922 14.1032 59.183 14.1032 59.7179 14.0587C60.2304 14.0587 60.6539 14.0141 60.9659 13.9695C61.2556 13.9249 61.4562 13.8804 61.5899 13.7912C61.679 13.7467 61.7459 13.6575 61.7459 13.5461C61.7459 13.4569 61.679 13.3678 61.5899 13.2787C61.4562 13.2118 61.2556 13.1449 60.9659 13.1004C60.6539 13.0558 60.2304 13.0335 59.7179 12.9889C59.183 12.9889 58.4922 12.9667 57.6676 12.9667C56.8207 12.9667 56.1522 12.9889 55.6173 12.9889C55.0824 13.0335 54.659 13.0558 54.3693 13.1004C54.0573 13.1449 53.8567 13.2118 53.7676 13.2787C53.6339 13.3678 53.5893 13.4569 53.5893 13.5461C53.5893 13.6575 53.6339 13.7467 53.7676 13.7912C53.8567 13.8804 54.0573 13.9249 54.3693 13.9695C54.659 14.0141 55.0824 14.0587 55.6173 14.0587C56.1522 14.1032 56.8207 14.1032 57.6676 14.1032Z" fill="#AEB5BC"/>
<path d="M86.7771 19.3849C86.7993 19.6078 86.7548 19.7638 86.6656 19.8084C86.5542 19.8752 86.3982 19.9198 86.1976 19.9421C85.1725 20.0535 84.1028 20.1427 83.0331 20.2095C81.9411 20.2987 80.8491 20.3432 79.7793 20.3878C78.6873 20.4546 77.6176 20.4992 76.5925 20.4992C75.5228 20.5438 74.5199 20.5438 73.5839 20.5438C72.1576 20.5438 71.1325 20.1649 70.5308 19.3849C69.9068 18.6272 69.5948 17.4238 69.5948 15.7301V6.86038C69.5948 6.63752 69.6394 6.50381 69.7285 6.41466C69.8176 6.34781 69.9514 6.30324 70.1742 6.30324H85.9302C86.1308 6.30324 86.2868 6.34781 86.3759 6.41466C86.465 6.50381 86.5096 6.63752 86.5096 6.86038V9.4678C86.5096 9.69066 86.465 9.84666 86.3759 9.91352C86.2868 10.0027 86.1308 10.0249 85.9302 10.0249H73.8736V11.6295H85.9525C86.1531 11.6295 86.3091 11.6741 86.3982 11.7409C86.4873 11.8301 86.5319 11.9638 86.5319 12.1867V14.5712C86.5319 14.7941 86.4873 14.9501 86.3982 15.0169C86.3091 15.1061 86.1531 15.1284 85.9525 15.1284H73.8736V15.5295C73.8736 16.0644 73.9851 16.4655 74.2079 16.7107C74.4308 16.9781 74.8319 17.0895 75.4336 17.0672C77.0382 17.0449 78.7765 16.9781 80.6039 16.8889C82.4313 16.7998 84.2142 16.6661 85.9748 16.4655C86.1753 16.4432 86.3091 16.4655 86.3982 16.5547C86.465 16.6438 86.5096 16.7998 86.5542 17.0227L86.7771 19.3849ZM68.1908 23.6415C68.1908 23.4186 68.2354 23.2849 68.3245 23.1958C68.4136 23.1289 68.5474 23.0844 68.7702 23.0844H87.5793C87.7799 23.0844 87.9359 23.1289 88.0251 23.1958C88.1142 23.2849 88.1588 23.4186 88.1588 23.6415V26.2489C88.1588 26.4718 88.1142 26.6055 88.0251 26.6946C87.9359 26.7615 87.7799 26.8061 87.5793 26.8061H68.7702C68.5474 26.8061 68.4136 26.7615 68.3245 26.6946C68.2354 26.6055 68.1908 26.4718 68.1908 26.2489V23.6415Z" fill="#AEB5BC"/>
<path d="M88.9654 6.86038C88.9654 6.63752 89.01 6.50381 89.0991 6.41466C89.1883 6.34781 89.322 6.30324 89.5448 6.30324H95.2277C95.7848 6.30324 96.2751 6.37009 96.6763 6.50381C97.0774 6.63752 97.4117 6.86038 97.6791 7.15009C97.9243 7.46209 98.1025 7.86323 98.2362 8.33123C98.3254 8.82152 98.37 9.42323 98.37 10.1141C98.3477 10.6712 98.3254 11.2507 98.3031 11.8747C98.2585 12.5209 98.214 13.1895 98.1471 13.8804H99.7294V6.86038C99.7294 6.63752 99.774 6.50381 99.8631 6.41466C99.9522 6.34781 100.086 6.30324 100.309 6.30324H103.095C103.295 6.30324 103.451 6.34781 103.54 6.41466C103.629 6.50381 103.674 6.63752 103.674 6.86038V26.4718C103.674 26.6946 103.629 26.8284 103.54 26.9175C103.451 26.9844 103.295 27.0289 103.095 27.0289H100.309C100.086 27.0289 99.9522 26.9844 99.8631 26.9175C99.774 26.8284 99.7294 26.6946 99.7294 26.4718V17.5798H97.7682C97.59 18.9838 97.3671 20.3878 97.1443 21.8141C96.8991 23.2404 96.6317 24.5998 96.3643 25.9146C96.3197 26.1375 96.2528 26.2935 96.2083 26.4049C96.1191 26.4941 95.9854 26.5164 95.7848 26.4718L92.91 25.8701C92.6871 25.8255 92.5311 25.7586 92.4197 25.6918C92.286 25.6026 92.286 25.4021 92.3751 25.0455C92.6425 23.9089 92.91 22.7278 93.1551 21.4575C93.378 20.2095 93.5785 18.9838 93.7568 17.7581C93.9128 16.5547 94.0465 15.3735 94.158 14.2592C94.2471 13.1672 94.2917 12.2089 94.2917 11.3621C94.2917 10.8049 94.2025 10.4484 94.0465 10.2701C93.8683 10.1141 93.6008 10.0249 93.222 10.0249H89.5448C89.322 10.0249 89.1883 10.0027 89.0991 9.91352C89.01 9.84666 88.9654 9.69066 88.9654 9.4678V6.86038ZM105.123 27.0289C104.9 27.0289 104.766 26.9844 104.677 26.9175C104.588 26.8284 104.543 26.6946 104.543 26.4718V6.86038C104.543 6.63752 104.588 6.50381 104.677 6.41466C104.766 6.34781 104.9 6.30324 105.123 6.30324H107.908C108.109 6.30324 108.265 6.34781 108.354 6.41466C108.443 6.50381 108.488 6.63752 108.488 6.86038V26.4718C108.488 26.6946 108.443 26.8284 108.354 26.9175C108.265 26.9844 108.109 27.0289 107.908 27.0289H105.123Z" fill="#AEB5BC"/>
<path d="M115.196 9.89123C115.107 11.6295 115.062 13.3678 115.062 15.1061C115.04 16.8667 115.04 18.7164 115.084 20.6775C115.084 21.2124 115.218 21.6135 115.441 21.8586C115.641 22.1261 116.043 22.2375 116.644 22.2152C117.736 22.1929 118.784 22.1484 119.809 22.0815C120.812 22.0369 121.881 21.9701 122.996 21.8586C123.196 21.8364 123.33 21.8586 123.419 21.9255C123.486 22.0146 123.531 22.1706 123.575 22.3935L123.798 24.9786C123.82 25.2015 123.776 25.3352 123.687 25.4021C123.575 25.4466 123.419 25.4912 123.219 25.5358C121.748 25.6472 120.321 25.7364 118.984 25.8255C117.603 25.8701 116.221 25.9146 114.795 25.9146C113.368 25.9146 112.343 25.5358 111.741 24.7781C111.117 23.9981 110.805 22.7946 110.805 21.1009C110.805 19.8084 110.805 18.5381 110.828 17.3124C110.828 16.1089 110.85 14.9055 110.895 13.7467C110.895 12.5878 110.939 11.4512 110.984 10.2924C111.006 9.17809 111.051 8.01923 111.117 6.86038C111.117 6.63752 111.184 6.50381 111.273 6.41466C111.34 6.34781 111.474 6.30324 111.697 6.30324H122.305C122.505 6.30324 122.661 6.34781 122.751 6.41466C122.84 6.50381 122.884 6.63752 122.884 6.86038V9.33409C122.884 9.55695 122.84 9.71295 122.751 9.7798C122.661 9.86895 122.505 9.89123 122.305 9.89123H115.196ZM120.277 14.4375C120.277 14.2147 120.321 14.0809 120.411 13.9918C120.5 13.9249 120.633 13.8804 120.856 13.8804H125.425V6.86038C125.425 6.63752 125.469 6.50381 125.559 6.41466C125.648 6.34781 125.781 6.30324 126.004 6.30324H129.124C129.325 6.30324 129.481 6.34781 129.57 6.41466C129.659 6.50381 129.704 6.63752 129.704 6.86038V26.4718C129.704 26.6946 129.659 26.8284 129.57 26.9175C129.481 26.9844 129.325 27.0289 129.124 27.0289H126.004C125.781 27.0289 125.648 26.9844 125.559 26.9175C125.469 26.8284 125.425 26.6946 125.425 26.4718V17.5798H120.856C120.633 17.5798 120.5 17.5575 120.411 17.4684C120.321 17.4015 120.277 17.2455 120.277 17.0227V14.4375Z" fill="#AEB5BC"/>
</svg>
