<svg width="253" height="13" viewBox="0 0 253 13" fill="none" xmlns="http://www.w3.org/2000/svg">
<path d="M7.52879 4.18232C7.21388 2.42541 5.82161 1.39779 4.10614 1.39779C1.92658 1.39779 0.351997 3.07182 0.351997 5.75691C0.351997 8.44199 1.92658 10.116 4.10614 10.116C5.8299 10.116 7.22216 9.07182 7.52879 7.33978H6.46802C6.2194 8.5 5.22493 9.12983 4.10614 9.12983C2.57299 9.12983 1.37962 7.94475 1.37962 5.75691C1.37962 3.56906 2.57299 2.38398 4.10614 2.38398C5.22493 2.38398 6.22769 3.01381 6.46802 4.18232H7.52879ZM10.9934 10.1326C12.7255 10.1326 13.8857 8.8232 13.8857 6.85083C13.8857 4.86188 12.7255 3.55249 10.9934 3.55249C9.26137 3.55249 8.09286 4.86188 8.09286 6.85083C8.09286 8.8232 9.26137 10.1326 10.9934 10.1326ZM10.9934 9.23757C9.7006 9.23757 9.10391 8.11878 9.10391 6.85083C9.10391 5.58287 9.7006 4.44751 10.9934 4.44751C12.2779 4.44751 12.8746 5.58287 12.8746 6.85083C12.8746 8.11878 12.2779 9.23757 10.9934 9.23757ZM15.7308 12.3867V9.0221H15.8137C16.0292 9.37845 16.4518 10.1326 17.6701 10.1326C19.2529 10.1326 20.3634 8.85635 20.3634 6.83425C20.3634 4.82044 19.2529 3.55249 17.6535 3.55249C16.4187 3.55249 16.0292 4.30663 15.8137 4.64641H15.6977V3.63536H14.7198V12.3867H15.7308ZM15.7143 6.81768C15.7143 5.40055 16.3358 4.4558 17.5209 4.4558C18.7474 4.4558 19.3524 5.48343 19.3524 6.81768C19.3524 8.16851 18.7308 9.22928 17.5209 9.22928C16.3524 9.22928 15.7143 8.24309 15.7143 6.81768ZM21.6011 12.3867C22.5044 12.3867 23.1259 11.9144 23.4988 10.9199L26.1922 3.63536H25.0983L23.358 8.69061H23.2917L21.5513 3.63536H20.4574L22.811 10.0414L22.6287 10.5304C22.2889 11.4586 21.9408 11.4834 21.5348 11.4834C21.3773 11.4834 21.1452 11.4751 21.0458 11.4669L21.0375 12.3619C21.1701 12.3785 21.3856 12.3867 21.6011 12.3867ZM27.8373 10V5.98895C27.8373 5.13536 28.5168 4.50552 29.4367 4.50552C29.6936 4.50552 29.9671 4.55525 30.0417 4.57182V3.55249C29.9257 3.5442 29.6687 3.53591 29.5196 3.53591C28.7654 3.53591 28.1024 3.96685 27.8704 4.60497H27.8041V3.63536H26.8262V10H27.8373ZM31.0553 2.58287C31.4365 2.58287 31.7597 2.28453 31.7597 1.9116C31.7597 1.53867 31.4365 1.24033 31.0553 1.24033C30.6658 1.24033 30.3426 1.53867 30.3426 1.9116C30.3426 2.28453 30.6658 2.58287 31.0553 2.58287ZM31.5526 10V3.63536H30.5415V10H31.5526ZM35.2604 12.5193C36.8102 12.5193 38.0201 11.8149 38.0201 10.174V3.63536H37.0422V4.64641H36.951C36.7273 4.30663 36.3295 3.55249 35.0947 3.55249C33.4952 3.55249 32.3765 4.77072 32.3765 6.73481C32.3765 8.73204 33.5367 9.90055 35.0781 9.90055C36.3129 9.90055 36.719 9.17956 36.9345 8.8232H37.0173V10.116C37.0173 11.1685 36.3461 11.6409 35.2604 11.6409C34.3571 11.6409 33.7521 11.3177 33.6195 10.663H32.5588C32.6748 11.8481 33.719 12.5193 35.2604 12.5193ZM35.2273 9.00552C34.0173 9.00552 33.3958 8.08564 33.3958 6.76796C33.3958 5.48343 34.0008 4.4558 35.2273 4.4558C36.4041 4.4558 37.0339 5.40055 37.0339 6.76796C37.0339 8.16851 36.3875 9.00552 35.2273 9.00552ZM40.1551 6.17956C40.1551 5.07735 40.8595 4.4558 41.8125 4.4558C42.7241 4.4558 43.2711 5.02762 43.2711 6.03039V10H44.2821V5.9558C44.2821 4.3232 43.412 3.55249 42.1109 3.55249C41.1081 3.55249 40.5363 3.97514 40.2379 4.63812H40.1551V1.51381H39.144V10H40.1551V6.17956ZM47.693 9.12155C47.2621 9.12155 46.856 8.98895 46.856 8.16851V4.48066H48.1985V3.63536H46.856V2.1105H45.845V3.63536H44.8836V4.48066H45.845V8.4337C45.845 9.55249 46.74 10.0829 47.5853 10.0829C47.8836 10.0829 48.1322 10.058 48.2897 10.0331V9.09669C48.1405 9.10497 47.8753 9.12155 47.693 9.12155ZM54.5323 7.72C53.9563 7.72 53.5083 7.544 53.1883 7.192C52.8683 6.84 52.7083 6.352 52.7083 5.728C52.7083 5.088 52.8723 4.596 53.2003 4.252C53.5363 3.9 53.9963 3.724 54.5803 3.724C54.7723 3.724 54.9563 3.744 55.1323 3.784C55.3163 3.816 55.4963 3.872 55.6723 3.952L55.4683 4.552C55.3163 4.488 55.1643 4.44 55.0123 4.408C54.8683 4.376 54.7203 4.36 54.5683 4.36C54.2163 4.36 53.9483 4.476 53.7643 4.708C53.5883 4.932 53.5003 5.272 53.5003 5.728C53.5003 6.16 53.5883 6.496 53.7643 6.736C53.9403 6.968 54.1963 7.084 54.5323 7.084C54.6923 7.084 54.8603 7.064 55.0363 7.024C55.2203 6.976 55.4123 6.912 55.6123 6.832V7.48C55.4203 7.56 55.2363 7.62 55.0603 7.66C54.8843 7.7 54.7083 7.72 54.5323 7.72ZM54.2083 10.66C53.5283 10.66 52.8883 10.532 52.2883 10.276C51.6883 10.02 51.1603 9.668 50.7043 9.22C50.2563 8.764 49.9043 8.236 49.6483 7.636C49.3923 7.036 49.2643 6.396 49.2643 5.716C49.2643 5.028 49.3923 4.388 49.6483 3.796C49.9043 3.196 50.2563 2.672 50.7043 2.224C51.1603 1.768 51.6883 1.412 52.2883 1.156C52.8883 0.899999 53.5283 0.771999 54.2083 0.771999C54.8963 0.771999 55.5363 0.899999 56.1283 1.156C56.7283 1.412 57.2523 1.768 57.7003 2.224C58.1563 2.672 58.5123 3.196 58.7683 3.796C59.0243 4.388 59.1523 5.028 59.1523 5.716C59.1523 6.396 59.0243 7.036 58.7683 7.636C58.5123 8.236 58.1563 8.764 57.7003 9.22C57.2523 9.668 56.7283 10.02 56.1283 10.276C55.5363 10.532 54.8963 10.66 54.2083 10.66ZM54.2083 9.988C54.8003 9.988 55.3523 9.88 55.8643 9.664C56.3843 9.44 56.8403 9.132 57.2323 8.74C57.6243 8.348 57.9283 7.896 58.1443 7.384C58.3683 6.864 58.4803 6.308 58.4803 5.716C58.4803 5.124 58.3683 4.572 58.1443 4.06C57.9283 3.54 57.6243 3.084 57.2323 2.692C56.8403 2.3 56.3843 1.996 55.8643 1.78C55.3523 1.556 54.8003 1.444 54.2083 1.444C53.6163 1.444 53.0603 1.556 52.5403 1.78C52.0283 1.996 51.5763 2.3 51.1843 2.692C50.7923 3.084 50.4843 3.54 50.2603 4.06C50.0443 4.572 49.9363 5.124 49.9363 5.716C49.9363 6.308 50.0443 6.864 50.2603 7.384C50.4843 7.896 50.7923 8.348 51.1843 8.74C51.5763 9.132 52.0283 9.44 52.5403 9.664C53.0603 9.88 53.6163 9.988 54.2083 9.988ZM68.5666 10V9.06354H64.5224V8.99724L66.4617 6.99171C67.9699 5.44199 68.4092 4.70442 68.4175 3.75967C68.4092 2.4337 67.3152 1.39779 65.7738 1.39779C64.2407 1.39779 63.0804 2.40884 63.0887 3.90884H64.0915C64.0915 2.9558 64.7296 2.31768 65.7407 2.31768C66.6937 2.31768 67.423 2.88121 67.4313 3.75967C67.423 4.53867 66.9423 5.1105 65.9396 6.17956L63.0473 9.22928L63.0556 10H68.5666ZM72.3948 10.116C74.276 10.116 75.3616 8.53315 75.3616 5.75691C75.3616 3.00552 74.2594 1.39779 72.3948 1.39779C70.5301 1.39779 69.4279 3.00552 69.4279 5.75691C69.4279 8.53315 70.5136 10.116 72.3948 10.116ZM72.3948 9.17956C71.1683 9.17956 70.4556 7.95304 70.4556 5.75691C70.4556 3.56077 71.1766 2.31768 72.3948 2.31768C73.613 2.31768 74.334 3.56077 74.334 5.75691C74.334 7.95304 73.6213 9.17956 72.3948 9.17956ZM81.798 10V9.06354H77.7538V8.99724L79.6931 6.99171C81.2013 5.44199 81.6406 4.70442 81.6489 3.75967C81.6406 2.4337 80.5467 1.39779 79.0052 1.39779C77.4721 1.39779 76.3118 2.40884 76.3201 3.90884H77.3229C77.3229 2.9558 77.961 2.31768 78.9721 2.31768C79.9251 2.31768 80.6544 2.88121 80.6627 3.75967C80.6544 4.53867 80.1737 5.1105 79.171 6.17956L76.2787 9.22928L76.287 10H81.798ZM88.361 10V9.06354H84.3168V8.99724L86.256 6.99171C87.7643 5.44199 88.2035 4.70442 88.2118 3.75967C88.2035 2.4337 87.1096 1.39779 85.5682 1.39779C84.035 1.39779 82.8748 2.40884 82.8831 3.90884H83.8859C83.8859 2.9558 84.524 2.31768 85.535 2.31768C86.4881 2.31768 87.2174 2.88121 87.2256 3.75967C87.2174 4.53867 86.7367 5.1105 85.7339 6.17956L82.8417 9.22928L82.8499 10H88.361ZM94.2899 2.45028V10H95.3507V2.45028H98.0109V1.51381H91.6214V2.45028H94.2899ZM103.212 6.73481C103.212 4.37293 101.803 3.55249 100.46 3.55249C98.7367 3.55249 97.5847 4.9116 97.5847 6.8674C97.5847 8.8232 98.7201 10.1326 100.56 10.1326C101.869 10.1326 102.814 9.4779 103.112 8.50829H102.035C101.803 8.90608 101.322 9.23757 100.56 9.23757C99.4287 9.23757 98.6455 8.5 98.5999 7.15746H103.212V6.73481ZM98.5999 6.29558C98.6662 5.31768 99.3624 4.44751 100.469 4.44751C101.513 4.44751 102.184 5.23481 102.184 6.29558H98.5999ZM106.456 3.55249C105.047 3.55249 104.052 4.26519 103.928 5.29282H104.972C105.122 4.80387 105.602 4.43094 106.406 4.43094C107.367 4.43094 107.848 4.90331 107.848 5.70718V6.22514C107.566 6.23343 106.539 6.29144 106.124 6.32044C105.022 6.40331 103.738 6.73481 103.738 8.19337C103.738 9.43646 104.699 10.1492 105.909 10.1492C107.011 10.1492 107.591 9.56077 107.798 9.13812H107.848V10H108.851V5.80663C108.851 3.8011 107.285 3.55249 106.456 3.55249ZM106.075 9.25414C105.304 9.25414 104.749 8.91436 104.749 8.24309C104.749 7.54696 105.329 7.22376 106.249 7.16575C106.551 7.14503 107.55 7.07044 107.848 7.05387V7.69613C107.848 8.49171 107.218 9.25414 106.075 9.25414ZM110.989 10V6.03039C110.989 5.10221 111.66 4.4558 112.414 4.4558C113.152 4.4558 113.666 4.93646 113.666 5.65746V10H114.685V5.86464C114.685 5.05249 115.19 4.4558 116.077 4.4558C116.773 4.4558 117.362 4.82044 117.362 5.75691V10H118.373V5.74033C118.373 4.24862 117.561 3.55249 116.425 3.55249C115.514 3.55249 114.842 3.97514 114.519 4.63812H114.453C114.146 3.95028 113.583 3.55249 112.746 3.55249C111.917 3.55249 111.304 3.95028 111.039 4.63812H110.956V3.63536H109.978V10H110.989ZM123.222 10V6.21271H127.714V10H128.775V1.51381H127.714V5.28453H123.222V1.51381H122.17V10H123.222ZM132.309 9.12155C131.878 9.12155 131.472 8.98895 131.472 8.16851V4.48066H132.814V3.63536H131.472V2.1105H130.461V3.63536H129.5V4.48066H130.461V8.4337C130.461 9.55249 131.356 10.0829 132.201 10.0829C132.5 10.0829 132.748 10.058 132.906 10.0331V9.09669C132.756 9.10497 132.491 9.12155 132.309 9.12155ZM136.143 12.5193C137.693 12.5193 138.903 11.8149 138.903 10.174V3.63536H137.925V4.64641H137.834C137.61 4.30663 137.212 3.55249 135.978 3.55249C134.378 3.55249 133.259 4.77072 133.259 6.73481C133.259 8.73204 134.42 9.90055 135.961 9.90055C137.196 9.90055 137.602 9.17956 137.817 8.8232H137.9V10.116C137.9 11.1685 137.229 11.6409 136.143 11.6409C135.24 11.6409 134.635 11.3177 134.503 10.663H133.442C133.558 11.8481 134.602 12.5193 136.143 12.5193ZM136.11 9.00552C134.9 9.00552 134.279 8.08564 134.279 6.76796C134.279 5.48343 134.884 4.4558 136.11 4.4558C137.287 4.4558 137.917 5.40055 137.917 6.76796C137.917 8.16851 137.27 9.00552 136.11 9.00552ZM142.447 3.55249C141.038 3.55249 140.044 4.26519 139.919 5.29282H140.963C141.113 4.80387 141.593 4.43094 142.397 4.43094C143.358 4.43094 143.839 4.90331 143.839 5.70718V6.22514C143.557 6.23343 142.53 6.29144 142.115 6.32044C141.013 6.40331 139.729 6.73481 139.729 8.19337C139.729 9.43646 140.69 10.1492 141.9 10.1492C143.002 10.1492 143.582 9.56077 143.789 9.13812H143.839V10H144.842V5.80663C144.842 3.8011 143.276 3.55249 142.447 3.55249ZM142.066 9.25414C141.295 9.25414 140.74 8.91436 140.74 8.24309C140.74 7.54696 141.32 7.22376 142.24 7.16575C142.542 7.14503 143.541 7.07044 143.839 7.05387V7.69613C143.839 8.49171 143.209 9.25414 142.066 9.25414ZM148.248 9.12155C147.817 9.12155 147.411 8.98895 147.411 8.16851V4.48066H148.753V3.63536H147.411V2.1105H146.4V3.63536H145.438V4.48066H146.4V8.4337C146.4 9.55249 147.295 10.0829 148.14 10.0829C148.438 10.0829 148.687 10.058 148.845 10.0331V9.09669C148.695 9.10497 148.43 9.12155 148.248 9.12155ZM150.707 6.17956C150.707 5.07735 151.411 4.4558 152.364 4.4558C153.276 4.4558 153.823 5.02762 153.823 6.03039V10H154.834V5.9558C154.834 4.3232 153.964 3.55249 152.663 3.55249C151.66 3.55249 151.088 3.97514 150.79 4.63812H150.707V1.51381H149.696V10H150.707V6.17956ZM161.295 6.73481C161.295 4.37293 159.886 3.55249 158.543 3.55249C156.819 3.55249 155.668 4.9116 155.668 6.8674C155.668 8.8232 156.803 10.1326 158.643 10.1326C159.952 10.1326 160.897 9.4779 161.195 8.50829H160.118C159.886 8.90608 159.405 9.23757 158.643 9.23757C157.511 9.23757 156.728 8.5 156.683 7.15746H161.295V6.73481ZM156.683 6.29558C156.749 5.31768 157.445 4.44751 158.552 4.44751C159.596 4.44751 160.267 5.23481 160.267 6.29558H156.683ZM163.13 10V5.98895C163.13 5.13536 163.809 4.50552 164.729 4.50552C164.986 4.50552 165.26 4.55525 165.334 4.57182V3.55249C165.218 3.5442 164.961 3.53591 164.812 3.53591C164.058 3.53591 163.395 3.96685 163.163 4.60497H163.097V3.63536H162.119V10H163.13ZM175.095 10L171.987 1.51381H170.877L167.769 10H168.88L169.725 7.61326H173.139L173.985 10H175.095ZM171.399 2.88121H171.465L172.812 6.68508H170.052L171.399 2.88121ZM175.632 1.51381V10H176.643V1.51381H175.632ZM177.765 1.51381V10H178.776V1.51381H177.765ZM183.441 10V5.98895C183.441 5.13536 184.121 4.50552 185.041 4.50552C185.298 4.50552 185.571 4.55525 185.646 4.57182V3.55249C185.53 3.5442 185.273 3.53591 185.123 3.53591C184.369 3.53591 183.706 3.96685 183.474 4.60497H183.408V3.63536H182.43V10H183.441ZM186.659 2.58287C187.04 2.58287 187.364 2.28453 187.364 1.9116C187.364 1.53867 187.04 1.24033 186.659 1.24033C186.27 1.24033 185.947 1.53867 185.947 1.9116C185.947 2.28453 186.27 2.58287 186.659 2.58287ZM187.156 10V3.63536H186.145V10H187.156ZM190.864 12.5193C192.414 12.5193 193.624 11.8149 193.624 10.174V3.63536H192.646V4.64641H192.555C192.331 4.30663 191.933 3.55249 190.699 3.55249C189.099 3.55249 187.98 4.77072 187.98 6.73481C187.98 8.73204 189.141 9.90055 190.682 9.90055C191.917 9.90055 192.323 9.17956 192.538 8.8232H192.621V10.116C192.621 11.1685 191.95 11.6409 190.864 11.6409C189.961 11.6409 189.356 11.3177 189.223 10.663H188.163C188.279 11.8481 189.323 12.5193 190.864 12.5193ZM190.831 9.00552C189.621 9.00552 189 8.08564 189 6.76796C189 5.48343 189.605 4.4558 190.831 4.4558C192.008 4.4558 192.638 5.40055 192.638 6.76796C192.638 8.16851 191.991 9.00552 190.831 9.00552ZM195.759 6.17956C195.759 5.07735 196.463 4.4558 197.416 4.4558C198.328 4.4558 198.875 5.02762 198.875 6.03039V10H199.886V5.9558C199.886 4.3232 199.016 3.55249 197.715 3.55249C196.712 3.55249 196.14 3.97514 195.842 4.63812H195.759V1.51381H194.748V10H195.759V6.17956ZM203.297 9.12155C202.866 9.12155 202.46 8.98895 202.46 8.16851V4.48066H203.802V3.63536H202.46V2.1105H201.449V3.63536H200.488V4.48066H201.449V8.4337C201.449 9.55249 202.344 10.0829 203.189 10.0829C203.488 10.0829 203.736 10.058 203.894 10.0331V9.09669C203.744 9.10497 203.479 9.12155 203.297 9.12155ZM208.159 10V5.98895C208.159 5.13536 208.838 4.50552 209.758 4.50552C210.015 4.50552 210.289 4.55525 210.363 4.57182V3.55249C210.247 3.5442 209.99 3.53591 209.841 3.53591C209.087 3.53591 208.424 3.96685 208.192 4.60497H208.126V3.63536H207.148V10H208.159ZM215.993 6.73481C215.993 4.37293 214.584 3.55249 213.241 3.55249C211.517 3.55249 210.366 4.9116 210.366 6.8674C210.366 8.8232 211.501 10.1326 213.341 10.1326C214.65 10.1326 215.595 9.4779 215.893 8.50829H214.816C214.584 8.90608 214.103 9.23757 213.341 9.23757C212.209 9.23757 211.426 8.5 211.381 7.15746H215.993V6.73481ZM211.381 6.29558C211.447 5.31768 212.143 4.44751 213.25 4.44751C214.294 4.44751 214.965 5.23481 214.965 6.29558H211.381ZM221.35 5.29282C221.217 4.25691 220.388 3.55249 219.071 3.55249C217.67 3.55249 216.717 4.33978 216.717 5.42541C216.717 6.27901 217.306 6.88398 218.416 7.14088L219.377 7.36464C220.098 7.53039 220.422 7.82873 220.422 8.27624C220.422 8.87293 219.85 9.25414 218.947 9.25414C218.143 9.25414 217.687 8.9558 217.571 8.33425H216.518C216.684 9.49448 217.538 10.1326 218.963 10.1326C220.563 10.1326 221.458 9.32044 221.458 8.21823C221.458 7.33149 220.902 6.76796 219.767 6.49448L218.814 6.26243C218.068 6.08011 217.728 5.79006 217.728 5.3674C217.728 4.83702 218.284 4.41436 219.071 4.41436C219.817 4.41436 220.223 4.76243 220.355 5.29282H221.35ZM227.619 6.73481C227.619 4.37293 226.21 3.55249 224.867 3.55249C223.143 3.55249 221.991 4.9116 221.991 6.8674C221.991 8.8232 223.127 10.1326 224.967 10.1326C226.276 10.1326 227.221 9.4779 227.519 8.50829H226.442C226.21 8.90608 225.729 9.23757 224.967 9.23757C223.835 9.23757 223.052 8.5 223.007 7.15746H227.619V6.73481ZM223.007 6.29558C223.073 5.31768 223.769 4.44751 224.875 4.44751C225.92 4.44751 226.591 5.23481 226.591 6.29558H223.007ZM229.454 10V5.98895C229.454 5.13536 230.133 4.50552 231.053 4.50552C231.31 4.50552 231.583 4.55525 231.658 4.57182V3.55249C231.542 3.5442 231.285 3.53591 231.136 3.53591C230.382 3.53591 229.719 3.96685 229.487 4.60497H229.421V3.63536H228.443V10H229.454ZM236.501 3.63536L234.76 8.68232H234.694L232.954 3.63536H231.86L234.205 10H235.241L237.595 3.63536H236.501ZM243.323 6.73481C243.323 4.37293 241.914 3.55249 240.572 3.55249C238.848 3.55249 237.696 4.9116 237.696 6.8674C237.696 8.8232 238.831 10.1326 240.671 10.1326C241.981 10.1326 242.925 9.4779 243.224 8.50829H242.146C241.914 8.90608 241.434 9.23757 240.671 9.23757C239.54 9.23757 238.757 8.5 238.711 7.15746H243.323V6.73481ZM238.711 6.29558C238.777 5.31768 239.474 4.44751 240.58 4.44751C241.624 4.44751 242.295 5.23481 242.295 6.29558H238.711ZM246.55 10.1326C247.769 10.1326 248.183 9.37845 248.407 9.0221H248.515V10H249.492V1.51381H248.481V4.64641H248.407C248.191 4.30663 247.802 3.55249 246.567 3.55249C244.968 3.55249 243.849 4.82044 243.849 6.83425C243.849 8.85635 244.968 10.1326 246.55 10.1326ZM246.7 9.22928C245.49 9.22928 244.868 8.16851 244.868 6.81768C244.868 5.48343 245.473 4.4558 246.7 4.4558C247.876 4.4558 248.506 5.40055 248.506 6.81768C248.506 8.24309 247.86 9.22928 246.7 9.22928ZM251.478 10.0663C251.892 10.0663 252.232 9.72652 252.232 9.31215C252.232 8.89779 251.892 8.55801 251.478 8.55801C251.064 8.55801 250.716 8.89779 250.724 9.31215C250.716 9.72652 251.064 10.0663 251.478 10.0663Z" fill="#AEB5BC"/>
</svg>
