<svg width="24" height="24" viewBox="0 0 24 24" fill="none" xmlns="http://www.w3.org/2000/svg">
<path d="M12.4 2C6.656 2 2 5.94 2 10.8C2 12.9409 2.90578 14.9009 4.40781 16.4266C4.43814 16.502 5.20881 18.4853 2.92656 20.5078C2.88659 20.5453 2.85472 20.5905 2.83295 20.6408C2.81118 20.691 2.79997 20.7452 2.8 20.8C2.8 20.9061 2.84214 21.0078 2.91716 21.0828C2.99217 21.1579 3.09391 21.2 3.2 21.2C3.2289 21.2 3.25771 21.1968 3.28594 21.1906C5.58663 21.0543 7.55476 19.9126 8.75625 19.0328C9.89176 19.3929 11.1159 19.6 12.4 19.6C18.144 19.6 22.8 15.66 22.8 10.8C22.8 5.94 18.144 2 12.4 2ZM12.4 5.6C13.0624 5.6 13.6 6.1376 13.6 6.8C13.6 7.4624 13.0624 8 12.4 8C11.7376 8 11.2 7.4624 11.2 6.8C11.2 6.1376 11.7376 5.6 12.4 5.6ZM11.6 10H13.2V15.6H11.6V10Z" fill="#4A5056"/>
</svg>
