<svg width="315" height="78" viewBox="0 0 315 78" fill="none" xmlns="http://www.w3.org/2000/svg">
<path d="M39.1777 70.7373C38.1331 70.7373 37.1245 70.6651 36.0799 70.5207C35.7197 70.5207 35.3955 70.4485 35.0353 70.3764L9.06389 65.7928C6.18219 65.2876 3.66069 63.6996 2.00371 61.2815C0.310707 58.8995 -0.337677 55.9762 0.166622 53.0889C1.21124 47.134 6.90261 43.1279 12.8461 44.1745L16.6284 44.8242C16.6284 44.5715 16.7004 44.2828 16.7364 44.0302L6.07412 21.1848C3.87682 16.4569 5.93004 10.7907 10.6488 8.58916C15.0074 6.56808 20.1224 8.11998 22.6079 12.0899L22.4278 11.1155C21.5633 5.99063 24.9853 1.04621 30.1364 0.143942C34.6751 -0.650052 39.0337 1.91238 40.6186 6.06281C42.2396 2.56202 45.9498 0.252214 50.0202 0.613121C53.2621 0.901846 55.0271 2.34547 55.9637 3.50037C57.2605 5.12445 57.8368 7.32598 57.6207 9.88842C57.5126 11.2599 56.3239 12.2343 54.9551 12.126C53.5863 12.0178 52.6137 10.8268 52.7218 9.45533C52.9379 6.89289 52.0013 5.73799 49.5879 5.52145C47.1024 5.30491 44.9051 7.14553 44.653 9.67188L43.5363 22.3397C43.4283 23.5668 42.4197 24.5412 41.1949 24.5773C39.9702 24.6495 38.8896 23.7472 38.6734 22.5562L36.224 8.69743C35.7917 6.24326 33.4503 4.58309 30.9649 5.01618C28.5154 5.44927 26.8584 7.83125 27.2907 10.2854L30.6407 29.3774C30.8568 30.6045 30.1364 31.7954 28.9477 32.1564C27.759 32.5173 26.4982 31.9759 25.9939 30.8571L18.7536 15.302C17.709 13.0283 15.0074 12.0539 12.7021 13.1005C10.4327 14.1471 9.46013 16.89 10.5047 19.1637L21.4913 42.8031C21.7074 43.2723 21.7794 43.8136 21.6714 44.355C21.4192 45.5099 21.3112 46.7009 21.3112 47.8558C21.3112 48.5776 20.987 49.2633 20.4106 49.7325C19.8703 50.2017 19.1139 50.3821 18.4294 50.2739L11.9816 49.1551C8.70368 48.5776 5.56982 50.7791 4.99348 54.0634C4.41714 57.3476 6.61444 60.4875 9.89239 61.065L35.8638 65.6485C36.0799 65.6846 36.296 65.7207 36.4761 65.7207C36.5482 65.7207 36.5842 65.7207 36.6562 65.7207C38.5294 65.9733 40.4025 65.9372 42.2035 65.6124C50.4164 64.1688 56.468 57.3115 56.9002 48.9385C56.9723 47.5671 58.0889 46.5204 59.4938 46.5926C60.8626 46.6648 61.9072 47.8197 61.8352 49.1911C61.2948 59.8379 53.5863 68.6079 43.1041 70.4485C41.8073 70.6651 40.5105 70.8095 39.1777 70.8095V70.7373Z" fill="#405EFB"/>
<path d="M103.984 47.4225C102.039 44.0661 97.7884 42.9112 94.4384 44.8601L86.3696 49.5158L96.9959 31.0734C98.941 27.717 97.7884 23.4222 94.4384 21.5094C91.0884 19.5605 86.8018 20.7154 84.8927 24.0718L78.553 35.0795L82.1911 21.4733C83.1997 17.7199 80.9664 13.8943 77.2562 12.8837C73.546 11.8732 69.6917 14.1108 68.6831 17.8281L63.6761 36.5592V19.4161C63.6761 15.5544 60.5423 12.4146 56.688 12.4146C52.8337 12.4146 49.6999 15.5544 49.6999 19.4161V45.5097C48.9074 46.5563 48.223 47.7112 47.6106 48.9383L42.2434 45.1849C38.3892 42.4781 33.094 43.4164 30.4284 47.2781C27.7268 51.1398 28.6634 56.4452 32.5177 59.1159L54.1305 74.2379C54.3826 74.4183 54.6348 74.5627 54.8869 74.707C56.616 75.8258 58.5611 76.7281 60.6864 77.3056C69.9799 79.7958 79.4895 75.3928 83.8481 67.2002L101.499 56.9865C104.849 55.0376 106.001 50.7789 104.056 47.4225H103.984Z" fill="#0028FA"/>
<ellipse cx="60.9022" cy="55.0193" rx="1.99594" ry="2.00072" fill="white"/>
<ellipse cx="72.8768" cy="55.0193" rx="1.99594" ry="2.00072" fill="white"/>
<path d="M68.6221 64.0145C67.8528 65.3502 65.9253 65.3502 65.156 64.0145L64.2946 62.519C63.5266 61.1856 64.489 59.5207 66.0277 59.5207L67.7504 59.5207C69.2891 59.5207 70.2515 61.1856 69.4835 62.519L68.6221 64.0145Z" fill="white"/>
<path d="M115.543 43.376C115.543 42.836 115.651 42.512 115.867 42.296C116.083 42.134 116.407 42.026 116.947 42.026H134.551V40.298C131.797 40.19 129.475 39.974 127.585 39.596C125.641 39.272 124.021 38.84 122.833 38.192C121.591 37.652 120.673 36.896 120.133 35.978C119.539 35.114 119.269 34.088 119.269 32.9C119.269 31.604 119.647 30.416 120.403 29.444C121.159 28.526 122.347 27.77 124.021 27.122C125.641 26.582 127.801 26.15 130.393 25.826C132.931 25.61 136.063 25.448 139.735 25.448C143.407 25.448 146.539 25.61 149.131 25.826C151.669 26.15 153.775 26.582 155.449 27.122C157.069 27.77 158.311 28.526 159.067 29.444C159.823 30.416 160.201 31.604 160.201 32.9C160.201 34.088 159.877 35.114 159.337 35.978C158.743 36.896 157.825 37.652 156.637 38.192C155.395 38.84 153.829 39.272 151.939 39.596C149.995 39.974 147.619 40.19 144.919 40.298V42.026H162.523C163.009 42.026 163.387 42.134 163.603 42.296C163.819 42.512 163.927 42.836 163.927 43.376V48.074C163.927 48.614 163.819 48.992 163.603 49.154C163.387 49.37 163.009 49.424 162.523 49.424H116.947C116.407 49.424 116.083 49.37 115.867 49.154C115.651 48.992 115.543 48.614 115.543 48.074V43.376ZM160.471 60.764C160.471 63.032 159.985 64.544 159.013 65.408C158.041 66.218 156.583 66.65 154.639 66.65H124.777C122.833 66.65 121.375 66.218 120.403 65.408C119.431 64.544 118.945 63.032 118.945 60.764V53.15C118.945 52.61 119.053 52.286 119.269 52.07C119.485 51.908 119.809 51.8 120.349 51.8H159.067C159.553 51.8 159.931 51.908 160.147 52.07C160.363 52.286 160.471 52.61 160.471 53.15V60.764ZM118.189 18.212C118.189 17.672 118.297 17.348 118.513 17.132C118.729 16.97 119.053 16.862 119.593 16.862H134.713V15.35C134.713 14.81 134.821 14.486 135.037 14.27C135.253 14.108 135.577 14 136.117 14H143.677C144.163 14 144.541 14.108 144.757 14.27C144.973 14.486 145.081 14.81 145.081 15.35V16.862H159.877C160.363 16.862 160.741 16.97 160.957 17.132C161.173 17.348 161.281 17.672 161.281 18.212V22.478C161.281 23.018 161.173 23.396 160.957 23.558C160.741 23.774 160.363 23.828 159.877 23.828H119.593C119.053 23.828 118.729 23.774 118.513 23.558C118.297 23.396 118.189 23.018 118.189 22.478V18.212ZM149.239 60.224C149.725 60.224 150.049 60.17 150.265 60.062C150.427 59.954 150.535 59.684 150.535 59.306V57.956H128.773V59.306C128.773 59.684 128.827 59.954 129.043 60.062C129.205 60.17 129.529 60.224 130.069 60.224H149.239ZM139.735 34.25C141.733 34.25 143.407 34.25 144.703 34.142C145.945 34.142 146.971 34.034 147.727 33.926C148.429 33.818 148.915 33.71 149.239 33.494C149.455 33.386 149.617 33.17 149.617 32.9C149.617 32.684 149.455 32.468 149.239 32.252C148.915 32.09 148.429 31.928 147.727 31.82C146.971 31.712 145.945 31.658 144.703 31.55C143.407 31.55 141.733 31.496 139.735 31.496C137.683 31.496 136.063 31.55 134.767 31.55C133.471 31.658 132.445 31.712 131.743 31.82C130.987 31.928 130.501 32.09 130.285 32.252C129.961 32.468 129.853 32.684 129.853 32.9C129.853 33.17 129.961 33.386 130.285 33.494C130.501 33.71 130.987 33.818 131.743 33.926C132.445 34.034 133.471 34.142 134.767 34.142C136.063 34.25 137.683 34.25 139.735 34.25Z" fill="#222529"/>
<path d="M210.27 47.048C210.324 47.588 210.216 47.966 210 48.074C209.73 48.236 209.352 48.344 208.866 48.398C206.382 48.668 203.79 48.884 201.198 49.046C198.552 49.262 195.906 49.37 193.314 49.478C190.668 49.64 188.076 49.748 185.592 49.748C183 49.856 180.57 49.856 178.302 49.856C174.846 49.856 172.362 48.938 170.904 47.048C169.392 45.212 168.636 42.296 168.636 38.192V16.7C168.636 16.16 168.744 15.836 168.96 15.62C169.176 15.458 169.5 15.35 170.04 15.35H208.218C208.704 15.35 209.082 15.458 209.298 15.62C209.514 15.836 209.622 16.16 209.622 16.7V23.018C209.622 23.558 209.514 23.936 209.298 24.098C209.082 24.314 208.704 24.368 208.218 24.368H179.004V28.256H208.272C208.758 28.256 209.136 28.364 209.352 28.526C209.568 28.742 209.676 29.066 209.676 29.606V35.384C209.676 35.924 209.568 36.302 209.352 36.464C209.136 36.68 208.758 36.734 208.272 36.734H179.004V37.706C179.004 39.002 179.274 39.974 179.814 40.568C180.354 41.216 181.326 41.486 182.784 41.432C186.672 41.378 190.884 41.216 195.312 41C199.74 40.784 204.06 40.46 208.326 39.974C208.812 39.92 209.136 39.974 209.352 40.19C209.514 40.406 209.622 40.784 209.73 41.324L210.27 47.048ZM165.234 57.362C165.234 56.822 165.342 56.498 165.558 56.282C165.774 56.12 166.098 56.012 166.638 56.012H212.214C212.7 56.012 213.078 56.12 213.294 56.282C213.51 56.498 213.618 56.822 213.618 57.362V63.68C213.618 64.22 213.51 64.544 213.294 64.76C213.078 64.922 212.7 65.03 212.214 65.03H166.638C166.098 65.03 165.774 64.922 165.558 64.76C165.342 64.544 165.234 64.22 165.234 63.68V57.362Z" fill="#222529"/>
<path d="M215.572 16.7C215.572 16.16 215.68 15.836 215.896 15.62C216.112 15.458 216.436 15.35 216.976 15.35H230.746C232.096 15.35 233.284 15.512 234.256 15.836C235.228 16.16 236.038 16.7 236.686 17.402C237.28 18.158 237.712 19.13 238.036 20.264C238.252 21.452 238.36 22.91 238.36 24.584C238.306 25.934 238.252 27.338 238.198 28.85C238.09 30.416 237.982 32.036 237.82 33.71H241.654V16.7C241.654 16.16 241.762 15.836 241.978 15.62C242.194 15.458 242.518 15.35 243.058 15.35H249.808C250.294 15.35 250.672 15.458 250.888 15.62C251.104 15.836 251.212 16.16 251.212 16.7V64.22C251.212 64.76 251.104 65.084 250.888 65.3C250.672 65.462 250.294 65.57 249.808 65.57H243.058C242.518 65.57 242.194 65.462 241.978 65.3C241.762 65.084 241.654 64.76 241.654 64.22V42.674H236.902C236.47 46.076 235.93 49.478 235.39 52.934C234.796 56.39 234.148 59.684 233.5 62.87C233.392 63.41 233.23 63.788 233.122 64.058C232.906 64.274 232.582 64.328 232.096 64.22L225.13 62.762C224.59 62.654 224.212 62.492 223.942 62.33C223.618 62.114 223.618 61.628 223.834 60.764C224.482 58.01 225.13 55.148 225.724 52.07C226.264 49.046 226.75 46.076 227.182 43.106C227.56 40.19 227.884 37.328 228.154 34.628C228.37 31.982 228.478 29.66 228.478 27.608C228.478 26.258 228.262 25.394 227.884 24.962C227.452 24.584 226.804 24.368 225.886 24.368H216.976C216.436 24.368 216.112 24.314 215.896 24.098C215.68 23.936 215.572 23.558 215.572 23.018V16.7ZM254.722 65.57C254.182 65.57 253.858 65.462 253.642 65.3C253.426 65.084 253.318 64.76 253.318 64.22V16.7C253.318 16.16 253.426 15.836 253.642 15.62C253.858 15.458 254.182 15.35 254.722 15.35H261.472C261.958 15.35 262.336 15.458 262.552 15.62C262.768 15.836 262.876 16.16 262.876 16.7V64.22C262.876 64.76 262.768 65.084 262.552 65.3C262.336 65.462 261.958 65.57 261.472 65.57H254.722Z" fill="#222529"/>
<path d="M279.13 24.044C278.914 28.256 278.806 32.468 278.806 36.68C278.752 40.946 278.752 45.428 278.86 50.18C278.86 51.476 279.184 52.448 279.724 53.042C280.21 53.69 281.182 53.96 282.64 53.906C285.286 53.852 287.824 53.744 290.308 53.582C292.738 53.474 295.33 53.312 298.03 53.042C298.516 52.988 298.84 53.042 299.056 53.204C299.218 53.42 299.326 53.798 299.434 54.338L299.974 60.602C300.028 61.142 299.92 61.466 299.704 61.628C299.434 61.736 299.056 61.844 298.57 61.952C295.006 62.222 291.55 62.438 288.31 62.654C284.962 62.762 281.614 62.87 278.158 62.87C274.702 62.87 272.218 61.952 270.76 60.116C269.248 58.226 268.492 55.31 268.492 51.206C268.492 48.074 268.492 44.996 268.546 42.026C268.546 39.11 268.6 36.194 268.708 33.386C268.708 30.578 268.816 27.824 268.924 25.016C268.978 22.316 269.086 19.508 269.248 16.7C269.248 16.16 269.41 15.836 269.626 15.62C269.788 15.458 270.112 15.35 270.652 15.35H296.356C296.842 15.35 297.22 15.458 297.436 15.62C297.652 15.836 297.76 16.16 297.76 16.7V22.694C297.76 23.234 297.652 23.612 297.436 23.774C297.22 23.99 296.842 24.044 296.356 24.044H279.13ZM291.442 35.06C291.442 34.52 291.55 34.196 291.766 33.98C291.982 33.818 292.306 33.71 292.846 33.71H303.916V16.7C303.916 16.16 304.024 15.836 304.24 15.62C304.456 15.458 304.78 15.35 305.32 15.35H312.88C313.366 15.35 313.744 15.458 313.96 15.62C314.176 15.836 314.284 16.16 314.284 16.7V64.22C314.284 64.76 314.176 65.084 313.96 65.3C313.744 65.462 313.366 65.57 312.88 65.57H305.32C304.78 65.57 304.456 65.462 304.24 65.3C304.024 65.084 303.916 64.76 303.916 64.22V42.674H292.846C292.306 42.674 291.982 42.62 291.766 42.404C291.55 42.242 291.442 41.864 291.442 41.324V35.06Z" fill="#222529"/>
</svg>
