<svg width="48" height="48" viewBox="0 0 48 48" fill="none" xmlns="http://www.w3.org/2000/svg">
<path d="M24.0518 12.5C17.939 12.5 12.8838 17.0534 12.1138 22.9395C12.092 23.0718 12.0972 23.2071 12.1291 23.3375C12.1609 23.4678 12.2187 23.5904 12.2991 23.698C12.3795 23.8055 12.4808 23.8959 12.597 23.9638C12.7132 24.0316 12.8419 24.0755 12.9755 24.0928C13.109 24.1101 13.2447 24.1004 13.3745 24.0644C13.5042 24.0285 13.6254 23.9669 13.7307 23.8833C13.8361 23.7998 13.9235 23.696 13.9877 23.5781C14.052 23.4603 14.0918 23.3307 14.1047 23.1973C14.7468 18.2894 18.9383 14.5 24.0518 14.5C26.8306 14.5 29.325 15.6285 31.1408 17.4414L29.0733 19.5L35.0992 20.5L34.0949 14.5L32.559 16.0293C30.3796 13.8575 27.3753 12.5 24.0518 12.5ZM35.0109 24.918C34.7621 24.9144 34.5208 25.0029 34.3338 25.1664C34.1468 25.3299 34.0274 25.5566 33.9988 25.8027C33.3567 30.7106 29.1652 34.5 24.0518 34.5C21.0166 34.5 18.3259 33.1502 16.4841 31.0352L18.0259 29.5L12 28.5L13.0043 34.5L15.062 32.4512C17.2679 34.9227 20.4724 36.5 24.0518 36.5C30.1645 36.5 35.2197 31.9466 35.9897 26.0605C36.0101 25.9199 36.0001 25.7766 35.9604 25.64C35.9208 25.5035 35.8524 25.377 35.7598 25.2689C35.6671 25.1608 35.5525 25.0736 35.4233 25.0131C35.2942 24.9526 35.1536 24.9201 35.0109 24.918Z" fill="#4A5056"/>
</svg>
